<svg width="43" height="45" viewBox="0 0 43 45" fill="none" xmlns="http://www.w3.org/2000/svg">
	<path
		d="M21.2043 16.8466C17.0546 16.9479 12.8539 17.1509 8.70443 17.5062C8.70443 17.3538 8.75494 17.1509 8.80545 16.9479C9.51384 14.0049 10.5766 11.265 12.1458 8.67747C12.2468 8.52513 12.3483 8.42386 12.4493 8.32216C12.5503 8.22089 12.7022 8.16983 12.8542 8.11919C13.5626 7.81495 15.2328 7.3073 19.0285 7.00304C19.1804 5.88689 19.4839 4.82142 19.8888 3.80651C18.1681 3.90779 16.4475 4.06013 14.7268 4.31374C12.9046 4.61799 11.2854 5.22691 10.1721 6.85074C8.55248 9.18471 7.33807 11.7217 6.5788 14.4616C6.42685 15.0705 6.27533 15.6794 6.02194 16.4909C5.81949 16.1356 5.61703 15.882 5.51601 15.6284C5.51601 15.6284 4.25074 13.5991 2.42903 13.548H1.46767C0.607329 13.5986 0.0504398 14.1569 0 15.0194V16.8462C0 17.7593 0.607371 18.3683 1.56876 18.3683H4.35225H5.46556C5.51607 18.4189 5.51607 18.4695 5.56658 18.5206C5.46556 18.5712 5.31361 18.6219 5.21217 18.7236C2.88414 20.9559 1.61887 23.6958 1.66942 26.943C1.71993 28.871 1.87187 30.8497 2.07434 32.7778C2.22629 34.2492 2.58027 35.7207 3.23819 37.0904C3.54167 37.6994 3.89607 38.156 4.5539 38.2573C4.85737 38.3079 4.90831 38.5109 4.90831 38.7645V41.1997C4.90831 42.3159 5.56618 42.9754 6.67947 42.9754H9.56394C10.7787 42.9754 11.4365 42.3158 11.4365 41.098V39.17C15.8396 39.4743 20.1919 39.6772 24.5445 39.6772H24.6964V37.4449V33.1829H24.5954H24.5449H24.4944H17.6621C17.1053 33.1829 16.6498 33.0306 16.3969 32.5234C16.1439 31.9651 16.3463 31.5085 16.7003 31.1025C17.3582 30.3413 18.2185 29.2252 19.2309 29.2252H24.4943H24.6463V20.3462C23.2796 19.4849 22.1158 18.2676 21.205 16.8467L21.2043 16.8466ZM9.61491 29.4298C7.69179 29.4298 6.17357 27.857 6.17357 25.9797C6.17357 24.0517 7.74234 22.5296 9.61491 22.5296C11.538 22.5296 13.0563 24.1023 13.0563 25.9797C13.0567 27.8567 11.4875 29.4298 9.61491 29.4298ZM41.1441 14.4114C40.1827 15.9335 38.8666 17.1007 37.2473 17.9122C36.9438 18.0645 36.7918 18.2675 36.7918 18.6224V40.7943C36.7918 42.9759 35.3746 44.6504 33.3 44.9547C30.9719 45.31 28.7453 43.5338 28.6439 41.1492V40.5909V18.6214C28.6439 18.2661 28.5429 18.1142 28.239 17.9619C22.5706 15.1206 21.0018 7.76343 24.9496 2.84168C25.8604 1.67486 27.0247 0.812407 28.3404 0.152338C28.4414 0.101699 28.4923 0.101698 28.7453 0C28.6948 0.20297 28.6443 0.355309 28.6443 0.507228V8.3717C28.6443 8.72701 28.7453 8.92998 28.9987 9.13296C30.1626 10.0461 31.3267 10.9597 32.44 11.8729C32.6425 12.0252 32.7944 12.0758 32.9969 11.8729C34.1608 10.9091 35.3755 9.99552 36.5396 9.03161C36.7421 8.87927 36.8431 8.6763 36.8431 8.42269V0.456863C36.8431 0.304525 36.7926 0.203249 36.7926 0.0509118C36.8431 0.0509118 36.8431 0.000273008 36.8936 0.000273008C37.248 0.203243 37.653 0.406224 38.0069 0.609194C42.7632 3.55299 44.1299 9.69235 41.1439 14.4105L41.1441 14.4114Z"
		fill="#30B21B" />
</svg>
