<svg width="51" height="45" viewBox="0 0 51 45" fill="none" xmlns="http://www.w3.org/2000/svg">
	<path
		d="M44.4594 12.8279C40.5583 4.81136 33.183 0.161941 24.2586 0.00169825C14.906 -0.105419 5.76747 4.86473 1.97355 12.0797C-3.0504 21.5924 2.77495 32.1203 5.55419 36.2358C6.40936 37.4648 7.63837 38.32 9.13483 38.5871L42.5365 44.8933C42.8569 44.9467 43.2312 45 43.5517 45C45.8496 45 48.0408 43.5034 48.7889 41.3126C51.7816 32.6551 52.1024 28.5936 44.4602 12.8288L44.4594 12.8279ZM47.8263 33.4033C45.1008 33.1362 41.3063 32.6015 36.176 31.4792C26.5028 29.3417 19.9824 21.2184 21.0522 15.8735C21.266 14.7512 22.4415 11.2239 28.2136 12.2395C33.7717 13.2014 38.1005 12.7738 40.8795 12.2395C41.2538 12.8276 41.5742 13.4685 41.8947 14.1099C46.7582 24.1572 48.201 29.0734 47.8271 33.4022L47.8263 33.4033Z"
		fill="#30B21B" />
	<path
		d="M29.8164 17.7435C29.8164 19.4852 28.4049 20.8966 26.6633 20.8966C24.9221 20.8966 23.5103 19.4851 23.5103 17.7435C23.5103 16.0023 24.9222 14.5905 26.6633 14.5905C28.405 14.5905 29.8164 16.0024 29.8164 17.7435Z"
		fill="#30B21B" />
</svg>
