<svg width="55" height="45" viewBox="0 0 55 45" fill="none" xmlns="http://www.w3.org/2000/svg">
	<path
		d="M17.0795 36.4866C17.0795 41.1885 13.256 45 8.5393 45C3.82264 45 0 41.1885 0 36.4866C0 31.7848 3.82358 27.9733 8.5393 27.9733C13.2555 27.9733 17.0795 31.7848 17.0795 36.4866ZM8.5393 31.5175C5.78663 31.5175 3.55412 33.7424 3.55412 36.4866C3.55412 39.2309 5.78616 41.4567 8.5393 41.4567C11.2924 41.4567 13.5235 39.2314 13.5235 36.4866C13.524 33.7424 11.2928 31.5175 8.5393 31.5175ZM46.4607 27.9733C41.7445 27.9733 37.9214 31.7853 37.9214 36.4866C37.9214 41.1885 41.745 45 46.4607 45C51.1764 45 55 41.188 55 36.4866C55 31.7848 51.1764 27.9733 46.4607 27.9733ZM51.4449 36.4866C51.4449 39.2309 49.2134 41.4567 46.4607 41.4567C43.708 41.4567 41.4755 39.2314 41.4755 36.4866C41.4755 33.7424 43.7076 31.5175 46.4607 31.5175C49.2134 31.5175 51.4449 33.7424 51.4449 36.4866ZM46.4607 25.9974C46.7696 25.9974 47.0738 26.0134 47.3758 26.0394L47.4015 25.9974C47.4015 25.9974 48.6882 24.0731 48.6882 22.6419C48.6882 18.0026 39.2329 15.5346 39.2329 15.5346L37.9122 17.7088C36.5915 17.0614 35.199 16.2958 34.3576 15.6101C32.8006 14.3396 28.763 9.49239 28.3621 9.1206C26.9681 7.82862 24.7882 7.90628 23.4918 9.29557C23.4144 9.37826 21.5883 11.3382 19.7307 13.5548C19.0103 14.4155 18.4027 15.1711 17.8908 15.8426C18.2226 16.2131 20.7951 18.967 24.0308 19.1305C24.039 19.1309 24.0468 19.1323 24.055 19.1332C25.2162 17.6855 26.7156 15.9532 28.1256 14.4204C29.3765 15.7598 30.9433 17.3629 32.126 18.3282C33.1617 19.173 34.6826 20.0259 36.0797 20.7234L34.2807 23.6842V23.4576C34.2807 22.9798 33.8925 22.5919 33.4128 22.5919L27.4607 22.5928C26.1588 22.0574 24.8919 21.4772 23.864 20.955C20.4048 20.7472 17.7259 18.3185 16.7988 17.3628C15.5873 19.1779 15.2912 20.2255 15.2912 21.2113C15.2912 21.9641 15.4786 22.6398 15.8319 23.2639L5.48076 22.2543L4.32187 26.8766C5.61368 26.3124 7.03969 25.9976 8.53949 25.9976C14.3499 25.9976 19.0607 30.694 19.0607 36.4869C19.0607 37.4705 18.9219 38.4216 18.668 39.3249H36.3336C36.0798 38.4217 35.9409 37.4706 35.9409 36.4869C35.9404 30.6936 40.6511 25.9973 46.4612 25.9973L46.4607 25.9974ZM34.1632 9.73858C35.1626 8.63895 35.2313 7.43741 35.2313 7.43741L35.0764 7.37665C35.0687 6.90199 34.9898 6.28616 34.9898 6.28616C34.9898 6.28616 34.9738 6.0285 34.7314 6.0285L34.6287 6.28616C34.5247 6.54382 34.1453 6.68179 34.1453 6.68179C34.1453 6.68179 32.716 6.32134 32.4407 6.18383C32.1644 6.04586 32.1474 5.70231 32.1474 5.70231C32.1474 5.70231 32.2161 4.91242 32.2161 4.43185C32.2161 3.95127 32.6299 3.95124 32.6299 3.95124C32.6299 3.95124 34.3011 3.93388 34.5247 3.89916C34.6938 3.87403 34.7053 3.68079 34.7007 3.58851L34.9037 3.59034C34.9037 3.59034 33.8346 0 30.3726 0C26.9096 0 25.6514 2.33637 25.6514 4.05359C25.6514 5.77139 26.2375 6.99063 26.2375 6.99063L34.1632 9.73858Z"
		fill="#30B21B" />
</svg>
