<svg width="72" height="72" viewBox="0 0 72 72" fill="none" xmlns="http://www.w3.org/2000/svg">
<circle cx="36" cy="36" r="35" fill="#FBFBFD" stroke="#30B21B" stroke-width="1.5"/>
<path d="M23.0634 38.1141H22.8334H22.1776C20.9031 38.1141 19.6809 38.6203 18.7797 39.5215C17.8785 40.4227 17.3722 41.6449 17.3722 42.9194V48.0969C17.3722 48.9137 17.6967 49.6969 18.2742 50.2745C18.8517 50.852 19.635 51.1764 20.4517 51.1764H23.9034C24.2624 51.1764 24.6067 51.0338 24.8606 50.7799C25.1144 50.5261 25.257 50.1818 25.257 49.8228C25.257 49.4638 25.1144 49.1195 24.8606 48.8656C24.6067 48.6118 24.2624 48.4692 23.9034 48.4692H20.4517H20.0795V48.0969V42.9194C20.0795 42.3629 20.3005 41.8293 20.694 41.4358C21.0875 41.0423 21.6211 40.8213 22.1776 40.8213L23.9023 40.8213C23.9024 40.8213 23.9025 40.8213 23.9026 40.8213C24.1525 40.8205 24.3972 40.7505 24.6098 40.6192C24.8223 40.4878 24.9943 40.3003 25.1068 40.0773C25.1069 40.0771 25.1069 40.0769 25.107 40.0768L27.609 35.0728L27.6095 35.0718C27.7854 34.7226 28.0555 34.4295 28.3891 34.2256C28.7224 34.022 29.1059 33.9154 29.4964 33.9179H36.2768H36.2778V34.2901C36.5049 34.2888 36.7301 34.3323 36.9404 34.4182C37.1506 34.5041 37.3419 34.6306 37.5032 34.7906L23.0634 38.1141ZM23.0634 38.1141L23.1663 37.9083L25.1856 33.8698L25.1857 33.8696C25.5852 33.0693 26.2002 32.3963 26.9615 31.9266C27.7227 31.4568 28.6 31.2089 29.4945 31.2106H29.4952H36.2776C37.5516 31.2118 38.773 31.7188 39.6732 32.6202L39.6734 32.6204L45.0581 38.005L45.1671 38.1141H45.3213H48.8932C50.4045 38.1185 51.8526 38.7208 52.9212 39.7894C53.99 40.8581 54.5923 42.3064 54.5966 43.8179V44.6452C54.5966 45.0042 54.454 45.3485 54.2001 45.6024C53.9463 45.8562 53.602 45.9988 53.243 45.9988C52.884 45.9988 52.5397 45.8562 52.2858 45.6024C52.032 45.3485 51.8893 45.0042 51.8893 44.6452V43.8168C51.8893 43.0224 51.5737 42.2604 51.012 41.6987C50.4502 41.1369 49.6883 40.8213 48.8938 40.8213L44.6137 40.8213L44.6115 40.8213C44.4334 40.8223 44.2568 40.7882 44.0919 40.7208C43.9272 40.6536 43.7775 40.5546 43.6512 40.4294M23.0634 38.1141L43.6512 40.4294M43.6512 40.4294C43.6509 40.4292 43.6507 40.429 43.6505 40.4287L43.6512 40.4294Z" fill="#30B21B" stroke="white" stroke-width="0.744487"/>
<path d="M42.8879 51.1761H30.8069C30.4479 51.1761 30.1036 51.0335 29.8498 50.7797C29.5959 50.5258 29.4533 50.1815 29.4533 49.8225C29.4533 49.4635 29.5959 49.1192 29.8498 48.8654C30.1036 48.6115 30.4479 48.4689 30.8069 48.4689H42.8879C43.2469 48.4689 43.5912 48.6115 43.845 48.8654C44.0989 49.1192 44.2415 49.4635 44.2415 49.8225C44.2415 50.1815 44.0989 50.5258 43.845 50.7797C43.5912 51.0335 43.2469 51.1761 42.8879 51.1761Z" fill="#30B21B" stroke="white" stroke-width="0.744487"/>
<path d="M27.3551 54.6279C26.4047 54.6279 25.4756 54.3461 24.6854 53.8181C23.8951 53.2901 23.2792 52.5396 22.9155 51.6615C22.5518 50.7834 22.4567 49.8173 22.6421 48.8851C22.8275 47.953 23.2851 47.0967 23.9572 46.4247C24.6292 45.7527 25.4854 45.295 26.4176 45.1096C27.3497 44.9242 28.3159 45.0193 29.194 45.383C30.072 45.7468 30.8225 46.3627 31.3505 47.1529C31.8786 47.9431 32.1604 48.8722 32.1604 49.8226C32.1604 51.097 31.6541 52.3193 30.7529 53.2205C29.8518 54.1216 28.6295 54.6279 27.3551 54.6279ZM27.3551 47.7245C26.9401 47.7245 26.5344 47.8475 26.1894 48.0781C25.8444 48.3086 25.5755 48.6363 25.4167 49.0197C25.2579 49.4031 25.2163 49.8249 25.2973 50.2319C25.3782 50.6389 25.5781 51.0127 25.8715 51.3062C26.1649 51.5996 26.5387 51.7994 26.9457 51.8804C27.3527 51.9613 27.7746 51.9198 28.158 51.761C28.5413 51.6022 28.869 51.3333 29.0996 50.9882C29.3301 50.6432 29.4532 50.2376 29.4532 49.8226C29.4532 49.2661 29.2321 48.7325 28.8386 48.339C28.4452 47.9455 27.9115 47.7245 27.3551 47.7245Z" fill="#30B21B" stroke="white" stroke-width="0.744487"/>
<path d="M46.3394 54.6279C45.389 54.6279 44.46 54.3461 43.6697 53.8181C42.8795 53.2901 42.2636 52.5396 41.8999 51.6615C41.5362 50.7834 41.441 49.8173 41.6264 48.8851C41.8119 47.953 42.2695 47.0967 42.9416 46.4247C43.6136 45.7527 44.4698 45.295 45.402 45.1096C46.3341 44.9242 47.3003 45.0193 48.1784 45.383C49.0564 45.7468 49.8069 46.3627 50.3349 47.1529C50.8629 47.9431 51.1448 48.8722 51.1448 49.8226C51.1448 51.097 50.6385 52.3193 49.7373 53.2205C48.8361 54.1216 47.6139 54.6279 46.3394 54.6279ZM46.3394 47.7245C45.9245 47.7245 45.5188 47.8475 45.1738 48.0781C44.8288 48.3086 44.5598 48.6363 44.401 49.0197C44.2422 49.4031 44.2007 49.8249 44.2816 50.2319C44.3626 50.6389 44.5624 51.0127 44.8559 51.3062C45.1493 51.5996 45.5231 51.7994 45.9301 51.8804C46.3371 51.9613 46.759 51.9198 47.1423 51.761C47.5257 51.6022 47.8534 51.3333 48.0839 50.9882C48.3145 50.6432 48.4375 50.2376 48.4375 49.8226C48.4375 49.2661 48.2165 48.7325 47.823 48.339C47.4295 47.9455 46.8959 47.7245 46.3394 47.7245Z" fill="#30B21B" stroke="white" stroke-width="0.744487"/>
<mask id="mask0_140_285" style="mask-type:alpha" maskUnits="userSpaceOnUse" x="34" y="32" width="11" height="8">
<path d="M37.5561 32.9362L43.715 39.0951H37.7103C36.8935 39.0951 36.1103 38.7707 35.5327 38.1932C34.9552 37.6157 34.6308 36.8324 34.6308 36.0157V32.9362H37.5561Z" fill="black" stroke="white" stroke-width="0.744487"/>
</mask>
<g mask="url(#mask0_140_285)">
<path d="M37.7103 39.0952H32.5327C32.1737 39.0952 31.8294 38.9525 31.5756 38.6987C31.3217 38.4448 31.1791 38.1005 31.1791 37.7415C31.1791 37.3825 31.3217 37.0382 31.5756 36.7844C31.8294 36.5305 32.1737 36.3879 32.5327 36.3879H37.7103C38.0693 36.3879 38.4136 36.5305 38.6675 36.7844L38.9307 36.5212L38.6675 36.7844C38.9213 37.0382 39.0639 37.3825 39.0639 37.7415C39.0639 38.1005 38.9213 38.4448 38.6675 38.6987C38.4136 38.9525 38.0693 39.0952 37.7103 39.0952Z" fill="#30B21B" stroke="white" stroke-width="0.744487"/>
</g>
<path d="M45.4838 28.74L45.4838 28.7399H45.4766C43.9733 28.7399 42.5316 28.1427 41.4686 27.0797C40.4056 26.0167 39.8084 24.575 39.8084 23.0717H39.8085L39.8083 23.0645C39.794 22.3163 39.9298 21.5727 40.2078 20.8778C40.4853 20.184 40.899 19.5527 41.4243 19.0212C42.5085 17.9646 43.9626 17.3732 45.4766 17.3732C46.9907 17.3732 48.4449 17.9646 49.5291 19.0213C49.781 19.2761 49.9218 19.6202 49.9205 19.9786C49.9192 20.3378 49.7753 20.6818 49.5204 20.935C49.2654 21.1881 48.9204 21.3296 48.5611 21.3283C48.2019 21.3271 47.8578 21.1831 47.6047 20.9282L47.6048 20.9281L47.5985 20.9221C47.0373 20.3829 46.2893 20.0818 45.5112 20.0818C44.733 20.0818 43.985 20.3829 43.4239 20.9221L43.4238 20.922L43.4184 20.9274C42.8639 21.4826 42.5524 22.2352 42.5524 23.0199C42.5524 23.8046 42.8639 24.5572 43.4184 25.1124L43.4183 25.1124L43.4239 25.1177C43.985 25.6569 44.733 25.9579 45.5112 25.9579C46.2893 25.9579 47.0373 25.6569 47.5985 25.1177L47.5992 25.117C47.8646 24.8606 48.221 24.7202 48.59 24.7266C48.959 24.733 49.3103 24.8857 49.5667 25.1511C49.8231 25.4165 49.9636 25.7729 49.9572 26.1419C49.9508 26.5109 49.7981 26.8622 49.5327 27.1186L49.5326 27.1186L49.5295 27.1217C48.9975 27.6482 48.3654 28.0626 47.6705 28.3405C46.9756 28.6185 46.232 28.7543 45.4838 28.74ZM50.3294 26.1483C50.3213 26.616 50.1277 27.0613 49.7913 27.3863L43.6818 21.1905C43.197 21.6759 42.9247 22.3339 42.9247 23.0199C42.9247 23.7059 43.197 24.3639 43.6818 24.8493C44.1736 25.3218 44.8291 25.5857 45.5112 25.5857C46.1932 25.5857 46.8488 25.3218 47.3406 24.8493C47.677 24.5243 48.1287 24.3463 48.5964 24.3544C49.0641 24.3625 49.5094 24.556 49.8344 24.8925C50.1594 25.2289 50.3374 25.6806 50.3294 26.1483Z" fill="#30B21B" stroke="white" stroke-width="0.744487"/>
<path d="M23.4028 21.2938L23.1385 21.0316C23.0127 21.1585 22.863 21.2592 22.698 21.3279C22.5331 21.3966 22.3561 21.432 22.1775 21.432C21.9988 21.432 21.8218 21.3966 21.6569 21.3279C21.4919 21.2592 21.3422 21.1585 21.2164 21.0316L21.2106 21.0258L21.2045 21.0202C21.0671 20.8934 20.9574 20.7396 20.8824 20.5683C20.8074 20.3971 20.7687 20.2122 20.7687 20.0253C20.7687 19.8383 20.8074 19.6534 20.8824 19.4822C20.9574 19.3109 21.0671 19.1571 21.2045 19.0303L21.2047 19.0305L21.214 19.0213C21.7459 18.4947 22.3762 18.0781 23.0691 17.7952C23.762 17.5122 24.5038 17.3686 25.2522 17.3723C26.0006 17.3761 26.741 17.5272 27.431 17.8171C28.121 18.107 28.7471 18.5299 29.2737 19.0618C29.8002 19.5937 30.2169 20.224 30.4998 20.9169C30.7827 21.6098 30.9264 22.3516 30.9227 23.1C30.9189 23.8484 30.7678 24.5888 30.4779 25.2788C30.188 25.9687 29.7651 26.5949 29.2333 27.1214C28.7071 27.6419 28.0829 28.053 27.3968 28.3308C26.7107 28.6085 25.9763 28.7475 25.2362 28.7397L25.2362 28.7396L25.2281 28.7397C24.4852 28.7479 23.748 28.6091 23.059 28.3312C22.3706 28.0537 21.7438 27.6428 21.2147 27.1222C20.9635 26.8687 20.8225 26.5263 20.8225 26.1693C20.8225 25.8117 20.964 25.4686 21.2161 25.215L21.2164 25.2147C21.3422 25.0878 21.4919 24.9871 21.6569 24.9184C21.8218 24.8497 21.9988 24.8143 22.1775 24.8143C22.3561 24.8143 22.5331 24.8497 22.698 24.9184C22.8629 24.9871 23.0125 25.0877 23.1383 25.2145C23.412 25.4915 23.738 25.7115 24.0974 25.8616C24.4569 26.0118 24.8426 26.0891 25.2322 26.0891C25.6218 26.0891 26.0075 26.0118 26.367 25.8616C26.7265 25.7114 27.0526 25.4913 27.3264 25.2142L27.3267 25.2139C27.876 24.6566 28.1839 23.9056 28.1839 23.1232C28.1839 22.3407 27.876 21.5897 27.3267 21.0324L27.3264 21.0322C27.0526 20.755 26.7265 20.5349 26.367 20.3847C26.0075 20.2345 25.6218 20.1572 25.2322 20.1572C24.8426 20.1572 24.4569 20.2345 24.0974 20.3847C23.7379 20.5349 23.4118 20.755 23.138 21.0322L23.4028 21.2938ZM23.4028 21.2938C23.642 21.0516 23.9269 20.8594 24.2409 20.7282C24.5549 20.597 24.8919 20.5294 25.2322 20.5294C25.5726 20.5294 25.9095 20.597 26.2235 20.7282C26.5376 20.8594 26.8224 21.0516 27.0616 21.2938L29.4951 27.386C30.0617 26.8251 30.5123 26.158 30.8211 25.423C31.1299 24.6879 31.2909 23.8992 31.2949 23.1019C31.2989 22.3046 31.1458 21.5143 30.8444 20.7762C30.543 20.038 30.0992 19.3665 29.5382 18.7999C28.9773 18.2333 28.3102 17.7827 27.5752 17.4739C26.8401 17.1651 26.0514 17.0041 25.2541 17.0001C24.4568 16.9961 23.6665 17.1491 22.9284 17.4506C22.1902 17.752 21.5187 18.1958 20.9521 18.7567C20.7769 18.9184 20.6371 19.1145 20.5415 19.3328C20.4459 19.5511 20.3965 19.7869 20.3965 20.0253C20.3965 20.2636 20.4459 20.4994 20.5415 20.7177C20.6371 20.936 20.7769 21.1321 20.9521 21.2938C21.1125 21.4555 21.3034 21.5839 21.5137 21.6715C21.724 21.7592 21.9496 21.8043 22.1775 21.8043C22.4053 21.8043 22.6309 21.7592 22.8412 21.6715C23.0515 21.5839 23.2424 21.4555 23.4028 21.2938Z" fill="#30B21B" stroke="white" stroke-width="0.744487"/>
<rect x="29.6562" y="22" width="11.1673" height="2" fill="#30B21B"/>
</svg>
