<svg width="72" height="72" viewBox="0 0 72 72" fill="none" xmlns="http://www.w3.org/2000/svg">
	<circle cx="36" cy="36" r="35" fill="#FBFBFD" stroke="#30B21B" stroke-width="1.5" />
	<path
		d="M55.2553 49.6903L52.7104 50.5385L47.5285 36.9381L47.5283 36.9382C47.3857 36.5629 46.9957 36.3422 46.6003 36.4144L55.2553 49.6903ZM55.2553 49.6903L52.9597 42.9961C52.9596 42.9959 52.9595 42.9956 52.9594 42.9953C52.8854 42.7857 52.8983 42.5555 52.9949 42.3553L52.9949 42.3552C53.0917 42.1551 53.2646 42.0015 53.4753 41.9294L53.4755 41.9293C53.6856 41.8577 53.9165 41.8726 54.1158 41.9716C54.3148 42.0704 54.466 42.2443 54.5361 42.4551C54.5362 42.4554 54.5363 42.4557 54.5364 42.4559L57.0899 49.9025L57.0902 49.9027L57.1049 49.9455C57.177 50.1558 57.1621 50.3864 57.0635 50.5853L57.0635 50.5854C56.9646 50.7844 56.791 50.9362 56.5797 51.0066L56.3823 51.0724V51.0721L52.4798 52.3731L52.4323 52.2308L52.4797 52.3731C52.0561 52.5143 51.5964 52.2965 51.4375 51.879L51.4277 51.8532V51.8529L47.5833 41.7602M55.2553 49.6903L47.5833 41.7602M45.9162 53.4823V37.2325V37.2322C45.9171 36.8302 46.2047 36.4862 46.6002 36.4144L45.9162 53.4823ZM45.9162 53.4823H27.083V47.4826C27.083 47.0221 26.7099 46.649 26.2497 46.649C25.7892 46.649 25.4162 47.0221 25.4162 47.4826V54.3159C25.4162 54.5368 25.5042 54.7488 25.6603 54.905L45.9162 53.4823ZM47.5833 41.7602V54.3159C47.5833 54.5368 47.4953 54.7488 47.3392 54.905L47.339 54.9051C47.1827 55.0611 46.9711 55.1491 46.7497 55.1491H26.2497C26.0285 55.1491 25.8165 55.0611 25.6603 54.905L47.5833 41.7602Z"
		fill="#30B21B" stroke="#30B21B" stroke-width="0.3" />
	<path
		d="M17.7441 49.6897L24.7259 29.3253H24.7261L24.7609 29.2242C25.247 27.8125 26.3827 26.7201 27.8126 26.2892L30.1498 25.588C30.1498 25.588 30.1499 25.588 30.1499 25.588C30.47 25.4921 30.7024 25.2141 30.7389 24.8813L31.2576 20.2069L17.7441 49.6897ZM17.7441 49.6897L20.289 50.5356L25.4709 36.9353L17.7441 49.6897ZM38.9665 16.1294L38.9665 16.1294C37.4235 15.3132 35.5768 15.3132 34.0334 16.1294L33.9633 15.9968L34.0334 16.1294C32.4905 16.9453 31.4512 18.4721 31.2576 20.2068L38.9665 16.1294ZM38.9665 16.1294C40.5095 16.9453 41.5492 18.4721 41.7427 20.2069L42.243 24.715M38.9665 16.1294L42.243 24.715M42.243 24.715H42.2426L42.2611 24.8815C42.298 25.214 42.5298 25.492 42.8505 25.588L42.243 24.715ZM53.1337 40.9266L53.1337 40.9267C52.6979 41.0757 52.2241 40.8435 52.075 40.4081C52.075 40.4081 52.075 40.4081 52.075 40.408L48.2394 29.2242L53.1337 40.9266ZM53.1337 40.9266C53.5692 40.7775 53.8014 40.3037 53.6524 39.8679L53.6523 39.8678L49.816 28.6837L49.8159 28.6835C49.1549 26.7639 47.611 25.2797 45.6672 24.6936L45.667 24.6935L43.857 24.1506M53.1337 40.9266L43.857 24.1506M43.857 24.1506L43.399 20.0237L43.399 20.0236C43.145 17.7403 41.7774 15.7302 39.7463 14.6558C37.7155 13.5814 35.2847 13.5814 33.2536 14.6558L33.3238 14.7884L33.2536 14.6558C31.2228 15.7302 29.8553 17.7403 29.601 20.0236L29.601 20.0237L29.143 24.1506L27.333 24.6935L27.3328 24.6936C25.3892 25.2796 23.8454 26.7639 23.1844 28.6835L23.1843 28.6837L15.8951 49.9446C15.8951 49.9446 15.8951 49.9447 15.8951 49.9447C15.8229 50.1549 15.8379 50.3854 15.9364 50.5843L43.857 24.1506ZM42.8506 25.588L45.1878 26.2892L42.8506 25.588ZM45.1879 26.2892C46.6177 26.7201 47.7533 27.8124 48.2394 29.224L45.1879 26.2892Z"
		fill="#30B21B" stroke="#30B21B" stroke-width="0.3" />
	<path
		d="M41.2633 24.087L41.2655 24.0868L41.2545 23.9433L41.0099 20.7577L41.0099 20.7576C40.892 19.2286 40.0074 17.8638 38.6601 17.1314L38.6601 17.1314C37.3131 16.3994 35.6868 16.3994 34.3396 17.1314L34.3396 17.1315C32.9927 17.8639 32.1081 19.2286 31.9902 20.7576L31.9902 20.7576L31.99 20.7593C31.9601 21.2148 32.3029 21.6094 32.7578 21.6442L32.7578 21.6442C33.213 21.6789 33.6111 21.3415 33.6516 20.8867L33.6516 20.8867L33.6518 20.8849C33.7261 19.9195 34.2848 19.0572 35.1354 18.5948L35.1354 18.5948C35.9864 18.1321 37.0136 18.1321 37.8646 18.5948L37.8646 18.5948C38.7152 19.0571 39.2738 19.9195 39.3482 20.8849L39.5919 24.0601H39.5919L39.5928 24.072C39.6337 24.584 39.5202 25.0966 39.267 25.5434L39.267 25.5434C39.0137 25.9906 38.6327 26.3512 38.1722 26.5796L38.1717 26.5798L36.4997 27.4163L34.91 26.6216V26.6209L34.8266 26.5796C34.3665 26.3512 33.9854 25.9906 33.7322 25.5434L33.7321 25.5434C33.4789 25.0966 33.3654 24.584 33.4063 24.072L33.4064 24.0716L33.4482 23.525L33.4535 23.4563L33.4503 23.4532C33.4471 23.0253 33.1168 22.6639 32.6825 22.63C32.4609 22.6101 32.2412 22.6807 32.0727 22.825L41.2633 24.087ZM41.2633 24.087C41.2996 24.8813 41.1112 25.6711 40.7184 26.3651C40.3022 27.1007 39.6747 27.695 38.9174 28.0708C38.9173 28.0708 38.9173 28.0708 38.9173 28.0708L37.3333 28.8628V51.5815C37.3333 52.0421 36.9603 52.4151 36.4997 52.4151C36.0395 52.4151 35.6665 52.042 35.6665 51.5815V28.8628L34.0826 28.0709C34.0825 28.0708 34.0825 28.0708 34.0825 28.0708C33.3248 27.695 32.6973 27.1011 32.2807 26.3651C31.8755 25.6497 31.6879 24.8321 31.7398 24.0124L31.7391 24.0117L31.7444 23.943L31.7862 23.3974C31.8005 23.1757 31.9042 22.9694 32.0727 22.825L41.2633 24.087Z"
		fill="#30B21B" stroke="#30B21B" stroke-width="0.3" />
</svg>
