<svg width="46" height="45" viewBox="0 0 46 45" fill="none" xmlns="http://www.w3.org/2000/svg">
	<path fill-rule="evenodd" clip-rule="evenodd"
		d="M23.3009 3.75619C26.1371 3.75619 27.783 3.83502 28.7275 3.93841L28.6621 4.41365L27.8016 5.37342C27.7321 5.45263 27.6833 5.54634 27.6287 5.63484H18.9728C18.9181 5.54634 18.8694 5.45263 18.7999 5.37342L17.9394 4.41365L17.8739 3.93841C18.8189 3.83503 20.4643 3.75619 23.3009 3.75619ZM44.9126 34.5391C41.1051 15.0646 39.6867 9.36805 38.3116 8.04196C37.6356 7.38822 34.754 5.47012 32.464 4.34489L32.6745 2.85334C32.7552 2.27658 32.5655 1.69422 32.1598 1.27735C31.1904 0.285591 29.205 0 23.3009 0C17.3968 0 15.4111 0.285591 14.442 1.27735C14.0359 1.69421 13.8462 2.27654 13.9269 2.85334L14.1374 4.34489C11.8493 5.47012 8.96592 7.38824 8.29174 8.04196C6.91471 9.36805 5.49647 15.0653 1.68897 34.5391C1.35243 36.262 1.04824 37.8134 0.796495 39.0795C0.69312 39.5867 0.805791 40.1144 1.10848 40.5391C1.41081 40.9619 1.87303 41.2397 2.38774 41.3092L7.98352 42.0626C8.94177 42.1883 9.83015 41.5781 10.0574 40.6444C11.4719 34.8303 13.5384 26.4276 14.4064 23.0767C14.438 23.5389 14.4588 24.0049 14.4625 24.4723C14.1055 26.0616 12.0298 35.5665 12.0298 41.326C12.0298 42.0846 12.4864 42.7703 13.187 43.0614C13.3636 43.1347 17.0246 44.6337 21.4223 44.9999V41.2564C21.4223 36.1433 21.9481 30.5867 23.034 24.2713C23.6033 20.9613 23.3367 14.3832 21.815 12.4202C21.5312 12.054 20.6239 10.0325 20.2933 9.39213H26.3194C26.0342 9.9555 25.5567 10.784 25.1792 11.2704C27.3375 15.2169 27.146 22.5207 26.7366 24.9064C25.6882 31.0117 25.1792 36.3595 25.1792 41.2565V45C29.5769 44.6337 33.2378 43.1347 33.4145 43.0615C34.1151 42.7703 34.5717 42.0846 34.5717 41.3261C34.5717 35.5666 32.496 26.0612 32.139 24.4724C32.1427 24.0068 32.1635 23.5427 32.1955 23.0823C33.0612 26.4373 35.1109 34.8344 36.5158 40.6462C36.7412 41.5799 37.6411 42.1902 38.5916 42.0663L44.2138 41.3092C44.7285 41.2397 45.1908 40.9619 45.4931 40.5391C45.7958 40.1144 45.9085 39.5867 45.8051 39.0795C45.5533 37.8133 45.2492 36.2619 44.9126 34.5391"
		fill="#30B21B" />
</svg>
