<svg width="72" height="72" viewBox="0 0 72 72" fill="none" xmlns="http://www.w3.org/2000/svg">
<circle cx="36" cy="36" r="35" fill="#FBFBFD" stroke="#30B21B" stroke-width="1.5"/>
<path d="M30.0988 29.4331C28.4547 29.4331 27.1056 30.738 27.1056 32.3853C27.1056 34.0308 28.4547 35.3785 30.0988 35.3785C31.7447 35.3799 33.0924 34.0308 33.0924 32.3853C33.0924 30.7394 31.7447 29.4331 30.0988 29.4331ZM29.7663 30.7636C29.8737 30.7419 29.9854 30.7636 30.0988 30.7636C31.009 30.7636 31.7619 31.4737 31.7619 32.3853C31.7619 33.2965 31.009 34.048 30.0988 34.048C29.189 34.048 28.4361 33.2965 28.4361 32.3853C28.4361 31.5878 29.0155 30.9175 29.7663 30.7636H29.7663Z" fill="#FBFBFD" stroke="#30B21B"/>
<path d="M34.7554 17.0025C32.4732 17.0397 30.1556 17.518 27.937 18.4994C22.9865 20.6892 19.319 25.0582 18 30.3062C18.1478 35.1128 19.1121 39.8648 20.8271 44.3586C30.2985 49.5736 40.6553 52.9177 51.3843 54.2534C52.7506 51.6566 53.7387 48.8938 54.3361 46.0217C48.6741 45.3672 43.0659 44.4159 37.4987 43.1946C35.068 42.6612 32.8501 41.3798 31.1793 39.5359L27.1467 35.0872C26.0638 33.8926 25.7937 32.1382 26.4817 30.6803C27.4224 28.6861 29.8102 27.8272 31.8034 28.768L35.8778 30.7221C36.3926 30.9654 36.9727 31.0883 37.5408 31.0964C42.4285 31.167 47.325 30.8706 52.1749 30.2649C51.8662 29.3252 51.4964 28.3898 51.094 27.4796C48.1503 20.8238 41.6011 16.8908 34.7547 17.0023L34.7554 17.0025ZM52.1752 30.2647C53.754 35.072 54.1157 40.1855 53.1729 45.19C53.6132 45.2444 54.0199 45.3045 54.4616 45.3564C55.4048 40.2742 55.1141 35.0248 53.5469 30.0985C53.0918 30.1614 52.6307 30.2077 52.1749 30.265L52.1752 30.2647ZM34.7554 18.3329C36.3373 18.3073 37.9041 18.5152 39.4067 18.9376C40.9097 19.3604 42.3484 19.9977 43.6743 20.8304C45.0003 21.6633 46.2139 22.6915 47.2659 23.896C48.7193 25.6272 49.5748 27.3162 50.3873 29.1421C46.1328 29.6064 41.8206 29.8269 37.5404 29.7658C37.1612 29.7619 36.804 29.6787 36.4596 29.5165L32.3852 27.5627C29.7274 26.3095 26.5293 27.4819 25.2761 30.1402C24.3582 32.0852 24.7058 34.368 26.1491 35.9605L30.2235 40.4507C32.0807 42.4997 34.5072 43.8913 37.2079 44.4833C42.3326 45.6073 47.5081 46.4961 52.7148 47.144C52.2105 49.0943 51.5209 50.9874 50.636 52.7982C40.5632 51.4319 30.7997 48.253 21.8659 43.4024C20.3331 39.2409 19.4869 34.8627 19.3299 30.4314C20.587 25.6568 23.9595 21.7022 28.4767 19.7051C30.5274 18.7981 32.6456 18.3676 34.755 18.3332L34.7554 18.3329Z" fill="#30B21B" stroke="#30B21B"/>
</svg>
