<svg width="45" height="45" viewBox="0 0 45 45" fill="none" xmlns="http://www.w3.org/2000/svg">
	<path fill-rule="evenodd" clip-rule="evenodd"
		d="M2.97962 34.5176C3.33409 33.7975 3.80363 33.145 4.36483 32.5834C5.43419 31.5156 6.83423 30.7769 8.39798 30.5375C8.48855 30.5242 8.57318 30.558 8.62848 30.6311C8.6849 30.7035 8.6953 30.794 8.65855 30.8779L7.63489 33.2034C7.60965 33.2609 7.56957 33.3017 7.51166 33.327C6.98013 33.569 6.49988 33.9041 6.09196 34.3113C5.94646 34.4568 5.80986 34.6123 5.68329 34.7752C5.63541 34.8365 5.5686 34.8703 5.49066 34.8703H3.1979C3.11142 34.8703 3.03681 34.8287 2.99042 34.7548C2.94476 34.681 2.94068 34.5952 2.97928 34.518L2.97962 34.5176ZM14.3888 0.000366825C11.6503 1.29911 8.03681 2.78191 3.98969 3.15049C3.55653 3.18984 3.23175 3.53577 3.24214 3.94555C3.34978 8.00246 3.44666 13.1567 4.21867 15.4516C5.63619 19.9046 9.59142 23.5017 14.2709 24.8791C14.4416 24.9288 14.6035 24.9277 14.7735 24.8757C19.4711 23.4323 23.1717 19.9068 24.649 15.4539C25.6114 12.5591 25.5572 8.01071 25.6229 3.94116C25.6292 3.53398 25.3045 3.19176 24.8743 3.15279C20.811 2.78792 17.1821 1.30207 14.4334 0L14.3888 0.000366825ZM14.3999 3.15315C12.3544 4.12341 9.65512 5.23097 6.63233 5.50567C6.30978 5.53537 6.06629 5.79408 6.07408 6.09992C6.15425 9.13061 6.22738 12.98 6.80307 14.6934C7.86208 18.0199 10.8166 20.7064 14.3116 21.7346C14.4397 21.7725 14.5599 21.7714 14.6872 21.7324C18.196 20.6545 20.9597 18.0214 22.0636 14.6956C22.7822 12.5328 22.7414 9.13617 22.7907 6.09703C22.7948 5.79267 22.5532 5.5373 22.2317 5.50835C19.1963 5.23479 16.4859 4.12608 14.4334 3.15288H14.3996L14.3999 3.15315ZM11.9706 10.7281L13.5785 12.4136L17.2699 8.77125C17.5728 8.47171 18.0638 8.47505 18.3626 8.7783L19.4476 9.87807C19.7471 10.1809 19.7438 10.6713 19.4405 10.9708L14.6268 15.7211L14.067 16.273C13.9138 16.4241 13.7267 16.4994 13.5103 16.4953C13.2943 16.4913 13.1102 16.4096 12.9617 16.2522L12.4216 15.6791L9.72951 12.8408C9.43702 12.5327 9.45261 12.0413 9.76105 11.7502L10.876 10.6961C11.0308 10.5498 11.2171 10.4797 11.4294 10.486C11.6425 10.4923 11.8225 10.5747 11.9702 10.7287L11.9706 10.7281ZM13.9504 31.6906H18.3132C18.6213 31.6906 18.8729 31.943 18.8729 32.2511V35.6072C18.8729 35.916 18.6213 36.1677 18.3132 36.1677H12.3844C12.0771 36.1677 11.7278 35.8084 11.9167 35.3596L13.2252 32.251C13.3918 31.8546 13.6412 31.6906 13.9501 31.6906L13.9504 31.6906ZM29.5376 22.2906C29.1249 22.2906 28.7901 21.9558 28.7901 21.5423C28.7901 21.1296 29.1249 20.7948 29.5376 20.7948H31.2517C31.4269 20.7948 31.5872 20.8538 31.7142 20.9544L33.1866 21.9591C33.7991 21.6091 34.4334 21.5787 34.4334 21.5787C34.5032 21.2791 34.773 21.0542 35.093 21.0542H36.2737C36.6464 21.0542 36.9515 21.3593 36.9515 21.732V25.2392C36.9515 25.6111 36.6464 25.9162 36.2737 25.9162H35.093C34.989 25.9162 34.8688 25.898 34.743 25.8846C34.5952 25.8679 34.4742 25.803 34.3788 25.689C33.9646 25.1954 33.3291 24.721 32.3581 24.4635C32.2056 24.4234 32.0887 24.3321 32.0129 24.1929C31.9368 24.0544 31.9235 23.9067 31.9721 23.7564C32.0359 23.5574 32.115 23.3381 32.2104 23.0998L31.0242 22.2906L29.5376 22.2906ZM37.9321 36.3622C38.6852 36.4762 39.2034 37.1792 39.0895 37.9322C38.9755 38.6854 38.2733 39.2028 37.5201 39.0896C36.767 38.9756 36.2488 38.2734 36.362 37.5202C36.476 36.7664 37.179 36.2489 37.932 36.3621L37.9321 36.3622ZM7.74787 36.1673H0.519649C0.233475 36.1673 0 36.4008 0 36.687V37.9C0 38.1847 0.233465 38.4197 0.519649 38.4197H24.2463C25.3799 38.4197 27.0702 38.2898 27.6671 36.0705C28.6551 32.3995 29.8755 31.0332 32.6782 30.0474L34.213 33.4006C34.2713 33.5294 34.4175 33.5743 34.5434 33.5179C34.6666 33.4637 34.8099 33.5171 34.8674 33.6389L35.9349 35.8845C35.9694 35.9584 36.0306 36.0081 36.1108 36.0229C36.191 36.0385 36.26 36.0066 36.3254 35.9599C36.6123 35.7531 36.9541 35.5731 37.2711 35.5308C37.3465 35.5208 37.4025 35.4695 37.4363 35.4012C37.4701 35.3329 37.473 35.2591 37.4396 35.1912L36.3603 32.956C36.299 32.8294 36.3618 32.6861 36.4876 32.629C36.6101 32.5733 36.6639 32.4271 36.6086 32.3049L35.1272 29.0649C35.1209 29.0389 34.0979 24.6101 29.6631 24.8287C29.2968 24.8469 28.9297 24.8506 28.5663 24.8751C28.5136 24.8784 28.4672 24.8625 28.4286 24.8265C28.3908 24.7905 28.3703 24.7448 28.3703 24.6921V24.5641C28.3703 24.3532 28.1981 24.1803 27.9873 24.1803H26.3133C26.1025 24.1803 25.9303 24.3532 25.9303 24.5641V25.08C25.9303 25.1672 25.8705 25.2403 25.7855 25.2593C22.7415 25.9118 20.5853 27.2454 21.5709 28.8749H12.5521C11.5622 28.8749 10.7148 29.4276 10.3162 30.3339L7.74841 36.167L7.74787 36.1673ZM10.5091 26.6998H19.3994C19.7769 26.6998 20.0857 27.0093 20.0857 27.3868C20.0857 27.7643 19.7769 28.0739 19.3994 28.0739H10.5091C10.1316 28.0739 9.82203 27.765 9.82203 27.3868C9.82203 27.0093 10.1308 26.6998 10.5091 26.6998ZM38.8129 30.5347C40.7986 30.835 42.4749 31.9114 43.5795 33.4098C44.6849 34.9083 45.2178 36.8269 44.9176 38.8126C44.6173 40.7984 43.5409 42.4746 42.0432 43.5792C40.5447 44.6839 38.6254 45.2176 36.6397 44.9173C34.6539 44.6171 32.9777 43.5407 31.873 42.0422C30.7684 40.5445 30.2347 38.6251 30.535 36.6394C30.7347 35.3195 31.2773 34.1377 32.0572 33.1682C32.1114 33.1014 32.1893 33.0691 32.2751 33.0788C32.3608 33.0888 32.4291 33.137 32.467 33.2146L33.4591 35.2461C33.4951 35.3184 33.4929 35.3964 33.4557 35.4676C33.2089 35.9353 33.0345 36.452 32.9509 37.0047C32.752 38.3239 33.1057 39.5985 33.8392 40.5929C34.5726 41.5876 35.6862 42.3028 37.0053 42.5018C38.3237 42.7015 39.5983 42.347 40.5934 41.6136C41.5878 40.8802 42.3027 39.7673 42.5016 38.4483C42.7013 37.1291 42.3469 35.8545 41.6134 34.8593C40.8807 33.865 39.7672 33.1509 38.4481 32.9511C38.3898 32.9419 38.3315 32.9344 38.2736 32.9278C38.1879 32.9177 38.1189 32.8695 38.0817 32.7919L37.1156 30.814C37.0788 30.7379 37.0818 30.6558 37.1248 30.5835C37.1679 30.5103 37.2381 30.4673 37.3223 30.4632C37.8111 30.4365 38.3103 30.4591 38.813 30.5348L38.8129 30.5347ZM16.4042 40.0396C16.0426 41.1168 15.4361 42.0829 14.65 42.8684C13.3338 44.1846 11.5154 44.9989 9.50737 44.9989C7.4993 44.9989 5.68089 44.1846 4.36475 42.8684C3.57861 42.083 2.97175 41.1168 2.61058 40.0396C2.5846 39.9624 2.59647 39.8848 2.64361 39.8188C2.69075 39.7535 2.76091 39.7167 2.84182 39.7167H4.95118C5.04694 39.7167 5.12823 39.7679 5.17055 39.8537C5.40624 40.3332 5.71914 40.7679 6.09217 41.1413C6.96628 42.0154 8.17331 42.5551 9.50731 42.5551C10.8413 42.5551 12.0491 42.015 12.9232 41.1413C13.2966 40.7679 13.6088 40.3332 13.8445 39.8537C13.8868 39.7679 13.9681 39.7167 14.0638 39.7167H16.1732C16.2548 39.7167 16.3243 39.7535 16.3714 39.8188C16.4185 39.8848 16.4304 39.9621 16.4044 40.0396H16.4042Z"
		fill="#30B21B" />
</svg>
