<svg width="72" height="72" viewBox="0 0 72 72" fill="none" xmlns="http://www.w3.org/2000/svg">
<circle cx="36" cy="36" r="35" fill="#FBFBFD" stroke="#30B21B" stroke-width="1.5"/>
<path d="M36.4851 55.3396C41.0275 55.3422 45.4332 53.7857 48.9661 50.9304C52.499 48.0751 54.9451 44.0937 55.8954 39.6517C56.8458 35.2097 56.243 30.576 54.1877 26.525C52.1323 22.474 48.749 19.2511 44.6031 17.3948C40.4571 15.5384 35.7997 15.1611 31.409 16.3259C27.0183 17.4907 23.1603 20.1271 20.4798 23.7944C17.7992 27.4618 16.4584 31.938 16.6814 36.4751C16.9044 41.0122 18.6777 45.3353 21.705 48.7221L21.7058 48.723C22.0305 49.0801 22.48 49.5208 22.785 49.8199C22.8794 49.9124 22.9599 49.9914 23.0187 50.0501C23.066 50.0975 23.1081 50.1406 23.1485 50.1819C23.3218 50.3595 23.4617 50.5027 23.834 50.7936C24.2873 51.1477 24.7259 51.4589 25.1482 51.7545L25.3842 51.9198V51.6317V50.9707C25.3842 50.6375 25.5166 50.3179 25.7522 50.0823C25.9878 49.8467 26.3073 49.7144 26.6405 49.7144C26.9737 49.7144 27.2933 49.8467 27.5289 50.0823C27.7645 50.3179 27.8968 50.6375 27.8968 50.9707V55.1896C27.8968 55.5228 27.7645 55.8424 27.5289 56.078C27.2933 56.3136 26.9737 56.446 26.6405 56.446H22.4216C22.0884 56.446 21.7688 56.3136 21.5332 56.078C21.2976 55.8424 21.1652 55.5228 21.1652 55.1896C21.1652 54.8565 21.2976 54.5369 21.5332 54.3013C21.7688 54.0657 22.0884 53.9333 22.4216 53.9333H23.3357H23.8174L23.4208 53.6598C23.0155 53.3803 22.5272 53.0174 22.1941 52.7399C21.86 52.4615 21.5391 52.1686 21.2313 51.8747L21.2309 51.8743C20.7387 51.408 20.273 50.9144 19.8361 50.3959L19.8362 50.3958L19.8333 50.3926C16.9602 47.1768 15.0788 43.1986 14.4158 38.9376C13.7528 34.6766 14.3365 30.3148 16.0967 26.3781C17.8568 22.4414 20.7182 19.0979 24.3357 16.7508C27.953 14.4039 32.1719 13.1534 36.4838 13.15C39.5806 13.1944 42.6344 13.8819 45.4515 15.1689C48.2689 16.456 50.788 18.3147 52.849 20.6271C54.91 22.9394 56.4679 25.6549 57.4238 28.6012C58.3797 31.5476 58.7127 34.6604 58.4018 37.7423C58.0909 40.8242 57.1428 43.8078 55.6177 46.5038C54.0926 49.1999 52.0237 51.5495 49.5424 53.4036C47.0611 55.2577 44.2215 56.5758 41.2038 57.2743C38.1863 57.9727 35.0567 58.0364 32.0134 57.4613C31.8482 57.4282 31.6912 57.3629 31.5512 57.2692C31.4111 57.1754 31.2909 57.0548 31.1973 56.9145C31.1038 56.7742 31.0388 56.6168 31.0061 56.4514C30.9733 56.286 30.9735 56.1157 31.0066 55.9504C31.0396 55.785 31.105 55.6278 31.1988 55.4876C31.2926 55.3475 31.4132 55.2272 31.5535 55.1337C31.6938 55.0402 31.8512 54.9752 32.0166 54.9424C32.1819 54.9097 32.352 54.9099 32.5172 54.9429C33.8225 55.2123 35.1522 55.3452 36.4851 55.3396ZM36.4851 55.3396C36.4849 55.3396 36.4848 55.3396 36.4847 55.3396L36.4848 55.1898L36.4854 55.3396C36.4853 55.3396 36.4852 55.3396 36.4851 55.3396Z" fill="#30B21B" stroke="white" stroke-width="0.3"/>
<path d="M48.053 27.7714C49.5818 30.0595 50.3978 32.7494 50.3978 35.5012C50.3978 39.1912 48.932 42.7301 46.3227 45.3393C43.7135 47.9486 40.1746 49.4144 36.4846 49.4144C33.7328 49.4144 31.0429 48.5984 28.7548 47.0696C26.4668 45.5408 24.6835 43.3679 23.6305 40.8256C22.5774 38.2833 22.3019 35.4858 22.8387 32.7869C23.3756 30.088 24.7007 27.6089 26.6465 25.6631C28.5923 23.7173 31.0714 22.3922 33.7703 21.8553C36.4692 21.3185 39.2667 21.594 41.809 22.6471C44.3513 23.7001 46.5242 25.4834 48.053 27.7714ZM27.0054 29.1674C25.7527 31.0422 25.084 33.2464 25.084 35.5012C25.084 38.5248 26.2852 41.4246 28.4232 43.5626C30.5612 45.7007 33.461 46.9018 36.4846 46.9018C38.7394 46.9018 40.9436 46.2332 42.8184 44.9804C44.6932 43.7277 46.1545 41.9472 47.0174 39.864C47.8802 37.7808 48.106 35.4886 47.6661 33.2771C47.2262 31.0656 46.1404 29.0342 44.546 27.4398C42.9516 25.8454 40.9202 24.7596 38.7088 24.3197C36.4973 23.8798 34.205 24.1056 32.1218 24.9685C30.0386 25.8313 28.2581 27.2926 27.0054 29.1674Z" fill="#30B21B" stroke="white" stroke-width="0.3"/>
<path d="M37.7409 42.1747L37.8397 42.1389C38.7368 41.8134 39.4909 41.183 39.9702 40.3578C40.4496 39.5327 40.6237 38.5654 40.4621 37.6249C40.3005 36.6844 39.8135 35.8306 39.0862 35.2128C38.3591 34.5951 37.438 34.2526 36.484 34.2451C36.4838 34.2451 36.4836 34.2451 36.4834 34.2451L36.4846 34.0951L37.7409 42.1747ZM37.7409 42.1747V42.2799M37.7409 42.1747V42.2799M37.7409 42.2799V42.533C37.7409 42.8662 37.6086 43.1858 37.3729 43.4214C37.1373 43.657 36.8178 43.7893 36.4846 43.7893C36.1514 43.7893 35.8318 43.657 35.5962 43.4214C35.3606 43.1858 35.2283 42.8662 35.2283 42.533V42.383M37.7409 42.2799L35.2283 42.383M35.2283 42.383H35.0783M35.2283 42.383H35.0783M35.0783 42.383H33.6719C33.3387 42.383 33.0192 42.2507 32.7836 42.015C32.548 41.7794 32.4156 41.4599 32.4156 41.1267C32.4156 40.7935 32.548 40.4739 32.7836 40.2383C33.0192 40.0027 33.3387 39.8704 33.6719 39.8704H36.4846C36.8974 39.8704 37.2932 39.7064 37.5851 39.4145C37.8769 39.1227 38.0409 38.7268 38.0409 38.314C38.0409 37.9013 37.8769 37.5054 37.5851 37.2136C37.2933 36.9218 36.8977 36.7579 36.4852 36.7577L35.0783 42.383Z" fill="#30B21B" stroke="white" stroke-width="0.3"/>
</svg>
