<svg width="25" height="45" viewBox="0 0 25 45" fill="none" xmlns="http://www.w3.org/2000/svg">
	<path
		d="M21.897 0.000635849H3.10304C1.39602 0.000635849 0 1.26519 0 2.81051V42.1901C0 43.7359 1.39649 45 3.10304 45H21.897C23.604 45 25 43.7354 25 42.1901V2.80945C25 1.26412 23.604 0 21.897 0V0.000635849ZM9.42272 3.64722H15.1979V4.40394H9.42272V3.64722ZM12.3103 43.0745C11.0515 43.0745 10.0306 42.1505 10.0306 41.0102C10.0306 39.8703 11.051 38.9458 12.3103 38.9458C13.5691 38.9458 14.59 39.8699 14.59 41.0102C14.59 42.15 13.5696 43.0745 12.3103 43.0745ZM22.1889 35.9186H2.35632V7.70744H22.1889V35.9186Z"
		fill="#30B21B" />
</svg>
