<svg width="72" height="72" viewBox="0 0 72 72" fill="none" xmlns="http://www.w3.org/2000/svg">
<circle cx="36" cy="36" r="35" fill="#FBFBFD" stroke="#30B21B" stroke-width="1.5"/>
<path d="M29.0877 57.9H43.7772C46.523 57.9 48.765 55.658 48.765 52.9123V18.0877C48.765 15.342 46.523 13.1 43.7772 13.1H29.0877C26.342 13.1 24.1 15.342 24.1 18.0877V52.9123C24.1 55.658 26.342 57.9 29.0877 57.9Z" stroke="#30B21B" stroke-width="1.8" stroke-miterlimit="10" stroke-linecap="round" stroke-linejoin="round"/>
<path d="M27.4634 19.2192H45.4013V50.7266H27.4634V19.2192Z" stroke="#30B21B" stroke-width="1.8" stroke-miterlimit="10" stroke-linecap="round" stroke-linejoin="round"/>
<path d="M34.5332 16.5181H38.3316" stroke="#30B21B" stroke-width="1.6" stroke-miterlimit="10" stroke-linecap="round" stroke-linejoin="round"/>
<path d="M36.4324 55.9295C37.5308 55.9295 38.4212 55.0391 38.4212 53.9407C38.4212 52.8424 37.5308 51.952 36.4324 51.952C35.3341 51.952 34.4437 52.8424 34.4437 53.9407C34.4437 55.0391 35.3341 55.9295 36.4324 55.9295Z" stroke="#30B21B" stroke-width="1.6" stroke-miterlimit="10" stroke-linecap="round" stroke-linejoin="round"/>
</svg>
