<svg width="72" height="72" viewBox="0 0 72 72" fill="none" xmlns="http://www.w3.org/2000/svg">
<circle cx="36" cy="36" r="35" fill="#FBFBFD" stroke="#30B21B" stroke-width="1.5"/>
<path d="M31.4115 42.2479L25.7112 47.6744C25.4277 47.9478 25.3176 48.3381 25.3962 48.6971L24.2623 50.0483L20.0186 52.6015L19.9634 52.5468L22.6955 48.4476L24.097 47.3702C24.1837 47.3937 24.27 47.4014 24.3567 47.4014C24.6558 47.4091 24.9315 47.3 25.1442 47.0968L30.8289 41.6703C31.0731 41.4362 31.0809 41.0456 30.8445 40.8037C30.6085 40.5616 30.2146 40.5539 29.9626 40.7883L24.3646 46.1288C24.1441 45.9884 23.8528 45.9961 23.6401 46.16L21.8451 47.5421C21.7899 47.5811 21.7428 47.6358 21.7113 47.6906L18.6486 52.2814C18.4911 52.5236 18.5148 52.8359 18.7194 53.0465L19.4672 53.8116C19.5773 53.9288 19.7348 53.9913 19.8844 53.999C20.0026 54.0067 20.1286 53.9755 20.2387 53.913L24.9941 51.0552C25.0493 51.024 25.1042 50.9773 25.1438 50.9225L26.6005 49.2049C26.7735 49.0021 26.7894 48.7129 26.6557 48.4942L32.2693 43.146C32.5135 42.9119 32.5212 42.5213 32.2849 42.2794C32.0491 42.0215 31.6552 42.0138 31.4114 42.2479L31.4115 42.2479Z" fill="#30B21B" stroke="#30B21B" stroke-width="0.6"/>
<path d="M55.401 20.6065L52.8814 17.9446C52.4834 17.5235 51.9374 17.285 51.3603 17.2693C50.7831 17.2614 50.2368 17.4757 49.8157 17.8889L39.7136 27.8769C39.5811 28.0119 39.511 28.2026 39.5264 28.3933C39.5888 29.013 39.4173 29.6409 39.0429 30.1731C38.8714 30.4195 38.8946 30.7531 39.1053 30.9756L42.2021 34.1935C42.3112 34.3128 42.4595 34.3764 42.6155 34.3842C42.7403 34.3921 42.8652 34.3603 42.9742 34.2889C43.5047 33.9471 44.1208 33.8042 44.7137 33.8835C44.901 33.9074 45.0882 33.8439 45.2285 33.7089L55.3462 23.7134C56.1965 22.8633 56.2199 21.4729 55.4009 20.6068L55.401 20.6065ZM54.4883 22.7994L44.5814 32.597H44.5737C43.9573 32.5652 43.3335 32.6923 42.764 32.9705L40.3223 30.4437C40.6266 29.8637 40.7827 29.2201 40.7669 28.5765L50.6738 18.7873C50.8533 18.6127 51.0872 18.5173 51.3368 18.5173C51.5865 18.5173 51.8204 18.6205 51.9922 18.8034L54.5118 21.4652C54.8628 21.8463 54.8548 22.4424 54.4884 22.7999L54.4883 22.7994Z" fill="#30B21B" stroke="#30B21B" stroke-width="0.6"/>
<path d="M50.6112 45.7702L34.2145 28.488C35.1194 25.3971 34.3393 22.0756 32.1317 19.7399C30.0255 17.5151 26.9833 16.5616 24.0033 17.1895C23.7849 17.237 23.6054 17.3959 23.543 17.6184C23.4728 17.8331 23.5275 18.0713 23.6832 18.2381L26.8189 21.5514C28.2464 23.0611 28.1998 25.4687 26.7176 26.9227C25.2355 28.3766 22.8641 28.3292 21.4367 26.8194L18.301 23.4982C18.1449 23.3314 17.9111 23.2679 17.7003 23.3314C17.4819 23.3871 17.3181 23.5618 17.2634 23.7843C16.5303 26.7877 17.3493 29.9105 19.4476 32.1353C21.6475 34.4633 24.8772 35.385 27.9429 34.5982L44.3478 51.9039C45.12 52.7222 46.1498 53.2072 47.2732 53.2547C47.3121 53.2547 47.3591 53.2547 47.398 53.2626C48.5604 53.2865 49.6603 52.8415 50.4949 52.023C51.3294 51.2126 51.8055 50.1079 51.821 48.9321C51.8522 47.7485 51.4153 46.6281 50.612 45.7699L50.6112 45.7702ZM49.6438 51.1175C49.0432 51.7054 48.2553 52.0233 47.4285 52.0075C46.594 51.9918 45.8216 51.65 45.2444 51.0381L28.5742 33.4539C28.4652 33.3346 28.3168 33.2711 28.1608 33.2632C28.0907 33.2632 28.0206 33.2711 27.9581 33.2871C25.2278 34.1136 22.3105 33.3428 20.3368 31.261C18.8 29.6403 18.0668 27.4631 18.2618 25.2541L20.5553 27.6774C22.4508 29.6796 25.6023 29.7432 27.576 27.8124C29.5497 25.8816 29.6121 22.6793 27.7085 20.6771L25.415 18.2538C27.5914 18.1427 29.7054 18.977 31.2345 20.5978C33.2082 22.6875 33.8555 25.6912 32.9274 28.4402C32.8495 28.6627 32.9039 28.9091 33.0676 29.0759L49.7221 46.6358C50.2993 47.2476 50.6036 48.0501 50.5879 48.9001C50.5802 49.7502 50.2446 50.5367 49.644 51.1167L49.6438 51.1175Z" fill="#30B21B" stroke="#30B21B" stroke-width="0.6"/>
<path d="M47.186 46.1284C45.9059 46.1033 44.8477 47.1462 44.823 48.4479C44.8148 49.0739 45.0446 49.6743 45.4714 50.1251C45.8815 50.5672 46.4395 50.8177 47.0304 50.8511H47.096C47.7197 50.8594 48.3187 50.6257 48.7617 50.1836C49.2047 49.7414 49.451 49.1575 49.4592 48.5398C49.492 47.2299 48.4663 46.1535 47.1861 46.1284L47.186 46.1284ZM47.8672 49.2321C47.6703 49.4324 47.4077 49.5325 47.1288 49.5325C46.8581 49.5325 46.6036 49.4159 46.4148 49.2156C46.226 49.0153 46.1194 48.7483 46.1275 48.473C46.1356 47.8973 46.6033 47.4383 47.1694 47.447H47.2022C47.7522 47.4721 48.1951 47.9476 48.1786 48.515C48.1708 48.7817 48.0557 49.0405 47.8672 49.2321L47.8672 49.2321Z" fill="#30B21B" stroke="#30B21B" stroke-width="0.6"/>
</svg>
