<svg width="45" height="45" viewBox="0 0 45 45" fill="none" xmlns="http://www.w3.org/2000/svg">
	<path
		d="M17.8537 39.9944V37.4127C15.5392 36.9902 13.367 36.0514 11.4775 34.784L9.6355 36.6147C8.92686 37.319 7.84073 37.319 7.13203 36.6147L5.19544 34.69C4.48679 33.9857 4.48679 32.9062 5.19544 32.2019L7.03739 30.3712C5.76231 28.4938 4.86473 26.3344 4.43967 24.0341H1.79478C0.802912 24.0341 0 23.2362 0 22.2504V19.5277C0 18.5419 0.802922 17.7439 1.79478 17.7439H4.43967C4.8647 15.4437 5.80939 13.3315 7.08456 11.4537L5.19554 9.57631C4.48689 8.87202 4.48689 7.79256 5.19554 7.08822L7.13213 5.16352C7.84078 4.45923 8.92691 4.45923 9.6356 5.16352L11.5246 7.04094C13.4136 5.7737 15.5392 4.88162 17.8537 4.45918V1.78375C17.8537 0.79798 18.6566 0 19.6485 0H22.388C23.3799 0 24.1828 0.79799 24.1828 1.78375V4.45918C26.4973 4.88159 28.6225 5.7737 30.5119 7.04094L32.4009 5.16352C33.1096 4.45923 34.1957 4.45923 34.9044 5.16352L36.841 7.08822C37.5496 7.79251 37.5496 8.87197 36.841 9.57631L34.952 11.4537C36.227 13.3311 37.1246 15.4437 37.5969 17.7439H40.2417C41.2336 17.7439 42.0365 18.5419 42.0365 19.5277V22.2504C42.0365 23.2362 41.2336 24.0341 40.2417 24.0341H37.5969C37.3136 25.5833 36.8411 26.9915 36.1328 28.3528L32.2124 24.4565C33.6293 20.091 32.3542 15.1153 28.5757 12.017C23.6163 7.88613 16.2478 8.49631 12.0451 13.4252C7.8887 18.3541 8.50265 25.6773 13.462 29.8542C16.5319 32.436 20.5469 33.1402 24.1832 32.1545L28.1978 36.1444C26.9227 36.7546 25.6001 37.1771 24.1832 37.459V40.0407C24.1832 41.0265 23.3803 41.8245 22.3884 41.8245H19.6489C18.6095 41.7776 17.8537 40.9796 17.8537 39.9938V39.9944ZM39.8636 44.1253L24.5138 28.8699C23.7109 28.0719 22.6248 27.6963 21.491 27.7904C19.602 27.9313 17.6654 27.2739 16.201 25.8188C14.4534 24.0819 13.8393 21.5942 14.4062 19.3408C14.4533 19.1999 14.6423 19.1062 14.7841 19.2471L17.5707 22.0166C18.3736 22.8146 19.7433 22.8146 20.5935 22.0166L21.8685 20.7494C22.6715 19.9514 22.7186 18.5901 21.8685 17.7452L18.9401 14.8348C18.8458 14.7411 18.893 14.506 19.0344 14.4592C21.396 13.708 24.088 14.2714 25.9303 16.102C27.4419 17.6042 28.103 19.6695 27.8669 21.6411C27.7251 22.8146 28.103 23.9882 28.9531 24.833L44.1144 39.9011C45.2952 41.0747 45.2952 42.9053 44.1144 44.0788C42.934 45.2991 41.0445 45.2991 39.8637 44.1256L39.8636 44.1253ZM42.9338 42.9517C43.4535 42.4352 43.4535 41.5904 42.9338 41.0743C42.4141 40.5578 41.5641 40.5578 41.0448 41.0743C40.5251 41.5908 40.5251 42.4356 41.0448 42.9517C41.5641 43.4682 42.4141 43.4682 42.9338 42.9517Z"
		fill="#30B21B" />
</svg>
