<svg width="46" height="45" viewBox="0 0 46 45" fill="none" xmlns="http://www.w3.org/2000/svg">
	<path
		d="M40.1281 18.822V17.4367C40.1281 7.83489 32.2936 0 22.6915 0C13.0893 0 5.2548 7.83449 5.2548 17.4367V18.822C2.19749 19.9686 0 22.9302 0 26.3696C0 30.8123 3.63057 34.4429 8.07325 34.4429H10.9871C11.7515 34.4429 12.3725 33.8219 12.3725 33.0575V19.682C12.3725 18.9175 11.7515 18.2966 10.9871 18.2966H9.64937V17.4368C9.64937 10.2233 15.4774 4.39513 22.6911 4.39513C29.9047 4.39513 35.7327 10.2232 35.7327 17.4368V18.2966H34.395C33.6306 18.2966 33.0096 18.9176 33.0096 19.682V33.0575C33.0096 33.8219 33.6306 34.4429 34.395 34.4429H35.016C33.6306 37.6435 30.5733 39.8887 26.9427 40.1752C26.7516 39.2678 25.9395 38.551 24.9363 38.551H20.3983C19.2517 38.551 18.3442 39.4584 18.3442 40.605V42.946C18.3442 44.0926 19.2517 45 20.3983 45H24.9363C25.9395 45 26.7993 44.2833 26.9427 43.28C32.3409 42.9936 36.8312 39.3149 38.3604 34.347C42.2774 33.8213 45.3351 30.4299 45.3351 26.369C45.3828 22.8823 43.1853 19.9684 40.128 18.8218L40.1281 18.822Z"
		fill="#30B21B" />
	<path
		d="M20.0163 18.3439C20.0163 17.5795 20.3508 16.8151 20.9718 16.2898C21.5928 15.7642 22.3572 15.5731 23.1693 15.7165C24.2202 15.9076 25.128 16.7674 25.2711 17.8183C25.5575 19.3471 24.5543 20.4934 23.4558 20.8279C21.927 21.3054 20.9237 22.7385 20.9237 24.4108V25.8916C20.9237 26.8472 21.6881 27.6116 22.6437 27.6116C23.5992 27.6116 24.3636 26.8472 24.3636 25.8916V24.4108C24.3636 24.2674 24.459 24.1244 24.5071 24.1244C27.4209 23.1689 29.1885 20.2551 28.6633 17.1977C28.2334 14.7138 26.227 12.7073 23.7431 12.2775C21.9278 11.943 20.1125 12.421 18.727 13.6153C17.3417 14.7619 16.5295 16.4814 16.5295 18.2967C16.5295 19.2523 17.294 20.0167 18.2495 20.0167C19.2519 20.0636 20.0164 19.2996 20.0164 18.344L20.0163 18.3439Z"
		fill="#30B21B" />
	<path
		d="M24.5545 30.9549C24.5545 31.984 23.7204 32.8178 22.6911 32.8178C21.6623 32.8178 20.8281 31.9841 20.8281 30.9549C20.8281 29.9261 21.6623 29.0919 22.6911 29.0919C23.7203 29.0919 24.5545 29.926 24.5545 30.9549Z"
		fill="#30B21B" />
</svg>
