<svg width="72" height="72" viewBox="0 0 72 72" fill="none" xmlns="http://www.w3.org/2000/svg">
<circle cx="36" cy="36" r="35" fill="#FBFBFD" stroke="#30B21B" stroke-width="1.5"/>
<path d="M45.0665 37.0601C45.3332 36.5403 45.733 36.0201 45.8664 35.5003L46.6667 35.4999C48.9334 35.4999 50.6666 33.8101 50.6666 31.6V29.0001C50.6666 26.7901 48.9334 25.1002 46.6667 25.1002C46.6667 20.0302 42.5333 16 37.3331 16H34.6666C29.4665 16 25.333 20.03 25.333 25.1002C23.0663 25.1002 21.3331 26.7901 21.3331 29.0001V31.6C21.3331 33.8101 23.0663 35.4999 25.333 35.4999H26.1329C26.3997 36.0198 26.6661 36.5399 26.9329 37.0598C22.9332 38.1001 20 41.74 20 45.9V53.6999C20 54.4798 20.5332 55 21.3335 55H50.6665C51.4665 55 52 54.4802 52 53.6999V45.9C51.9996 41.74 49.0664 38.1001 45.0664 37.0598L45.0665 37.0601ZM28.0003 31.6V30.2999C28.0003 26.0098 31.6001 22.5 36.0002 22.5C40.4003 22.5 44.0001 26.0098 44.0001 30.2999V31.6C44.0001 31.9901 44.0001 32.5099 43.8668 32.9001H36.0003C35.2004 32.9001 34.6668 33.4199 34.6668 34.2002C34.6668 34.9801 35.2 35.5003 36.0003 35.5003H42.9335C40.6668 39.2703 35.8668 40.4403 31.9999 38.3603C29.4668 36.9302 28 34.3303 28 31.6001L28.0003 31.6ZM47.9999 29.0001V31.6C47.9999 32.3799 47.4667 32.9001 46.6664 32.9001V27.7001C47.4667 27.7001 47.9999 28.2203 47.9999 29.0002V29.0001ZM34.6671 18.6008H37.3337C40.1336 18.6008 42.667 20.4207 43.6004 23.0205C39.4671 18.8605 32.6668 18.8605 28.5343 22.8905L28.4009 23.0205C29.3342 20.4206 31.8677 18.6008 34.6676 18.6008H34.6671ZM24.0011 31.6002V29.0003C24.0011 28.2204 24.5343 27.7002 25.3346 27.7002V32.9002C24.5343 32.9002 24.0011 32.3804 24.0011 31.6001V31.6002ZM49.3341 52.3998H22.6678V45.9C22.6678 42.3901 25.4676 39.5302 29.0678 39.4002C33.0677 42.78 39.068 42.78 43.0672 39.4002C46.667 39.5302 49.4673 42.3901 49.4673 45.9L49.4669 52.3998H49.3341Z" fill="#30B21B" stroke="white" stroke-width="0.7"/>
</svg>
