<svg width="65" height="45" viewBox="0 0 65 45" fill="none" xmlns="http://www.w3.org/2000/svg">
	<path
		d="M6.56586 4.57569C6.56586 2.0529 8.61933 0 11.1428 0C13.6592 0 15.7067 2.0529 15.7067 4.57569C15.7067 7.09132 13.6592 9.13827 11.1428 9.13827C8.61994 9.13827 6.56586 7.09132 6.56586 4.57569ZM64.1013 33.0708L54.4398 30.463C52.9732 30.0741 51.4815 29.9365 50.0065 30.0479C47.8303 30.2081 45.656 30.4308 43.8157 30.6279L43.4357 30.6684L43.4935 31.046C43.531 31.295 43.5644 31.5618 43.5447 31.8304C43.5119 32.3616 43.3231 32.9578 43.0842 33.2799C42.8042 33.6587 42.0185 34.5592 40.7751 34.7146C39.8196 34.8367 38.8354 34.483 37.8429 33.673C37.2609 33.1966 35.7162 31.8328 35.7001 31.8191L35.5708 31.7059L35.4016 31.7327C33.7366 31.9942 32.0691 32.2812 30.4458 32.5862L30.1122 32.6481L30.6085 37.0677C30.7931 38.7079 29.7316 40.2218 28.1415 40.5868C27.8699 40.6487 27.6274 40.6779 27.3796 40.6779C25.8289 40.6779 24.488 39.5803 24.1895 38.0688L23.3895 34.0423L22.9981 34.1692C10.4761 38.2463 6.29728 39.7781 0.808633 42.049C0.241498 42.2837 -0.0778004 42.8506 0.0163255 43.4587C0.109257 44.0668 0.58346 44.5104 1.19407 44.5641C4.64693 44.8654 8.10681 45 11.5406 45C34.9348 45 56.9169 38.696 64.3057 35.3109C64.771 35.0989 65.0408 34.632 64.995 34.1233C64.9485 33.61 64.5958 33.1961 64.1008 33.071L64.1013 33.0708ZM34.5139 22.9512C33.2795 23.2406 31.9654 23.5253 30.4951 23.8225L29.8249 23.9588L38.9215 32.9588C39.2765 33.3221 39.7525 33.505 40.2333 33.505C40.6646 33.505 41.0363 33.3567 41.389 33.0571C41.7809 32.7194 41.9764 32.2555 41.9764 31.7522V31.751C41.9764 31.2383 41.8918 30.7517 41.5504 30.383L34.6943 22.903L34.5139 22.9512ZM11.0114 23.7176L10.9065 24.3019C10.3358 27.5089 9.74427 30.7071 9.15028 33.8076C8.98109 34.6884 8.95548 35.6502 10.0439 36.1088C10.6128 36.3489 11.2097 36.3494 11.7245 36.1124C12.1689 35.9082 12.5043 35.5353 12.6466 35.091C12.786 34.6533 12.9159 34.1316 13.0541 33.5777C13.1643 33.1347 13.2841 32.6564 13.4241 32.1562C16.2495 22.0787 18.4805 15.1307 20.1873 13.9705C20.7855 13.5566 21.8393 13.3475 23.3203 13.3475C26.5116 13.3475 28.8998 13.5131 32.3728 14.3856C32.7922 14.4886 33.0906 14.8662 33.0984 15.2974C33.0984 15.7429 32.81 16.124 32.3436 16.2586L25.6375 18.9929C23.6305 19.5336 22.3789 21.5561 22.787 23.5965L25.6256 37.7855C25.7954 38.633 26.5519 39.2267 27.3944 39.2267C27.5028 39.2267 27.613 39.2166 27.7232 39.197C28.6382 39.0195 29.281 38.1553 29.1851 37.2256L27.5534 22.9222L28.2314 22.7859C28.9587 22.6471 31.5674 22.1409 34.5597 21.4465L34.6324 21.4202C34.7551 21.3625 34.8611 21.3375 34.9576 21.3446L35.0113 21.3482L35.0643 21.3351C39.0544 20.3888 41.7983 19.5865 43.4533 18.8826C45.5311 17.9964 46.7493 16.2979 46.7977 14.2224C46.8555 11.8009 45.3036 9.53833 42.7479 8.31757C38.3087 6.18783 26.5656 4.51379 21.9615 4.98841C16.1848 5.57741 13.8222 10.2519 12.8565 14.0671C12.4771 15.5303 11.7312 19.6922 11.0109 23.7175L11.0114 23.7176Z"
		fill="#30B21B" />
</svg>
