<svg width="72" height="72" viewBox="0 0 72 72" fill="none" xmlns="http://www.w3.org/2000/svg">
<circle cx="36" cy="36" r="35" fill="#FBFBFD" stroke="#30B21B" stroke-width="1.5"/>
<path d="M30.375 29.375C20.625 39 19 53 19 53C19 53 33 51.375 42.625 41.625C52.25 31.875 54 18 54 18C54 18 40 19.625 30.375 29.375Z" stroke="#30B21B" stroke-width="1.8" stroke-miterlimit="10" stroke-linecap="round" stroke-linejoin="round"/>
<path d="M30.25 29.375V33.125C30.25 35.375 31.375 37.5 33.375 38.625C35.375 39.75 36.5 41.875 36.5 44.125V46.5" stroke="#30B21B" stroke-width="1.8" stroke-miterlimit="10" stroke-linecap="round" stroke-linejoin="round"/>
<path d="M36.5 24.375V29.25C36.5 31.5 37.625 33.625 39.625 34.75C41.625 35.875 42.75 38 42.75 40.25V41.5" stroke="#30B21B" stroke-width="1.8" stroke-miterlimit="10" stroke-linecap="round" stroke-linejoin="round"/>
</svg>
