<svg width="75" height="25" viewBox="0 0 75 25" fill="none" xmlns="http://www.w3.org/2000/svg">
	<g clip-path="url(#clip0_886_434)">
		<mask id="mask0_886_434" style="mask-type:alpha" maskUnits="userSpaceOnUse" x="0" y="0" width="75" height="25">
			<path d="M74.8052 0H0V24.2424H74.8052V0Z" fill="white" />
		</mask>
		<g mask="url(#mask0_886_434)">
			<path d="M22.0352 5.85667H20.1143V4.37598H22.0352V5.85667ZM22.0352 15.3103H20.1143V7.67903H22.0352V15.3103Z"
				fill="#D5D5D5" />
			<path
				d="M24.8751 7.67919L24.9587 8.74419C25.1466 8.39063 25.4135 8.08608 25.7384 7.85457C26.0416 7.64502 26.4013 7.53447 26.7689 7.53796C27.0621 7.52753 27.3532 7.59154 27.6154 7.72412C27.8776 7.85662 28.1026 8.05351 28.2696 8.29654C28.6327 8.79616 28.8142 9.58775 28.8142 10.6713V15.3105H26.8932V10.6953C26.8932 10.125 26.8266 9.72139 26.6932 9.48449C26.636 9.37358 26.5488 9.28139 26.4415 9.21866C26.3342 9.15593 26.2115 9.12525 26.0876 9.13025C25.8864 9.12752 25.6885 9.18116 25.5158 9.28518C25.3404 9.39404 25.1929 9.54313 25.0853 9.72025V15.3014H23.0513V7.67919H24.8751Z"
				fill="#D5D5D5" />
			<path
				d="M32.0913 5.85681V7.79313H33.1083V9.15987H32.0913V13.0211C32.0913 13.3446 32.1369 13.5724 32.228 13.7045C32.2673 13.7684 32.3225 13.8209 32.3881 13.8567C32.4537 13.8924 32.5275 13.9103 32.602 13.9084C32.6778 13.9099 32.7535 13.9039 32.828 13.8902C32.9018 13.8745 32.9746 13.8547 33.0461 13.8309L33.1964 15.29C33.0267 15.3525 32.852 15.4009 32.6744 15.4346C32.4877 15.4665 32.2987 15.4818 32.1094 15.4802C31.4826 15.4802 31.0023 15.2835 30.6686 14.8902C30.3349 14.4968 30.1689 13.8776 30.1703 13.0325V9.15987H29.1533V7.79313H30.1703V5.85681H32.0913Z"
				fill="#D5D5D5" />
			<path
				d="M36.6936 15.4983C35.7 15.4983 34.9297 15.152 34.3828 14.4595C33.8358 13.767 33.562 12.8759 33.5613 11.7863V11.4993C33.5613 10.3527 33.8249 9.41903 34.3523 8.69843C34.8796 7.97782 35.6208 7.6179 36.5761 7.61865C37.462 7.61865 38.1419 7.92509 38.6157 8.53782C39.0895 9.15062 39.3257 9.98327 39.3242 11.0357V12.1212H35.5241C35.5568 12.6815 35.6834 13.1292 35.9037 13.4606C36.1241 13.7921 36.4631 13.9595 36.9207 13.9595C37.2517 13.9681 37.582 13.9219 37.8982 13.8228C38.1961 13.7127 38.4801 13.5679 38.7445 13.3912L39.2542 14.6269C38.9348 14.9044 38.5648 15.1164 38.1648 15.2511C37.6927 15.4204 37.1946 15.504 36.6936 15.4983ZM36.5749 9.10737C36.4237 9.10199 36.2742 9.14047 36.144 9.2182C36.0138 9.29585 35.9085 9.40964 35.8404 9.54585C35.677 9.83896 35.5761 10.2418 35.5376 10.7543H37.4032V10.579C37.4032 10.1154 37.3388 9.75547 37.2123 9.49805C37.1576 9.37562 37.0675 9.27274 36.9538 9.20305C36.84 9.13327 36.7079 9.09994 36.5749 9.10737Z"
				fill="#D5D5D5" />
			<path
				d="M43.4473 9.39574L42.7908 9.37415C42.5969 9.36764 42.4068 9.43014 42.2541 9.55067C42.1013 9.68165 41.9868 9.85218 41.9229 10.0438V15.3106H40.002V7.6793H41.7998L41.8755 8.75794C41.9871 8.4209 42.1729 8.11362 42.419 7.8593C42.548 7.72938 42.7073 7.63423 42.8822 7.58249C43.057 7.53077 43.242 7.52411 43.4202 7.56313C43.4925 7.57908 43.5682 7.59961 43.6462 7.62233L43.4473 9.39574Z"
				fill="#D5D5D5" />
			<path
				d="M47.0231 12.1212H46.6683V15.3103H44.7473V4.37598H46.6683V10.6405H46.9847L48.3406 7.79297H50.6232L48.5972 11.1826L50.9284 15.3103H48.6751L47.0231 12.1212Z"
				fill="#2CA656" />
			<path
				d="M54.8712 15.3105C54.7941 15.1345 54.7324 14.9519 54.6871 14.7649C54.637 14.5674 54.5993 14.367 54.574 14.1647C54.4246 14.5182 54.2015 14.8352 53.9198 15.0941C53.6456 15.3374 53.2905 15.4671 52.9254 15.4574C52.2422 15.4574 51.7167 15.2558 51.3491 14.8527C50.9815 14.4495 50.7976 13.8967 50.7976 13.1942C50.7976 12.4585 51.039 11.8867 51.5219 11.4789C52.0049 11.0711 52.7284 10.8677 53.6927 10.8684H54.5786V10.1964C54.5786 9.79629 54.5104 9.4891 54.374 9.27501C54.3111 9.17137 54.2216 9.08682 54.1151 9.03008C54.0085 8.97334 53.8887 8.9466 53.7684 8.95266C53.6644 8.94675 53.5606 8.96735 53.4666 9.01258C53.3726 9.05773 53.2914 9.12607 53.2305 9.21122C53.0944 9.43319 53.03 9.69228 53.0463 9.95266L51.1931 9.9447L51.1796 9.90031C51.1609 9.57092 51.2153 9.24145 51.3391 8.93599C51.4628 8.63061 51.6528 8.35682 51.8949 8.13486C52.3988 7.65114 53.064 7.4093 53.8904 7.4093C54.6663 7.4093 55.2953 7.65114 55.7775 8.13486C56.2597 8.61857 56.5003 9.31069 56.4996 10.2112V13.3503C56.4981 13.6871 56.5234 14.0234 56.5753 14.3561C56.6278 14.6787 56.7068 14.9964 56.8115 15.306L54.8712 15.3105ZM54.1571 13.6908C54.2989 13.5557 54.405 13.387 54.4656 13.1999V12.0074H53.6091C53.2802 12.0074 53.044 12.1145 52.8893 12.3298C52.7308 12.5705 52.6517 12.8555 52.6632 13.1442C52.653 13.3721 52.7194 13.5969 52.8519 13.782C53.0312 14.0174 53.2979 14.0834 53.652 13.9802C53.8416 13.925 54.0149 13.8241 54.1571 13.6863V13.6908Z"
				fill="#2CA656" />
			<path
				d="M60.68 13.3104C60.6811 13.2003 60.6584 13.0913 60.6135 12.991C60.5687 12.8907 60.5026 12.8015 60.4201 12.7295C60.2476 12.5692 59.9128 12.3733 59.4156 12.1417C58.6427 11.8494 58.0615 11.521 57.672 11.1565C57.4804 10.9789 57.3291 10.7616 57.2284 10.5197C57.1278 10.2777 57.0802 10.0166 57.0889 9.75438C57.0871 9.44983 57.1528 9.14862 57.281 8.87278C57.4093 8.59695 57.5968 8.35339 57.8302 8.15983C58.3251 7.72013 58.9801 7.50071 59.7953 7.50147C60.6472 7.50147 61.3278 7.7293 61.8371 8.18483C62.0821 8.39619 62.2753 8.66188 62.4014 8.96104C62.5274 9.26028 62.583 9.58483 62.5637 9.9093L62.5501 9.95256H60.6325C60.646 9.67794 60.5719 9.40612 60.4212 9.17695C60.3474 9.07794 60.2503 8.99907 60.1387 8.94756C60.0269 8.89604 59.9042 8.87347 59.7817 8.88195C59.6749 8.8796 59.5687 8.89847 59.4693 8.93756C59.3698 8.97665 59.279 9.03521 59.202 9.10975C59.1263 9.18013 59.0663 9.26582 59.0258 9.36119C58.9853 9.45657 58.9653 9.55953 58.9669 9.66332C58.9623 9.76589 58.9802 9.86832 59.0192 9.96316C59.0583 10.0581 59.1176 10.1431 59.193 10.2123C59.3474 10.3513 59.6864 10.5437 60.2099 10.7898C61.0115 11.0676 61.6078 11.3945 61.9987 11.7704C62.193 11.9592 62.3456 12.1871 62.4466 12.4392C62.5477 12.6914 62.5949 12.9623 62.5852 13.2341C62.5908 13.5434 62.5234 13.8497 62.3887 14.1277C62.2539 14.4057 62.0556 14.6475 61.81 14.8332C61.2924 15.2485 60.6096 15.4566 59.7613 15.4573C58.8754 15.4573 58.1748 15.2023 57.6596 14.692C57.1443 14.1817 56.8983 13.6031 56.9217 12.9561L56.9431 12.914H58.7421C58.7511 13.3301 58.8494 13.6289 59.037 13.8104C59.2487 14.0007 59.5267 14.0986 59.8099 14.0826C60.0432 14.0989 60.2737 14.0243 60.454 13.8741C60.5293 13.8017 60.5883 13.714 60.6273 13.6168C60.6662 13.5196 60.6842 13.4151 60.68 13.3104Z"
				fill="#2CA656" />
			<path
				d="M66.606 13.3104C66.6068 13.2002 66.5838 13.0913 66.5388 12.991C66.4938 12.8907 66.4276 12.8014 66.3449 12.7295C66.1724 12.5692 65.8376 12.3733 65.3404 12.1417C64.5674 11.8494 63.9863 11.521 63.5968 11.1565C63.4051 10.9789 63.2538 10.7616 63.1532 10.5197C63.0526 10.2777 63.005 10.0166 63.0137 9.75438C63.012 9.44983 63.0776 9.14862 63.2058 8.87278C63.3341 8.59695 63.5217 8.35339 63.755 8.15983C64.2499 7.72013 64.9049 7.50071 65.72 7.50147C66.5728 7.50147 67.2534 7.7293 67.7619 8.18483C68.0069 8.39627 68.2001 8.66195 68.3263 8.96112C68.4526 9.26028 68.5085 9.58475 68.4896 9.9093L68.4772 9.95718H66.563C66.5762 9.68271 66.5026 9.41104 66.3528 9.1815C66.2789 9.08263 66.1817 9.00385 66.0701 8.95241C65.9584 8.90089 65.8357 8.87824 65.7132 8.8865C65.6063 8.884 65.5 8.90286 65.4003 8.94195C65.3006 8.98104 65.2095 9.0396 65.1324 9.1143C65.057 9.18483 64.997 9.27051 64.9566 9.36589C64.916 9.46127 64.8959 9.56415 64.8974 9.66786C64.8931 9.77044 64.911 9.87271 64.9501 9.96756C64.9891 10.0624 65.0482 10.1475 65.1234 10.2168C65.2778 10.3558 65.6168 10.5483 66.1404 10.7943C66.9449 11.0715 67.5416 11.3964 67.9303 11.7693C68.1248 11.9579 68.2776 12.1858 68.3788 12.438C68.4801 12.6901 68.5274 12.961 68.5179 13.2329C68.5233 13.5426 68.4557 13.8492 68.3205 14.1275C68.1853 14.4057 67.9865 14.6476 67.7404 14.8332C67.2229 15.2485 66.54 15.4566 65.6918 15.4573C64.8058 15.4573 64.1053 15.2023 63.59 14.692C63.0747 14.1817 62.8288 13.6031 62.8521 12.9561L62.8735 12.914H64.6725C64.6816 13.3301 64.7798 13.6289 64.9675 13.8104C65.1795 14.0009 65.4579 14.0988 65.7415 14.0826C65.9744 14.0988 66.2045 14.0241 66.3845 13.8741C66.4588 13.8013 66.5171 13.7135 66.5553 13.6163C66.5935 13.5191 66.6107 13.4148 66.606 13.3104Z"
				fill="#2CA656" />
			<path
				d="M72.8385 15.3105C72.7613 15.1345 72.6997 14.9519 72.6544 14.7649C72.6043 14.5674 72.5666 14.367 72.5413 14.1647C72.3919 14.5182 72.1688 14.8352 71.8871 15.0941C71.6129 15.3374 71.2578 15.4671 70.8927 15.4574C70.2094 15.4574 69.684 15.2558 69.3163 14.8527C68.9488 14.4495 68.7649 13.8967 68.7649 13.1942C68.7649 12.4585 69.0063 11.8867 69.4892 11.4789C69.9721 11.0711 70.6957 10.8677 71.66 10.8684H72.5459V10.1964C72.5459 9.79629 72.4777 9.4891 72.3413 9.27501C72.2784 9.17137 72.1889 9.08682 72.0823 9.03008C71.9758 8.97334 71.856 8.9466 71.7357 8.95266C71.6317 8.94675 71.5279 8.96735 71.4339 9.01258C71.3399 9.05773 71.2587 9.12607 71.1978 9.21122C71.0617 9.43319 70.9973 9.69228 71.0136 9.95266L69.1604 9.9447L69.1469 9.90031C69.1281 9.57092 69.1826 9.24145 69.3064 8.93599C69.4301 8.63061 69.62 8.35682 69.8622 8.13486C70.3661 7.65114 71.0313 7.4093 71.8577 7.4093C72.6336 7.4093 73.2626 7.65114 73.7447 8.13486C74.2269 8.61857 74.4676 9.31069 74.4669 10.2112V13.3503C74.4653 13.6871 74.4907 14.0234 74.5425 14.3561C74.5951 14.6787 74.6741 14.9964 74.7787 15.306L72.8385 15.3105ZM72.2374 13.6908C72.3792 13.5557 72.4853 13.387 72.5459 13.1999V12.0074H71.6894C71.3605 12.0074 71.1244 12.1145 70.9695 12.3298C70.811 12.5705 70.7319 12.8555 70.7435 13.1442C70.7332 13.3721 70.7997 13.5969 70.9322 13.782C71.1119 14.0177 71.3842 14.0838 71.7334 13.9802C71.9225 13.9247 72.0954 13.8239 72.2374 13.6863V13.6908Z"
				fill="#2CA656" />
			<path
				d="M22.0347 19.0691C22.0363 19.2412 22.0138 19.4125 21.968 19.5782C21.9299 19.7236 21.8643 19.8601 21.7748 19.9804C21.692 20.0891 21.5857 20.1775 21.4641 20.2388C21.3329 20.3022 21.189 20.3338 21.0437 20.3311C20.8783 20.335 20.7141 20.3027 20.5623 20.2366C20.4303 20.1775 20.3142 20.0877 20.2233 19.9746V21.2275H19.9973V17.8163H20.2041L20.2267 18.1579C20.3132 18.036 20.4275 17.9368 20.56 17.8686C20.7097 17.795 20.8749 17.7591 21.0414 17.7638C21.1878 17.7613 21.333 17.7916 21.4663 17.8527C21.5888 17.9111 21.696 17.9977 21.7793 18.1055C21.8685 18.2238 21.9341 18.3585 21.9725 18.5019C22.0188 18.671 22.0412 18.8459 22.0392 19.0213L22.0347 19.0691ZM21.6956 19.0156C21.6967 18.8772 21.6816 18.7392 21.6505 18.6044C21.6243 18.486 21.5781 18.3732 21.5138 18.2707C21.4541 18.1795 21.374 18.1038 21.2798 18.0497C21.1779 17.9942 21.0635 17.9663 20.9476 17.9688C20.8568 17.9675 20.7664 17.981 20.6798 18.0087C20.6068 18.0332 20.5381 18.0694 20.4764 18.1158C20.4194 18.1598 20.3695 18.2125 20.3284 18.2718C20.2876 18.3292 20.2535 18.3911 20.2267 18.4563V19.6716C20.2566 19.7359 20.2946 19.796 20.3397 19.8505C20.3842 19.9054 20.4368 19.953 20.4956 19.9917C20.558 20.0336 20.6267 20.0652 20.6991 20.0851C20.7821 20.1089 20.8681 20.1204 20.9544 20.1193C21.0696 20.1226 21.1835 20.0947 21.2844 20.0384C21.3779 19.9838 21.4573 19.9078 21.516 19.8163C21.5801 19.7137 21.6263 19.6009 21.6528 19.4825C21.683 19.3469 21.6975 19.2082 21.6956 19.0691V19.0156Z"
				fill="#868B95" />
			<path
				d="M24.0341 20.3221C24.0194 20.2389 24.007 20.1865 23.9991 20.125C23.99 20.0627 23.9844 19.9999 23.9822 19.9371C23.9405 19.99 23.894 20.0388 23.8431 20.0828C23.785 20.1309 23.7217 20.1721 23.6544 20.2059C23.4995 20.2827 23.3288 20.3217 23.1561 20.3198C23.0458 20.3214 22.9361 20.3037 22.8318 20.2674C22.7399 20.2353 22.655 20.1853 22.5821 20.1204C22.515 20.0577 22.4609 19.9822 22.4228 19.8984C22.3822 19.8023 22.3631 19.6985 22.3666 19.5943C22.3701 19.4899 22.3963 19.3877 22.4431 19.2946C22.4978 19.1952 22.5753 19.1106 22.6691 19.0475C22.7761 18.9751 22.8951 18.9227 23.0205 18.8926C23.1744 18.8639 23.3299 18.8445 23.4861 18.8345H23.9562V18.5577C23.9697 18.4824 23.9642 18.4047 23.9401 18.3321C23.916 18.2594 23.8741 18.194 23.8183 18.142C23.6859 18.0325 23.5169 17.9783 23.3459 17.9905C23.2569 17.9896 23.1681 18.0023 23.0827 18.0281C23.0079 18.0516 22.9379 18.0882 22.8759 18.1363C22.8198 18.1785 22.7735 18.2325 22.7403 18.2946C22.7073 18.3553 22.6906 18.4237 22.6917 18.4928H22.4194C22.4187 18.3963 22.442 18.3012 22.4872 18.216C22.5356 18.1281 22.6009 18.0506 22.6793 17.9882C22.7678 17.9171 22.868 17.8619 22.9753 17.8253C23.099 17.7831 23.2289 17.7622 23.3595 17.7639C23.4807 17.7628 23.6014 17.7796 23.7178 17.814C23.821 17.8442 23.9172 17.8953 24.0002 17.9643C24.0793 18.0332 24.1419 18.1193 24.1833 18.216C24.2066 18.3318 24.2066 18.4511 24.1833 18.5668V19.7628C24.2157 19.8015 24.24 19.8465 24.2545 19.8949C24.2545 19.9416 24.2624 19.9849 24.2691 20.0282C24.2759 20.0715 24.2838 20.1113 24.2929 20.15C24.3019 20.1888 24.3132 20.223 24.2929 20.2514V20.3198L24.0341 20.3221ZM23.1652 20.0943C23.2572 20.0951 23.349 20.0824 23.4375 20.0567C23.5174 20.0332 23.5934 19.9983 23.6635 19.953C23.7297 19.9107 23.7895 19.859 23.8409 19.7993C23.8896 19.7418 23.9299 19.6778 23.9606 19.609V19.0691H23.4963C23.3713 19.0677 23.2466 19.0803 23.1245 19.1068C23.0265 19.1268 22.9325 19.1634 22.8465 19.2149C22.7757 19.2571 22.7163 19.3162 22.6736 19.3869C22.6333 19.4559 22.6126 19.5347 22.6138 19.6147C22.6131 19.679 22.6259 19.7427 22.6515 19.8015C22.677 19.8604 22.7146 19.9132 22.7618 19.9564C22.8122 20.0015 22.8709 20.0363 22.9347 20.059C23.0088 20.0843 23.0869 20.0962 23.1652 20.0943Z"
				fill="#868B95" />
			<path
				d="M25.5577 19.8882L26.273 17.8164H26.5645L25.5272 20.6798C25.5068 20.7368 25.4797 20.7938 25.447 20.87C25.4142 20.941 25.3716 21.007 25.3204 21.066C25.2658 21.1291 25.1998 21.1813 25.1261 21.2197C25.0377 21.2641 24.9399 21.2856 24.8413 21.2824H24.7893L24.7305 21.2744C24.7119 21.2722 24.6934 21.2688 24.6751 21.2641L24.6333 21.2539V21.0261C24.6514 21.0261 24.6763 21.0318 24.7068 21.0352C24.729 21.0363 24.7513 21.0363 24.7735 21.0352C24.839 21.0364 24.9043 21.0268 24.9667 21.0067C25.0204 20.9888 25.07 20.96 25.1125 20.9225C25.1572 20.882 25.1953 20.8347 25.2255 20.7823C25.2594 20.7199 25.2881 20.6547 25.3114 20.5875L25.4244 20.2618L24.5 17.8164H24.7961L25.5577 19.8882Z"
				fill="#868B95" />
			<path
				d="M27.2637 17.8163L27.2727 18.2241C27.3123 18.1567 27.3593 18.0941 27.4128 18.0372C27.4645 17.9808 27.5244 17.9325 27.5902 17.8937C27.657 17.8531 27.7294 17.8224 27.8049 17.8026C27.8862 17.7802 27.9703 17.7691 28.0547 17.7696C28.2128 17.7649 28.3692 17.8044 28.5066 17.8835C28.6393 17.9686 28.7356 18.1006 28.7767 18.2537C28.8159 18.184 28.8629 18.119 28.9168 18.06C28.9712 18.0004 29.0336 17.9486 29.1022 17.9062C29.1724 17.862 29.2484 17.8279 29.3281 17.8049C29.4159 17.7793 29.5069 17.7666 29.5982 17.7673C29.7134 17.7649 29.8281 17.7826 29.9372 17.8197C30.0326 17.8521 30.1181 17.9086 30.1858 17.9837C30.2577 18.0666 30.3109 18.1641 30.3417 18.2697C30.3795 18.4052 30.3975 18.5456 30.3948 18.6865V20.3221H30.1688V18.7059C30.1718 18.5956 30.1569 18.4856 30.1248 18.3801C30.0994 18.3026 30.056 18.2323 29.9982 18.1751C29.9431 18.1234 29.8758 18.087 29.8027 18.0691C29.7214 18.0489 29.6379 18.039 29.5541 18.0396C29.4474 18.0386 29.3415 18.0599 29.2434 18.1022C29.1595 18.1388 29.0829 18.1906 29.0174 18.2548C28.9574 18.3145 28.9087 18.3847 28.8739 18.4621C28.841 18.5316 28.8203 18.6064 28.8128 18.6831V20.3221H28.5869V18.6853C28.5896 18.5807 28.5747 18.4763 28.5428 18.3767C28.5169 18.3012 28.4731 18.2331 28.4151 18.1785C28.3592 18.1278 28.2922 18.0911 28.2196 18.0714C28.1375 18.0491 28.0527 18.0384 27.9676 18.0396C27.8716 18.0375 27.7761 18.0542 27.6862 18.0885C27.6083 18.1191 27.5363 18.1635 27.4738 18.2195C27.4144 18.2736 27.364 18.3371 27.3247 18.4075C27.286 18.4761 27.2546 18.5486 27.2309 18.6238V20.3221H27.0049V17.8163H27.2637Z"
				fill="#868B95" />
			<path
				d="M31.9635 20.3221C31.8116 20.324 31.661 20.2933 31.5216 20.2321C31.3897 20.1739 31.2711 20.0885 31.1736 19.9815C31.0742 19.8701 30.9975 19.74 30.9476 19.5989C30.9025 19.4395 30.8697 19.2769 30.8493 19.1125V19.0191C30.8466 18.8429 30.8757 18.6677 30.9352 18.502C30.9867 18.3565 31.0653 18.2224 31.1669 18.1067C31.2612 17.9999 31.3766 17.9142 31.5058 17.855C31.6316 17.7955 31.7691 17.7651 31.9081 17.7662C32.0519 17.7631 32.1946 17.7919 32.3262 17.8505C32.445 17.9042 32.55 17.9845 32.6335 18.0851C32.7193 18.1908 32.7831 18.3128 32.8211 18.4439C32.8656 18.5915 32.8873 18.7452 32.8856 18.8995V19.0692H31.0741V19.1171C31.1209 19.2424 31.1613 19.3702 31.195 19.4998C31.2325 19.6136 31.2912 19.7191 31.368 19.8107C31.4404 19.8986 31.5306 19.97 31.6324 20.0202C31.7381 20.0717 31.8541 20.0978 31.9714 20.0966C32.1034 20.0995 32.2344 20.0722 32.3544 20.0168C32.4743 19.9539 32.5777 19.8634 32.6562 19.7526L32.8257 19.8836C32.7837 19.9439 32.7364 20.0004 32.6844 20.0521C32.6284 20.1067 32.5653 20.1535 32.4968 20.1911C32.4214 20.2328 32.3409 20.2642 32.2572 20.2845C32.1613 20.309 32.0625 20.3217 31.9635 20.3221ZM31.9567 18.0031C31.8584 18.0026 31.761 18.0228 31.6708 18.0624C31.585 18.1033 31.5083 18.161 31.4448 18.2321C31.3747 18.3092 31.3188 18.3983 31.2798 18.4952C31.2351 18.6045 31.2054 18.7194 31.1917 18.8368H32.6607V18.8072C32.6579 18.7052 32.6412 18.6039 32.611 18.5065C32.5825 18.4138 32.5378 18.327 32.4788 18.2502C32.4199 18.1755 32.346 18.1141 32.2618 18.0703C32.167 18.0233 32.0623 18.0002 31.9567 18.0031Z"
				fill="#868B95" />
			<path
				d="M33.5868 17.8162L33.5959 18.2445C33.6368 18.1747 33.6849 18.1094 33.7393 18.0497C33.7927 17.9917 33.8535 17.9412 33.9202 17.8994C33.9867 17.8569 34.059 17.8247 34.1349 17.8037C34.2142 17.7806 34.2964 17.7691 34.379 17.7695C34.488 17.7679 34.5966 17.7853 34.6999 17.8208C34.7921 17.8538 34.8749 17.9094 34.9405 17.9825C35.0107 18.0656 35.062 18.1632 35.0909 18.2684C35.1283 18.4059 35.1458 18.5483 35.1428 18.6909V20.322H34.9168V18.7081C34.9198 18.6002 34.9056 18.4925 34.875 18.3891C34.8512 18.3121 34.8102 18.2416 34.7552 18.183C34.7027 18.1297 34.6379 18.0905 34.5665 18.0691C34.486 18.0464 34.4027 18.0353 34.319 18.036C34.226 18.0345 34.1335 18.0512 34.0468 18.085C33.968 18.1161 33.895 18.1604 33.8309 18.216C33.7683 18.2703 33.7138 18.3337 33.6693 18.4039C33.6229 18.4719 33.5849 18.5453 33.5563 18.6226V20.322H33.3303V17.8162H33.5868Z"
				fill="#868B95" />
			<path
				d="M36.2728 17.1328V17.8162H36.7248V18.044H36.2728V19.6808C36.2698 19.7516 36.2786 19.8224 36.2988 19.8904C36.3122 19.9364 36.3362 19.9785 36.3689 20.0133C36.397 20.0418 36.4321 20.0622 36.4705 20.0726C36.5101 20.0827 36.5507 20.0877 36.5915 20.0874C36.6293 20.0874 36.6671 20.0848 36.7045 20.0794L36.8062 20.0646L36.8174 20.2924C36.7754 20.3069 36.7318 20.3164 36.6875 20.3209C36.6347 20.3277 36.5815 20.3311 36.5282 20.3311C36.4559 20.3318 36.3839 20.3214 36.3146 20.3004C36.2499 20.2808 36.1914 20.2442 36.1452 20.1945C36.093 20.1374 36.0544 20.0693 36.0321 19.9952C36.0199 19.8921 36.0222 19.7877 36.0389 19.6853V18.044H35.5869V17.8162H36.0389V17.1328H36.2728Z"
				fill="#868B95" />
			<path
				d="M40.3399 19.0691C40.3418 19.2409 40.3209 19.4121 40.2777 19.5782C40.2421 19.72 40.1808 19.8541 40.097 19.9735C40.0204 20.0811 39.9202 20.1696 39.8043 20.232C39.6829 20.2953 39.5477 20.327 39.4111 20.3243C39.2552 20.3282 39.1005 20.2958 38.9591 20.2297C38.8352 20.1688 38.7276 20.079 38.6449 19.9678V21.2207H38.4189V17.8163H38.6268L38.6449 18.1579C38.7247 18.0375 38.8321 17.9383 38.958 17.8686C39.0972 17.7952 39.2529 17.7591 39.4099 17.7638C39.5477 17.7613 39.6839 17.7917 39.8077 17.8527C39.9245 17.9122 40.0255 17.9989 40.1026 18.1055C40.1868 18.2251 40.2482 18.3596 40.2834 18.5019C40.3269 18.6715 40.3478 18.8461 40.3455 19.0213L40.3399 19.0691ZM40.1139 19.0156C40.1149 18.8769 40.0997 18.7385 40.0687 18.6033C40.0424 18.4854 39.9961 18.3729 39.932 18.2707C39.8727 18.1792 39.7924 18.1035 39.6981 18.0497C39.5961 17.9942 39.4817 17.9663 39.3658 17.9688C39.2751 17.9675 39.1846 17.981 39.098 18.0087C38.9553 18.0548 38.8317 18.1474 38.7466 18.2718C38.7056 18.3291 38.6714 18.391 38.6449 18.4563V19.6716C38.6749 19.7359 38.7128 19.796 38.758 19.8505C38.8024 19.9053 38.855 19.9529 38.9139 19.9917C38.9764 20.0335 39.0451 20.0654 39.1173 20.0863C39.2004 20.1097 39.2864 20.1208 39.3727 20.1193C39.4877 20.1224 39.6015 20.0949 39.7026 20.0395C39.7964 19.9829 39.8758 19.9049 39.9342 19.8117C39.9983 19.7091 40.0446 19.5963 40.071 19.478C40.1009 19.3438 40.1153 19.2066 40.1139 19.0691V19.0156Z"
				fill="#868B95" />
			<path
				d="M42.0227 18.0441C41.9622 18.0338 41.9009 18.0289 41.8396 18.0294C41.7547 18.0281 41.6701 18.042 41.5899 18.0703C41.5202 18.0997 41.4545 18.1381 41.3944 18.1843C41.2926 18.2669 41.2042 18.3648 41.1322 18.4747V20.3222H40.9062V17.8163H41.1322V18.2047C41.2112 18.0801 41.3124 17.9713 41.4306 17.8835C41.5559 17.8032 41.7025 17.7635 41.8509 17.7697C41.885 17.77 41.919 17.773 41.9526 17.7788C41.979 17.7822 42.0049 17.7891 42.0294 17.7993L42.0227 18.0441Z"
				fill="#868B95" />
			<path
				d="M42.2615 19.0065C42.2601 18.8404 42.2861 18.6753 42.3384 18.5178C42.3849 18.376 42.4587 18.2448 42.5553 18.1317C42.6485 18.023 42.7643 17.9363 42.8943 17.8777C43.0324 17.8147 43.1824 17.7833 43.3339 17.7854C43.4872 17.783 43.6392 17.8145 43.7791 17.8777C43.9093 17.9361 44.0251 18.0228 44.1181 18.1317C44.2148 18.2447 44.2882 18.3759 44.334 18.5178C44.3859 18.6753 44.4115 18.8405 44.4096 19.0065V19.0805C44.4115 19.2461 44.3859 19.4108 44.334 19.568C44.2882 19.7102 44.2148 19.8418 44.1181 19.9553C44.0249 20.0636 43.9092 20.15 43.7791 20.2081C43.6393 20.2675 43.489 20.2981 43.3373 20.2981C43.1855 20.2981 43.0353 20.2675 42.8955 20.2081C42.7657 20.1495 42.65 20.0632 42.5565 19.9553C42.4592 19.8418 42.3851 19.7103 42.3384 19.568C42.2862 19.4109 42.2602 19.2462 42.2615 19.0805V19.0065ZM42.4876 19.0816C42.4867 19.2165 42.5053 19.3508 42.5429 19.4803C42.5777 19.5997 42.6331 19.7118 42.7068 19.8117C42.7779 19.9062 42.8685 19.9839 42.9723 20.0395C43.085 20.0971 43.2099 20.126 43.3362 20.1238C43.4621 20.1262 43.5867 20.0972 43.6989 20.0395C43.8024 19.9839 43.8927 19.9061 43.9634 19.8117C44.0374 19.7122 44.093 19.5999 44.1271 19.4803C44.1648 19.3508 44.1834 19.2165 44.1825 19.0816V19.0042C44.1833 18.8712 44.1646 18.7387 44.1271 18.6112C44.0927 18.4914 44.0372 18.3787 43.9634 18.2786C43.8918 18.1841 43.8009 18.1064 43.6967 18.0508C43.5839 17.9923 43.4584 17.963 43.3317 17.9654C43.2063 17.963 43.0824 17.9924 42.9712 18.0508C42.8678 18.1068 42.7777 18.1844 42.7068 18.2786C42.6333 18.379 42.5779 18.4915 42.5429 18.6112C42.5055 18.7387 42.4868 18.8712 42.4876 19.0042V19.0816Z"
				fill="#868B95" />
			<path
				d="M45.7859 20.0942C45.8697 20.0945 45.9532 20.0818 46.0333 20.0566C46.1102 20.0315 46.1821 19.9929 46.2457 19.9427C46.3079 19.893 46.3597 19.8315 46.3983 19.7615C46.439 19.6869 46.4625 19.604 46.4672 19.519H46.7272C46.7217 19.6301 46.692 19.7386 46.6401 19.8368C46.5888 19.9349 46.5189 20.0219 46.4344 20.0931C46.3469 20.1661 46.2469 20.2228 46.1395 20.2605C45.8759 20.3515 45.5879 20.3393 45.3327 20.2263C45.2057 20.1654 45.094 20.0762 45.0062 19.9655C44.9148 19.8492 44.8469 19.7161 44.8062 19.5737C44.7597 19.4164 44.7399 19.2524 44.7474 19.0884V18.9928C44.7399 18.8288 44.7597 18.6648 44.8062 18.5075C44.8468 18.3659 44.9144 18.2337 45.005 18.118C45.0928 18.0069 45.2045 17.9174 45.3316 17.856C45.4731 17.79 45.6277 17.7572 45.7836 17.7603C45.9079 17.7592 46.0314 17.78 46.1486 17.8218C46.2569 17.8611 46.3566 17.921 46.4424 17.9984C46.5272 18.0762 46.5953 18.1709 46.6424 18.2763C46.69 18.3812 46.7184 18.4938 46.726 18.6089H46.4661C46.4583 18.5265 46.4365 18.4459 46.4017 18.3709C46.3663 18.2943 46.3164 18.2254 46.2548 18.1681C46.1925 18.1114 46.12 18.0673 46.0413 18.0383C45.9582 18.0083 45.8707 17.9932 45.7825 17.9938C45.6583 17.9897 45.5352 18.0184 45.4254 18.077C45.3294 18.1302 45.2475 18.2059 45.1869 18.298C45.1226 18.3952 45.077 18.5037 45.0525 18.6181C45.0242 18.7319 45.0107 18.8629 44.9722 18.9939V19.0896C45.0107 19.2217 45.0242 19.3493 45.0525 19.47C45.0769 19.5837 45.1221 19.6919 45.1858 19.7889C45.2468 19.881 45.329 19.9568 45.4254 20.0099C45.5366 20.0683 45.6606 20.0973 45.7859 20.0942Z"
				fill="#868B95" />
			<path
				d="M48.161 20.3221C48.0094 20.3239 47.8592 20.2932 47.7203 20.2322C47.5883 20.1738 47.4698 20.0885 47.3723 19.9816C47.2729 19.8701 47.1961 19.7401 47.1463 19.5988C47.1134 19.439 47.1051 19.275 47.1214 19.1125V19.0191C47.119 18.8433 47.1466 18.6685 47.2028 18.502C47.2505 18.3578 47.3245 18.2238 47.4208 18.1068C47.5085 18.0013 47.617 17.9156 47.7395 17.8551C47.8573 17.7957 47.9875 17.7653 48.1191 17.7662C48.2557 17.7633 48.391 17.7922 48.5147 17.8505C48.6277 17.9053 48.7266 17.9856 48.8039 18.0851C48.8855 18.1922 48.9461 18.314 48.9825 18.4439C49.0237 18.5922 49.0439 18.7456 49.0424 18.8995V19.0692H47.3463V19.1171C47.3342 19.2466 47.3504 19.3772 47.3937 19.4997C47.4312 19.6136 47.4898 19.7191 47.5666 19.8107C47.6391 19.8986 47.7292 19.9701 47.831 20.0203C47.9367 20.0717 48.0527 20.0979 48.1701 20.0966C48.302 20.0994 48.433 20.0722 48.5531 20.0169C48.6725 19.9564 48.7762 19.8687 48.856 19.7606L49.0254 19.8916C48.9835 19.9519 48.9362 20.0084 48.8841 20.0601C48.8282 20.1147 48.7651 20.1615 48.6966 20.1991C48.6212 20.2408 48.5407 20.2722 48.457 20.2925C48.3599 20.3145 48.2605 20.3244 48.161 20.3221ZM48.1158 18.0032C48.0175 18.0026 47.9201 18.0228 47.8299 18.0623C47.7441 18.1033 47.6674 18.161 47.6039 18.2321C47.5338 18.3092 47.4779 18.3983 47.4389 18.4952C47.3941 18.6044 47.3648 18.7194 47.3519 18.8369H48.8209V18.8072C48.8182 18.7052 48.8014 18.604 48.7712 18.5066C48.7428 18.4138 48.698 18.327 48.639 18.2503C48.5801 18.1754 48.5062 18.1141 48.422 18.0704C48.3269 18.0232 48.2218 18.0001 48.1158 18.0032Z"
				fill="#868B95" />
			<path
				d="M51.0198 19.7C51.0195 19.6464 51.0104 19.5932 50.9926 19.5428C50.9705 19.4856 50.9353 19.4344 50.8898 19.3935C50.8279 19.338 50.7573 19.2934 50.6807 19.2614C50.5693 19.2134 50.453 19.1779 50.3339 19.1555C50.2048 19.1286 50.0776 19.0932 49.9531 19.0496C49.852 19.0156 49.7565 18.9668 49.6695 18.9049C49.5966 18.8524 49.537 18.7833 49.4954 18.7033C49.4545 18.6174 49.4344 18.5229 49.4367 18.4277C49.4363 18.3329 49.4575 18.2394 49.4988 18.1543C49.5414 18.0657 49.6032 17.9878 49.6796 17.9265C49.7644 17.8587 49.861 17.8073 49.9644 17.775C50.0859 17.7357 50.213 17.7165 50.3407 17.7181C50.4763 17.7159 50.6113 17.7359 50.7407 17.7773C50.8498 17.8114 50.9515 17.8663 51.0401 17.939C51.1196 18.0061 51.1833 18.0901 51.2266 18.185C51.2692 18.2815 51.2907 18.3859 51.2898 18.4915H51.0051C51.0049 18.4233 50.9898 18.356 50.961 18.2944C50.9307 18.2298 50.8872 18.1724 50.8333 18.1259C50.7706 18.0762 50.6999 18.0376 50.6243 18.0119C50.533 17.9806 50.4371 17.9652 50.3407 17.9664C50.2445 17.9641 50.1487 17.978 50.057 18.0074C49.9868 18.03 49.9217 18.0659 49.8649 18.1133C49.8164 18.1518 49.7776 18.2013 49.752 18.258C49.7299 18.3086 49.7184 18.3633 49.718 18.4186C49.7169 18.4721 49.7257 18.5254 49.744 18.5757C49.7652 18.6281 49.7999 18.6737 49.8446 18.7078C49.9082 18.7562 49.9786 18.7947 50.0536 18.8218C50.1681 18.8634 50.2851 18.8977 50.4039 18.9243C50.5403 18.9553 50.6744 18.996 50.8051 19.0462C50.9056 19.0842 50.9998 19.1376 51.0842 19.2045C51.1538 19.2614 51.2098 19.3334 51.248 19.4152C51.2847 19.5019 51.3028 19.5954 51.3011 19.6897C51.3021 19.7912 51.2793 19.8915 51.2345 19.9824C51.1895 20.0721 51.1245 20.15 51.0446 20.2102C50.9543 20.2768 50.8529 20.3265 50.7452 20.3572C50.4749 20.4303 50.1898 20.4268 49.9214 20.3468C49.8067 20.3097 49.6998 20.2513 49.6061 20.1749C49.5241 20.1082 49.458 20.0237 49.4129 19.9278C49.3697 19.8372 49.3473 19.7378 49.3474 19.6373H49.6322C49.6353 19.7275 49.6622 19.8151 49.7101 19.8913C49.7542 19.9581 49.813 20.0138 49.8819 20.0541C49.9517 20.0961 50.0282 20.1257 50.1079 20.1418C50.1889 20.1589 50.2714 20.1677 50.3542 20.1681C50.4505 20.1698 50.5466 20.1567 50.639 20.1293C50.7138 20.108 50.7842 20.0733 50.8469 20.0268C50.8995 19.9875 50.9426 19.9369 50.9735 19.8787C51.0032 19.8239 51.0192 19.7625 51.0198 19.7Z"
				fill="#868B95" />
			<path
				d="M53.2847 19.7C53.2845 19.6464 53.2753 19.5932 53.2576 19.5428C53.2354 19.4856 53.2002 19.4344 53.1548 19.3935C53.0929 19.338 53.0222 19.2934 52.9457 19.2614C52.8343 19.2134 52.7179 19.1779 52.5988 19.1555C52.4694 19.1286 52.3418 19.0931 52.2169 19.0496C52.1163 19.0153 52.0211 18.9666 51.9344 18.9049C51.8615 18.8524 51.8019 18.7833 51.7603 18.7033C51.7194 18.6174 51.6993 18.5229 51.7016 18.4277C51.7012 18.3329 51.7225 18.2394 51.7638 18.1543C51.8064 18.0657 51.8682 17.9878 51.9446 17.9265C52.0294 17.8587 52.126 17.8073 52.2293 17.775C52.3509 17.7357 52.4779 17.7165 52.6056 17.7181C52.7413 17.7159 52.8763 17.7359 53.0056 17.7773C53.1148 17.8114 53.2164 17.8663 53.305 17.939C53.3846 18.0061 53.4482 18.0901 53.4915 18.185C53.5341 18.2815 53.5556 18.3859 53.5548 18.4915H53.27C53.2699 18.4233 53.2548 18.356 53.226 18.2944C53.1956 18.2298 53.1522 18.1724 53.0983 18.1259C53.0356 18.0762 52.9648 18.0376 52.8892 18.0119C52.7979 17.9806 52.702 17.9652 52.6056 17.9664C52.5094 17.9641 52.4136 17.978 52.322 18.0074C52.2518 18.03 52.1866 18.0659 52.1299 18.1133C52.0813 18.1518 52.0425 18.2013 52.0169 18.258C51.9945 18.3085 51.9826 18.3632 51.9819 18.4186C51.9811 18.4722 51.9903 18.5255 52.009 18.5757C52.0301 18.6281 52.0649 18.6737 52.1095 18.7078C52.1731 18.7562 52.2436 18.7947 52.3186 18.8218C52.4331 18.8634 52.55 18.8977 52.6689 18.9243C52.8053 18.9553 52.9394 18.996 53.07 19.0462C53.1706 19.0842 53.2647 19.1376 53.3491 19.2045C53.4194 19.2597 53.4766 19.3302 53.5164 19.4106C53.553 19.4974 53.5711 19.5909 53.5695 19.6851C53.5705 19.7866 53.5476 19.8869 53.5028 19.9778C53.4578 20.0675 53.3928 20.1455 53.313 20.2056C53.2227 20.2722 53.1213 20.322 53.0135 20.3526C52.7432 20.4258 52.4582 20.4222 52.1897 20.3423C52.075 20.3051 51.9682 20.2468 51.8745 20.1703C51.7925 20.1037 51.7264 20.0192 51.6813 19.9231C51.638 19.8325 51.6156 19.7333 51.6157 19.6328H51.9005C51.9037 19.7228 51.9306 19.8106 51.9785 19.8867C52.0226 19.9535 52.0813 20.0093 52.1502 20.0496C52.22 20.0915 52.2965 20.1212 52.3762 20.1373C52.4572 20.1543 52.5397 20.1631 52.6225 20.1635C52.7189 20.1653 52.8149 20.1522 52.9073 20.1248C52.9819 20.1037 53.052 20.0689 53.1141 20.0223C53.1672 19.9833 53.2109 19.9327 53.2418 19.8742C53.2697 19.8204 53.2844 19.7606 53.2847 19.7Z"
				fill="#868B95" />
			<path
				d="M54.0204 17.093C54.0196 17.069 54.0236 17.045 54.0321 17.0225C54.0406 17 54.0536 16.9795 54.0702 16.962C54.0875 16.9438 54.1087 16.9295 54.1321 16.9202C54.1555 16.911 54.1806 16.907 54.2058 16.9085C54.231 16.9071 54.2562 16.9111 54.2799 16.9204C54.3034 16.9296 54.3248 16.9438 54.3425 16.962C54.3685 16.9882 54.3862 17.0216 54.393 17.058C54.3998 17.0945 54.3956 17.132 54.3807 17.166C54.3659 17.1998 54.3413 17.2285 54.31 17.2479C54.2788 17.2675 54.2424 17.277 54.2058 17.2753C54.1814 17.2769 54.1569 17.2733 54.134 17.2648C54.1112 17.2563 54.0903 17.243 54.0728 17.2258C54.0553 17.2086 54.0416 17.1879 54.0326 17.1651C54.0236 17.1422 54.0194 17.1176 54.0204 17.093ZM54.3527 20.3221H54.1266V17.8163H54.3527V20.3221Z"
				fill="#868B95" />
			<path
				d="M55.2837 17.8163L55.2916 18.2445C55.3326 18.1747 55.3807 18.1094 55.4351 18.0497C55.4887 17.992 55.5495 17.9415 55.6159 17.8994C55.6825 17.8572 55.7548 17.825 55.8306 17.8037C55.9099 17.7806 55.9921 17.7691 56.0747 17.7695C56.1838 17.7679 56.2923 17.7852 56.3956 17.8208C56.488 17.8535 56.5708 17.9091 56.6363 17.9825C56.7064 18.0657 56.7577 18.1632 56.7866 18.2684C56.824 18.406 56.8415 18.5483 56.8385 18.691V20.322H56.6126V18.7081C56.6155 18.6002 56.6014 18.4925 56.5707 18.3891C56.547 18.3121 56.506 18.2416 56.451 18.183C56.3985 18.1297 56.3336 18.0906 56.2623 18.0691C56.1817 18.0464 56.0984 18.0354 56.0148 18.036C55.9217 18.0345 55.8292 18.0512 55.7425 18.085C55.6637 18.1162 55.5907 18.1604 55.5266 18.216C55.4639 18.2707 55.4091 18.3339 55.3639 18.404C55.3179 18.4722 55.28 18.5455 55.2509 18.6226V20.322H55.0249V17.8163H55.2837Z"
				fill="#868B95" />
			<path
				d="M57.4028 19.0235C57.4007 18.8482 57.4224 18.6735 57.4672 18.5041C57.5043 18.3614 57.5676 18.227 57.6537 18.1077C57.7314 18.0013 57.8328 17.9147 57.9497 17.8549C58.0731 17.7942 58.209 17.7637 58.3464 17.7661C58.5036 17.7611 58.6594 17.7976 58.7984 17.872C58.9242 17.943 59.0306 18.0443 59.108 18.167L59.1215 17.8116H59.3238V20.2331C59.3315 20.3796 59.3096 20.526 59.2594 20.6636C59.2171 20.7842 59.1497 20.8941 59.0616 20.986C58.9742 21.0756 58.8686 21.1452 58.7521 21.1899C58.6227 21.2384 58.4855 21.2624 58.3475 21.2605C58.2681 21.26 58.189 21.2513 58.1113 21.2343C58.0336 21.2156 57.9579 21.1893 57.8853 21.1557C57.8103 21.12 57.7395 21.0761 57.674 21.0247C57.6069 20.9714 57.548 20.9084 57.4989 20.8379L57.6514 20.6739C57.7369 20.7853 57.8447 20.8773 57.9678 20.9439C58.0818 21.0013 58.2077 21.0306 58.3351 21.0292C58.4403 21.0316 58.5451 21.0135 58.6436 20.9758C58.7298 20.9424 58.8071 20.8894 58.8696 20.8208C58.9328 20.7494 58.9809 20.6657 59.0108 20.5748C59.0436 20.478 59.1012 20.2445 59.1012 20.2445V19.9609C59.0212 20.0745 58.9149 20.1668 58.7916 20.2297C58.6508 20.298 58.4958 20.3312 58.3396 20.3265C58.203 20.3287 58.068 20.297 57.9463 20.2342C57.8299 20.1716 57.7291 20.0832 57.6514 19.9757C57.5658 19.8566 57.5026 19.7226 57.4649 19.5805C57.421 19.4137 57.4001 19.2416 57.4028 19.069V19.0235ZM57.6288 19.0679C57.6277 19.2074 57.6426 19.3464 57.6729 19.4825C57.6983 19.6005 57.7442 19.7132 57.8085 19.8151C57.8652 19.9059 57.9427 19.9817 58.0345 20.0361C58.1356 20.0916 58.2494 20.1191 58.3644 20.1158C58.4524 20.1172 58.5399 20.1053 58.6243 20.0805C58.6971 20.0592 58.7661 20.0265 58.8289 19.9836C58.8867 19.9422 58.9384 19.8927 58.9825 19.8367C59.0273 19.7796 59.0653 19.7172 59.0956 19.6511V18.4688C59.069 18.4017 59.0349 18.3378 58.9939 18.2786C58.9523 18.2183 58.902 18.1645 58.8447 18.1191C58.7835 18.0702 58.7148 18.0317 58.6413 18.0052C58.5538 17.9764 58.4621 17.9626 58.3701 17.9642C58.252 17.9603 58.1349 17.9883 58.0311 18.0451C57.9398 18.1006 57.8624 18.1766 57.8051 18.2672C57.7409 18.3696 57.695 18.4826 57.6695 18.6009C57.6393 18.7366 57.6246 18.8753 57.6254 19.0144L57.6288 19.0679Z"
				fill="#868B95" />
			<path
				d="M62.5756 19.7C62.5753 19.6464 62.5662 19.5932 62.5485 19.5428C62.5271 19.4854 62.4922 19.4341 62.4467 19.3935C62.3847 19.3383 62.3141 19.2937 62.2377 19.2614C62.1258 19.2134 62.0091 19.1779 61.8897 19.1555C61.7606 19.1284 61.6334 19.0931 61.5088 19.0496C61.4081 19.0156 61.3129 18.9668 61.2263 18.9049C61.1535 18.8521 61.0935 18.7831 61.0512 18.7033C61.011 18.6175 60.9902 18.5237 60.9902 18.4288C60.9902 18.3339 61.011 18.2402 61.0512 18.1543C61.0938 18.066 61.1551 17.9882 61.2309 17.9265C61.316 17.8593 61.4125 17.8079 61.5156 17.775C61.6372 17.7357 61.7642 17.7165 61.8919 17.7181C62.0275 17.7159 62.1626 17.7359 62.2919 17.7773C62.4013 17.8109 62.503 17.8659 62.5913 17.939C62.6709 18.0061 62.7345 18.0901 62.7778 18.185C62.8213 18.2812 62.8433 18.3858 62.8422 18.4915H62.5575C62.5572 18.4233 62.5422 18.356 62.5134 18.2944C62.483 18.2295 62.4391 18.172 62.3846 18.1259C62.3221 18.0758 62.2513 18.0372 62.1755 18.0119C62.0842 17.9806 61.9883 17.9651 61.8919 17.9664C61.7957 17.9642 61.6999 17.9781 61.6082 18.0074C61.5382 18.0302 61.473 18.0661 61.4162 18.1133C61.3718 18.1507 61.336 18.1974 61.3113 18.2501C61.2865 18.3028 61.2733 18.3603 61.2726 18.4186C61.2721 18.4721 61.2809 18.5253 61.2986 18.5757C61.3203 18.6278 61.3549 18.6734 61.3992 18.7078C61.4629 18.756 61.5334 18.7944 61.6082 18.8218C61.7228 18.8633 61.8397 18.8975 61.9585 18.9243C62.095 18.9552 62.2291 18.9959 62.3597 19.0462C62.4603 19.084 62.5545 19.1374 62.6388 19.2045C62.7084 19.2614 62.7644 19.3334 62.8027 19.4152C62.8398 19.5018 62.8579 19.5954 62.8558 19.6897C62.8573 19.7912 62.8344 19.8917 62.7891 19.9824C62.7441 20.0721 62.6791 20.15 62.5993 20.2102C62.5094 20.2768 62.4083 20.3266 62.301 20.3572C62.1735 20.3936 62.0413 20.4112 61.9088 20.4095C61.7625 20.4122 61.6168 20.3911 61.4772 20.3468C61.362 20.3099 61.2547 20.2515 61.1608 20.1749C61.0794 20.1076 61.0134 20.0233 60.9675 19.9278C60.926 19.8371 60.9052 19.7382 60.9066 19.6384H61.1913C61.1942 19.7287 61.2216 19.8166 61.2704 19.8925C61.3141 19.9592 61.3725 20.0149 61.441 20.0553C61.5109 20.0973 61.5873 20.1269 61.667 20.143C61.7477 20.16 61.8298 20.1688 61.9122 20.1692C62.0085 20.1709 62.1046 20.1579 62.197 20.1305C62.2718 20.1091 62.3422 20.0744 62.4049 20.028C62.4578 19.989 62.501 19.9384 62.5315 19.8799C62.5612 19.8247 62.5764 19.7628 62.5756 19.7Z"
				fill="#868B95" />
			<path
				d="M64.0904 19.8882L64.8057 17.8164H65.0973L64.0599 20.6798C64.0395 20.7368 64.0124 20.7938 63.9797 20.87C63.9469 20.941 63.9043 21.007 63.8531 21.066C63.7985 21.1291 63.7326 21.1813 63.6588 21.2197C63.5704 21.2641 63.4726 21.2856 63.374 21.2824H63.322L63.2632 21.2744C63.2446 21.2722 63.226 21.2688 63.2079 21.2641L63.166 21.2539V21.0261C63.1842 21.0261 63.209 21.0318 63.2395 21.0352C63.2617 21.0363 63.284 21.0363 63.3062 21.0352C63.3717 21.0364 63.437 21.0268 63.4995 21.0067C63.5531 20.9888 63.6026 20.96 63.6452 20.9225C63.6899 20.882 63.728 20.8347 63.7582 20.7823C63.792 20.7199 63.8208 20.6547 63.8441 20.5875L63.957 20.2618L63.0327 17.8164H63.3288L64.0904 19.8882Z"
				fill="#868B95" />
			<path
				d="M66.8954 19.6999C66.8953 19.6462 66.8857 19.593 66.8672 19.5427C66.8459 19.4853 66.811 19.4341 66.7655 19.3935C66.7035 19.3382 66.6329 19.2936 66.5564 19.2614C66.4446 19.2134 66.3279 19.1779 66.2084 19.1555C66.0794 19.1283 65.9522 19.093 65.8276 19.0495C65.7269 19.0155 65.6317 18.9668 65.5451 18.9049C65.4723 18.8524 65.4126 18.7833 65.3711 18.7033C65.3298 18.6174 65.3092 18.523 65.3112 18.4276C65.3112 18.3328 65.3329 18.2393 65.3744 18.1542C65.4171 18.0657 65.4788 17.9878 65.5553 17.9264C65.6401 17.8586 65.7366 17.8073 65.8401 17.775C65.9616 17.7356 66.0887 17.7164 66.2163 17.718C66.352 17.716 66.487 17.736 66.6163 17.7773C66.7253 17.8111 66.8266 17.866 66.9147 17.939C66.9945 18.0057 67.0582 18.0899 67.1011 18.185C67.1446 18.2811 67.1666 18.3858 67.1655 18.4914H66.8807C66.8806 18.4233 66.8655 18.356 66.8367 18.2943C66.8063 18.2297 66.7629 18.1723 66.709 18.1258C66.6463 18.0761 66.5756 18.0376 66.5 18.0119C66.4086 17.9807 66.3127 17.9652 66.2163 17.9663C66.1202 17.9641 66.0244 17.978 65.9327 18.0074C65.8623 18.0302 65.7967 18.0661 65.7395 18.1133C65.6908 18.1516 65.652 18.2012 65.6265 18.2579C65.6041 18.3085 65.5922 18.3631 65.5914 18.4185C65.5907 18.4721 65.5998 18.5255 65.6185 18.5757C65.6398 18.628 65.6745 18.6736 65.7191 18.7078C65.7827 18.7561 65.8532 18.7946 65.9282 18.8217C66.0426 18.8634 66.1597 18.8977 66.2785 18.9243C66.4149 18.9553 66.5489 18.996 66.6796 19.0461C66.7801 19.0844 66.8741 19.1378 66.9588 19.2044C67.0283 19.2611 67.084 19.3332 67.1214 19.4152C67.159 19.5016 67.1775 19.5952 67.1757 19.6896C67.1802 19.7894 67.1617 19.8888 67.1214 19.9801C67.0764 20.0697 67.0114 20.1477 66.9316 20.2079C66.8413 20.2745 66.7399 20.3243 66.6322 20.3548C66.3619 20.428 66.0768 20.4245 65.8084 20.3446C65.6935 20.3078 65.5865 20.2495 65.4932 20.1726C65.411 20.1056 65.3447 20.0212 65.2988 19.9254C65.2564 19.8346 65.2344 19.7354 65.2344 19.6349H65.5191C65.5212 19.7253 65.5482 19.8133 65.5971 19.8889C65.6411 19.9555 65.6995 20.0111 65.7677 20.0518C65.8376 20.0936 65.9141 20.1233 65.9937 20.1396C66.0744 20.1565 66.1565 20.1653 66.2389 20.1657C66.3356 20.1675 66.432 20.1545 66.5248 20.127C66.5993 20.1057 66.6694 20.0709 66.7316 20.0245C66.7848 19.9855 66.8284 19.9349 66.8593 19.8764C66.8852 19.8214 66.8976 19.7608 66.8954 19.6999Z"
				fill="#868B95" />
			<path
				d="M68.1386 17.1328V17.8162H68.5905V18.044H68.1386V19.6808C68.1352 19.7515 68.1436 19.8224 68.1634 19.8904C68.1768 19.9364 68.2008 19.9785 68.2335 20.0133C68.2616 20.0418 68.2967 20.0622 68.3351 20.0726C68.3746 20.0827 68.4153 20.0877 68.4561 20.0874C68.4958 20.0877 68.5354 20.085 68.5747 20.0794L68.6764 20.0646L68.6877 20.2924C68.6455 20.3067 68.602 20.3162 68.5577 20.3209C68.5045 20.3277 68.4509 20.3311 68.3973 20.3311C68.325 20.3318 68.253 20.3214 68.1837 20.3004C68.1193 20.2807 68.0612 20.2442 68.0154 20.1945C67.9633 20.1374 67.9247 20.0693 67.9023 19.9952C67.8904 19.8921 67.893 19.7877 67.9103 19.6853V18.044H67.4583V17.8162H67.9103V17.1328H68.1386Z"
				fill="#868B95" />
			<path
				d="M70.0021 20.3221C69.8502 20.324 69.6996 20.2933 69.5603 20.2321C69.4286 20.1738 69.3105 20.0885 69.2134 19.9815C69.1138 19.8702 69.037 19.7402 68.9874 19.5989C68.9495 19.4396 68.9309 19.2763 68.9321 19.1125V19.0191C68.9294 18.8429 68.9585 18.6677 69.0179 18.502C69.0677 18.357 69.1444 18.2229 69.2439 18.1067C69.3383 17.9999 69.4537 17.9142 69.5829 17.855C69.7087 17.7955 69.8461 17.7651 69.9852 17.7662C70.1289 17.7631 70.2717 17.7919 70.4033 17.8505C70.522 17.9042 70.6271 17.9845 70.7106 18.0851C70.7963 18.191 70.8605 18.313 70.8993 18.4439C70.9428 18.5917 70.9642 18.7453 70.9626 18.8995V19.0692H69.1558V19.1171C69.1686 19.2471 69.1951 19.3754 69.2349 19.4998C69.2719 19.6135 69.3302 19.719 69.4066 19.8107C69.4791 19.8986 69.5692 19.97 69.671 20.0202C69.7767 20.0717 69.8927 20.0978 70.01 20.0966C70.142 20.0995 70.273 20.0722 70.3931 20.0168C70.5127 19.9567 70.6164 19.8689 70.6959 19.7606L70.8654 19.8916C70.8234 19.9519 70.7761 20.0083 70.7242 20.0602C70.6686 20.1148 70.6058 20.1615 70.5377 20.1991C70.4618 20.2406 70.3809 20.272 70.297 20.2925C70.2003 20.3145 70.1012 20.3244 70.0021 20.3221ZM69.9252 18.0031C69.8269 18.0026 69.7296 18.0228 69.6394 18.0624C69.5536 18.1033 69.4768 18.161 69.4134 18.2321C69.3433 18.3092 69.2874 18.3983 69.2484 18.4952C69.2036 18.6043 69.1742 18.7194 69.1614 18.8368H70.6304V18.8072C70.6277 18.7052 70.6109 18.604 70.5807 18.5065C70.5523 18.4138 70.5074 18.327 70.4484 18.2502C70.3896 18.1755 70.3157 18.1141 70.2315 18.0703C70.1364 18.0231 70.0312 18 69.9252 18.0031Z"
				fill="#868B95" />
			<path
				d="M71.6721 17.8163L71.6811 18.2241C71.7208 18.1567 71.7678 18.0941 71.8213 18.0372C71.873 17.9808 71.9328 17.9325 71.9987 17.8937C72.0655 17.8531 72.1378 17.8224 72.2134 17.8026C72.2948 17.7802 72.3788 17.7691 72.4631 17.7696C72.6213 17.7649 72.7777 17.8044 72.9151 17.8835C73.0478 17.9686 73.1441 18.1006 73.1851 18.2537C73.2244 18.184 73.2714 18.119 73.3253 18.06C73.3797 18.0004 73.442 17.9486 73.5106 17.9062C73.5808 17.862 73.657 17.8279 73.7366 17.8049C73.8243 17.7793 73.9153 17.7666 74.0067 17.7673C74.1218 17.7649 74.2365 17.7826 74.3457 17.8197C74.4411 17.8521 74.5267 17.9086 74.5942 17.9837C74.6662 18.0663 74.7191 18.164 74.7491 18.2697C74.7878 18.405 74.8061 18.5456 74.8033 18.6865V20.3221H74.5773V18.7059C74.5802 18.5956 74.5654 18.4856 74.5333 18.3801C74.5079 18.3026 74.4645 18.2323 74.4067 18.1751C74.3516 18.1234 74.2843 18.087 74.2112 18.0691C74.1298 18.0489 74.0464 18.039 73.9626 18.0396C73.8558 18.0386 73.75 18.0599 73.6518 18.1022C73.5679 18.1388 73.4914 18.1906 73.4258 18.2548C73.3114 18.37 73.2392 18.521 73.2214 18.6831V20.3221H72.9953V18.6853C72.998 18.5807 72.9832 18.4763 72.9513 18.3767C72.9254 18.3012 72.8815 18.2331 72.8236 18.1785C72.7677 18.1278 72.7007 18.0911 72.6281 18.0714C72.5459 18.0492 72.4611 18.0384 72.3761 18.0396C72.2801 18.0375 72.1845 18.0542 72.0948 18.0885C72.0167 18.1191 71.9448 18.1635 71.8823 18.2195C71.8225 18.2734 71.7721 18.3369 71.7331 18.4075C71.6945 18.4761 71.6631 18.5486 71.6393 18.6238V20.3221H71.4133V17.8163H71.6721Z"
				fill="#868B95" />
			<path
				d="M16.7238 8.42837C16.7244 6.50102 16.0695 4.63167 14.8685 3.13193C13.6675 1.63219 11.9928 0.592669 10.1236 0.186616C4.89963 -0.942127 0 3.18446 0 8.56965V16.7089C1.27975 17.4329 2.6471 17.9869 4.06795 18.3571L4.13236 18.373V18.3536C4.13236 15.7089 6.0251 13.5698 8.36076 13.5698C10.6964 13.5698 12.5892 15.7123 12.5892 18.3536V18.373L12.6536 18.3571C14.0745 17.9869 15.4418 17.4329 16.7216 16.7089V8.42837H16.7238ZM8.32008 13.0881C7.70189 13.0881 7.09764 12.9033 6.58364 12.5571C6.06964 12.2109 5.66904 11.7189 5.43247 11.1432C5.19591 10.5675 5.13401 9.93405 5.25461 9.32291C5.37521 8.71185 5.67289 8.15049 6.11001 7.70988C6.54712 7.26925 7.10404 6.9692 7.7103 6.84764C8.31667 6.72608 8.94508 6.78847 9.51621 7.02692C10.0873 7.26537 10.5755 7.6692 10.9189 8.18723C11.2623 8.70533 11.4457 9.3145 11.4457 9.93761C11.4457 10.7731 11.1164 11.5744 10.5302 12.1653C9.94402 12.7561 9.14902 13.0881 8.32008 13.0881Z"
				fill="#2CA656" />
			<path
				d="M11.6253 20.1782C9.47621 20.6623 7.24761 20.6623 5.09851 20.1782C4.73352 20.0951 4.35611 19.9995 3.96852 19.8856C2.58581 19.4807 1.25414 18.9162 0 18.2032V20.5496C0.440695 21.0553 3.42725 24.2423 8.36189 24.2423C13.2966 24.2423 16.2831 21.053 16.7238 20.5496V18.2032C15.4693 18.9163 14.1373 19.4808 12.7542 19.8856C12.3677 19.9995 11.9903 20.094 11.6253 20.1782Z"
				fill="#76B437" />
		</g>
	</g>
	<defs>
		<clipPath id="clip0_886_434">
			<rect width="75" height="24.2424" fill="white" />
		</clipPath>
	</defs>
</svg>
