<svg width="45" height="34" viewBox="0 0 45 34" fill="none" xmlns="http://www.w3.org/2000/svg">
	<g clip-path="url(#clip0_886_482)">
		<path
			d="M8.01151 33.8866V31.6162C8.01151 30.7648 7.49286 30.1971 6.57082 30.1971C6.10981 30.1971 5.59117 30.3674 5.30302 30.8215C5.01489 30.4242 4.66913 30.1971 4.09285 30.1971C3.68946 30.1971 3.3437 30.3107 3.05556 30.708V30.3107H2.24878V33.8866H3.05556V31.9C3.05556 31.2756 3.40133 30.935 3.91997 30.935C4.43862 30.935 4.72675 31.2756 4.72675 31.9V33.8866H5.53354V31.9C5.53354 31.2756 5.93693 30.935 6.39794 30.935C6.91659 30.935 7.20472 31.2756 7.20472 31.9V33.8866H8.01151ZM19.8251 30.3107H18.5573V29.1754H17.7506V30.3107H17.0014V31.0486H17.7506V32.6946C17.7506 33.546 18.0963 34.0001 19.0183 34.0001C19.3641 34.0001 19.7674 33.8866 19.998 33.7163L19.7674 33.0352C19.537 33.2055 19.2489 33.2055 19.076 33.2055C18.6726 33.2055 18.5573 32.9784 18.5573 32.5811V30.9918H19.8251V30.3107ZM26.5675 30.1971C26.1065 30.1971 25.8183 30.4242 25.5878 30.708V30.2539H24.7811V33.8299H25.5878V31.7865C25.5878 31.1621 25.876 30.8215 26.337 30.8215C26.5099 30.8215 26.6828 30.8782 26.8557 30.8782L27.0861 30.1404C26.9708 30.1971 26.7404 30.1971 26.5675 30.1971ZM16.3674 30.5945C15.9641 30.3107 15.4454 30.1971 14.8691 30.1971C13.9472 30.1971 13.3708 30.6512 13.3708 31.3324C13.3708 31.9567 13.8319 32.2973 14.6386 32.3541L15.042 32.4108C15.4454 32.4676 15.676 32.5811 15.676 32.8082C15.676 33.092 15.3878 33.2622 14.8115 33.2622C14.2928 33.2622 13.8319 33.092 13.6014 32.8649L13.198 33.4893C13.6014 33.7731 14.1777 33.9434 14.7539 33.9434C15.7912 33.9434 16.4251 33.4326 16.4251 32.8082C16.4251 32.1838 15.9065 31.8432 15.1573 31.7297L14.7539 31.6729C14.4081 31.6162 14.12 31.5594 14.12 31.3324C14.12 31.0486 14.4081 30.935 14.8115 30.935C15.2726 30.935 15.7336 31.1054 15.9641 31.2188L16.3674 30.5945ZM37.5743 30.1971C37.1133 30.1971 36.8251 30.4242 36.5946 30.708V30.2539H35.7879V33.8299H36.5946V31.7865C36.5946 31.1621 36.8828 30.8215 37.3438 30.8215C37.5167 30.8215 37.6896 30.8782 37.8624 30.8782L38.0929 30.1404C37.9777 30.1971 37.7472 30.1971 37.5743 30.1971ZM27.3743 32.0703C27.3743 33.1488 28.1234 33.9434 29.3336 33.9434C29.8523 33.9434 30.2557 33.8299 30.6014 33.546L30.198 32.9217C29.9099 33.1488 29.5641 33.2622 29.2183 33.2622C28.5845 33.2622 28.1234 32.8082 28.1234 32.1271C28.1234 31.4459 28.5845 30.9918 29.2183 30.9918C29.5641 30.9918 29.8523 31.1054 30.198 31.3324L30.6014 30.708C30.198 30.4242 29.8523 30.3107 29.3336 30.3107C28.1234 30.1971 27.3743 30.9918 27.3743 32.0703ZM34.7506 32.0703V30.3107H33.9438V30.7648C33.6557 30.4242 33.3099 30.2539 32.7912 30.2539C31.754 30.2539 30.9471 31.0486 30.9471 32.1271C30.9471 33.2055 31.754 34.0001 32.7912 34.0001C33.3099 34.0001 33.7133 33.8299 33.9438 33.4893V33.9434H34.7506V32.0703ZM31.8116 32.0703C31.8116 31.4459 32.215 30.935 32.9065 30.935C33.5404 30.935 34.0014 31.4459 34.0014 32.0703C34.0014 32.6946 33.5404 33.2055 32.9065 33.2055C32.2726 33.2055 31.8116 32.6946 31.8116 32.0703ZM22.3031 30.1971C21.2658 30.1971 20.459 30.935 20.459 32.0703C20.459 33.2055 21.2082 33.9434 22.3031 33.9434C22.8217 33.9434 23.3403 33.7731 23.8014 33.4326L23.398 32.8649C23.1099 33.092 22.7065 33.2622 22.3607 33.2622C21.842 33.2622 21.3811 33.0352 21.2658 32.4108H23.9743C23.9743 32.2973 23.9743 32.2405 23.9743 32.1271C24.0319 30.935 23.3403 30.1971 22.3031 30.1971ZM22.3031 30.8782C22.8217 30.8782 23.1675 31.1621 23.2252 31.7297H21.3234C21.3811 31.2756 21.7268 30.8782 22.3031 30.8782ZM42.0692 32.0703V28.8348H41.2625V30.708C40.9743 30.3674 40.6286 30.1971 40.1099 30.1971C39.0726 30.1971 38.2658 30.9918 38.2658 32.0703C38.2658 33.1488 39.0726 33.9434 40.1099 33.9434C40.6286 33.9434 41.032 33.7731 41.2625 33.4326V33.8866H42.0692V32.0703ZM39.1879 32.0703C39.1879 31.4459 39.5913 30.935 40.2828 30.935C40.9167 30.935 41.3778 31.4459 41.3778 32.0703C41.3778 32.6946 40.9167 33.2055 40.2828 33.2055C39.5913 33.2055 39.1879 32.6946 39.1879 32.0703ZM12.5064 32.0703V30.3107H11.6997V30.7648C11.4115 30.4242 11.0657 30.2539 10.5472 30.2539C9.50981 30.2539 8.70308 31.0486 8.70308 32.1271C8.70308 33.2055 9.50981 34.0001 10.5472 34.0001C11.0657 34.0001 11.4691 33.8299 11.6997 33.4893V33.9434H12.5064V32.0703ZM9.50981 32.0703C9.50981 31.4459 9.91322 30.935 10.6047 30.935C11.2386 30.935 11.6997 31.4459 11.6997 32.0703C11.6997 32.6946 11.2386 33.2055 10.6047 33.2055C9.97085 33.2055 9.50981 32.6946 9.50981 32.0703Z"
			fill="white" />
		<path d="M28.0644 3.0083H16.0779V24.1803H28.0644V3.0083Z" fill="#FF5A00" />
		<path
			d="M16.8848 13.5659C16.8848 9.2521 18.9594 5.44909 22.0713 2.95159C19.7662 1.13523 16.8272 0.0567627 13.6577 0.0567627C6.1085 0.0567627 0 6.07345 0 13.5092C0 20.9449 6.1085 26.9616 13.6577 26.9616C16.8272 26.9616 19.7662 25.8831 22.0713 24.0668C18.9594 21.7395 16.8848 17.8798 16.8848 13.5659Z"
			fill="#EB001B" />
		<path
			d="M44.2004 13.5659C44.2004 21.0016 38.0919 27.0184 30.5427 27.0184C27.3732 27.0184 24.4343 25.9399 22.1292 24.1235C25.2986 21.626 27.3156 17.8231 27.3156 13.5092C27.3156 9.1953 25.241 5.39232 22.1292 2.89483C24.4343 1.07846 27.3732 0 30.5427 0C38.0919 0.113523 44.2004 6.18698 44.2004 13.5659Z"
			fill="#F79E1B" />
	</g>
	<defs>
		<clipPath id="clip0_886_482">
			<rect width="44.2" height="34" fill="white" />
		</clipPath>
	</defs>
</svg>
