<svg width="122" height="58" viewBox="0 0 122 58" fill="none" xmlns="http://www.w3.org/2000/svg">
	<rect opacity="0.16" x="0.5" y="0.500488" width="121" height="57" rx="8.5" stroke="#F9F9F9" />
	<g opacity="0.3" clip-path="url(#clip0_600_463)">
		<path
			d="M90.6064 29.1005C90.6092 38.8877 82.6772 46.8233 72.89 46.8259C63.1026 46.8283 55.1672 38.8967 55.1646 29.1095C55.1646 29.1063 55.1646 29.1037 55.1646 29.1005C55.162 19.3135 63.094 11.3775 72.8808 11.3749C82.6682 11.3723 90.6038 19.3043 90.6064 29.0915C90.6064 29.0945 90.6064 29.0973 90.6064 29.1005Z"
			fill="#949494" />
		<path
			d="M49.0001 11.3795C39.2709 11.4413 31.3933 19.3567 31.3933 29.1005C31.3933 38.8823 39.3323 46.8213 49.1143 46.8213C53.7053 46.8213 57.8901 45.0717 61.0391 42.2041C61.0389 42.2041 61.0385 42.2037 61.0377 42.2033H61.0415C61.6863 41.6157 62.2877 40.9817 62.8405 40.3057H59.2099C58.7251 39.7201 58.2845 39.1099 57.8887 38.4803H64.1503C64.5311 37.8709 64.8759 37.2381 65.1819 36.5827H56.8549C56.5711 35.9743 56.3247 35.3521 56.1143 34.7209H65.9233C66.5145 32.9545 66.8353 31.0647 66.8353 29.1003C66.8353 27.7979 66.6941 26.5281 66.4269 25.3055H55.5941C55.7283 24.6763 55.8977 24.0547 56.0997 23.4439H65.9123C65.6929 22.7939 65.4381 22.1605 65.1483 21.5465H56.8539C57.1531 20.9073 57.4921 20.2855 57.8707 19.6851H64.1277C63.7113 19.0217 63.2505 18.3879 62.7523 17.7875H59.2637C59.8031 17.1527 60.3969 16.5549 61.0415 15.9975C57.8923 13.1295 53.7063 11.3795 49.1143 11.3795C49.0761 11.3795 49.0383 11.3793 49.0001 11.3795Z"
			fill="#585858" />
		<path
			d="M88.8285 38.3645C88.9249 38.3645 89.0187 38.3895 89.1103 38.4387C89.2023 38.4879 89.2731 38.5589 89.3243 38.6511C89.3755 38.7423 89.4011 38.8385 89.4011 38.9381C89.4011 39.0365 89.3757 39.1317 89.3253 39.2229C89.2751 39.3139 89.2043 39.3849 89.1131 39.4355C89.0229 39.4853 88.9275 39.5105 88.8283 39.5105C88.7291 39.5105 88.6339 39.4853 88.5431 39.4355C88.4521 39.3847 88.3817 39.3141 88.3305 39.2229C88.2801 39.1317 88.2551 39.0365 88.2551 38.9381C88.2551 38.8385 88.2805 38.7423 88.3319 38.6511C88.3835 38.5589 88.4547 38.4885 88.5461 38.4387C88.6385 38.3895 88.7323 38.3645 88.8285 38.3645ZM88.8285 38.4595C88.7483 38.4595 88.6699 38.4803 88.5933 38.5217C88.5173 38.5631 88.4579 38.6217 88.4151 38.6993C88.3717 38.7757 88.3501 38.8549 88.3501 38.9381C88.3501 39.0205 88.3713 39.1001 88.4131 39.1757C88.4559 39.2511 88.5151 39.3103 88.5907 39.3527C88.6669 39.3949 88.7459 39.4157 88.8283 39.4157C88.9111 39.4157 88.9903 39.3949 89.0661 39.3527C89.1417 39.3103 89.2007 39.2511 89.2429 39.1757C89.2847 39.1001 89.3055 39.0207 89.3055 38.9381C89.3055 38.8549 89.2843 38.7755 89.2413 38.6993C89.1987 38.6217 89.1391 38.5631 89.0625 38.5217C88.9867 38.4801 88.9087 38.4595 88.8285 38.4595ZM88.5773 39.2545V38.6381H88.7897C88.8617 38.6381 88.9141 38.6437 88.9465 38.6557C88.9789 38.6671 89.0047 38.6865 89.0241 38.7151C89.0431 38.7433 89.0529 38.7733 89.0529 38.8053C89.0529 38.8505 89.0369 38.8897 89.0045 38.9229C88.9729 38.9561 88.9299 38.9751 88.8767 38.9791C88.8985 38.9881 88.9159 38.9995 88.9295 39.0119C88.9545 39.0359 88.9845 39.0765 89.0205 39.1339L89.0955 39.2545H88.9743L88.9199 39.1575C88.8769 39.0811 88.8423 39.0335 88.8157 39.0139C88.7975 39.0001 88.7709 38.9929 88.7363 38.9929H88.6777V39.2551H88.5777M88.6769 38.9075H88.7977C88.8553 38.9075 88.8943 38.8987 88.9153 38.8817C88.9365 38.8641 88.9471 38.8417 88.9471 38.8133C88.9471 38.7949 88.9423 38.7785 88.9321 38.7645C88.9217 38.7499 88.9077 38.7395 88.8895 38.7321C88.8717 38.7251 88.8385 38.7211 88.7901 38.7211H88.6773V38.9075"
			fill="white" />
		<path
			d="M54.9948 34.1844L55.2308 32.5804C55.1018 32.5804 54.9122 32.6362 54.7446 32.6362C54.0878 32.6362 54.0058 32.2852 54.0574 32.0288L54.7046 28.8028H55.703L55.9088 26.9822H54.9678L55.1594 25.879H53.191C53.1494 25.9206 52.0774 32.0834 52.0774 32.8342C52.0774 33.9452 52.701 34.4396 53.5806 34.4318C54.269 34.426 54.8056 34.2354 54.9948 34.1844Z"
			fill="#676767" />
		<path
			d="M55.5923 31.1268C55.5923 33.7932 57.3521 34.4266 58.8517 34.4266C60.2359 34.4266 60.9617 34.1058 60.9617 34.1058L61.2941 32.2858C61.2941 32.2858 60.1245 32.7614 59.1739 32.7614C57.1477 32.7614 57.5029 31.2506 57.5029 31.2506L61.3955 31.2624C61.3955 31.2624 61.6433 30.0402 61.6433 29.542C61.6433 28.2986 60.9659 26.7722 58.8943 26.7722C56.9971 26.7726 55.5923 28.8168 55.5923 31.1268ZM58.9015 28.4618C59.9663 28.4618 59.7699 29.6586 59.7699 29.7556H57.6751C57.6751 29.6316 57.8729 28.4618 58.9015 28.4618Z"
			fill="#676767" />
		<path
			d="M70.849 34.1838L71.1868 32.127C71.1868 32.127 70.2604 32.5912 69.6254 32.5912C68.2868 32.5912 67.7498 31.5692 67.7498 30.471C67.7498 28.2436 68.9014 27.018 70.1834 27.018C71.145 27.018 71.9164 27.5578 71.9164 27.5578L72.2244 25.5592C72.2244 25.5592 71.3136 24.9014 70.3332 24.8976C67.3842 24.886 65.6968 26.9392 65.6968 30.4886C65.6968 32.8412 66.9464 34.4422 69.198 34.4422C69.8346 34.4422 70.849 34.1838 70.849 34.1838Z"
			fill="#676767" />
		<path
			d="M44.617 26.8016C43.3232 26.8016 42.3316 27.2174 42.3316 27.2174L42.0576 28.8428C42.0576 28.8428 42.8762 28.5102 44.1138 28.5102C44.8164 28.5102 45.3304 28.5892 45.3304 29.1602C45.3304 29.507 45.2676 29.635 45.2676 29.635C45.2676 29.635 44.7132 29.5888 44.4564 29.5888C42.6144 29.5888 41.1106 30.2852 41.1106 32.3848C41.1106 34.0394 42.2352 34.4188 42.9322 34.4188C44.2636 34.4188 44.7906 33.5782 44.821 33.5758L44.8056 34.2734C44.8056 34.2734 46.4668 34.2734 46.467 34.2734L47.2082 29.0774C47.2082 26.8724 45.285 26.8016 44.617 26.8016ZM44.9046 31.0208C44.9408 31.338 44.8226 32.838 43.6862 32.838C43.1002 32.838 42.948 32.39 42.948 32.1256C42.948 31.6088 43.2286 30.989 44.611 30.989C44.933 30.989 44.8504 31.0122 44.9046 31.0208Z"
			fill="#676767" />
		<path
			d="M48.9741 34.3804C49.3991 34.3804 51.8285 34.4886 51.8285 31.9816C51.8285 29.6374 49.5797 30.1008 49.5797 29.1588C49.5797 28.6904 49.9463 28.5428 50.6165 28.5428C50.8823 28.5428 51.9059 28.6274 51.9059 28.6274L52.1437 26.9614C52.1437 26.9616 51.4813 26.8132 50.4029 26.8132C49.0071 26.8132 47.5903 27.3704 47.5903 29.2768C47.5903 31.4372 49.9527 31.2202 49.9527 32.1302C49.9527 32.7376 49.2927 32.7876 48.7839 32.7876C47.9037 32.7876 47.1113 32.4854 47.1085 32.5L46.8567 34.149C46.9025 34.163 47.3915 34.3804 48.9741 34.3804Z"
			fill="#676767" />
		<path
			d="M86.4125 25.2903L86.0715 27.8321C86.0715 27.8321 85.3609 26.8511 84.2491 26.8511C82.1573 26.8511 81.0793 28.9357 81.0793 31.3303C81.0793 32.8763 81.8481 34.3917 83.4191 34.3917C84.5493 34.3917 85.1759 33.6035 85.1759 33.6035L85.093 34.2765H86.9285L88.3699 25.3041L86.4125 25.2903ZM85.6021 30.2305C85.6021 31.2271 85.1085 32.5585 84.0859 32.5585C83.4067 32.5585 83.0883 31.9883 83.0883 31.0937C83.0883 29.6307 83.7453 28.6657 84.5747 28.6657C85.2536 28.6657 85.6021 29.1317 85.6021 30.2305Z"
			fill="#676767" />
		<path
			d="M34.4008 34.2838L35.5494 27.5098L35.7182 34.2838H37.018L39.443 27.5098L38.3688 34.2838H40.3004L41.7878 25.2994L38.7194 25.276L36.8942 30.7768L36.8442 25.2994H34.0322L32.5234 34.2838H34.4008Z"
			fill="#676767" />
		<path
			d="M63.4712 34.2966C64.0204 31.1736 64.216 28.7072 65.8176 29.218C66.0476 28.0092 66.5958 26.958 66.8462 26.4464C66.8462 26.4464 66.767 26.3286 66.272 26.3286C65.427 26.3286 64.2988 28.0434 64.2988 28.0434L64.4674 26.9832H62.7102L61.5334 34.2964H63.4712V34.2966Z"
			fill="#676767" />
		<path
			d="M74.801 26.8016C73.5066 26.8016 72.515 27.2174 72.515 27.2174L72.2412 28.8428C72.2412 28.8428 73.0602 28.5102 74.2972 28.5102C75 28.5102 75.5138 28.5892 75.5138 29.1602C75.5138 29.507 75.4512 29.635 75.4512 29.635C75.4512 29.635 74.897 29.5888 74.6402 29.5888C72.798 29.5888 71.2944 30.2852 71.2944 32.3848C71.2944 34.0394 72.4188 34.4188 73.1158 34.4188C74.4468 34.4188 74.9742 33.5782 75.0044 33.5758L74.9888 34.2734H76.6506L77.3916 29.0774C77.3918 26.8724 75.4686 26.8016 74.801 26.8016ZM75.0882 31.0208C75.1242 31.338 75.006 32.838 73.8698 32.838C73.2834 32.838 73.1314 32.39 73.1314 32.1256C73.1314 31.6088 73.4118 30.989 74.7944 30.989C75.1166 30.989 75.0342 31.0122 75.0882 31.0208Z"
			fill="#676767" />
		<path
			d="M79.3042 34.2966C79.6058 31.999 80.164 28.7734 81.6504 29.218C81.8802 28.0092 81.6586 28.0124 81.1638 28.0124C80.3182 28.0124 80.131 28.0432 80.131 28.0432L80.2998 26.983H78.5428L77.366 34.2964H79.3042V34.2966Z"
			fill="#676767" />
		<path
			d="M55.4866 33.6122L55.7228 32.0084C55.5938 32.0084 55.404 32.0636 55.2366 32.0636C54.5798 32.0636 54.5074 31.7144 54.5492 31.4562L55.0798 28.1838H56.078L56.319 26.4098H55.3778L55.5694 25.3066H53.6826C53.641 25.3482 52.5688 31.5112 52.5688 32.2616C52.5688 33.3726 53.1926 33.8674 54.0722 33.8594C54.761 33.8536 55.2974 33.663 55.4866 33.6122Z"
			fill="#E7E7E7" />
		<path
			d="M56.0842 30.5545C56.0842 33.2209 57.8442 33.8545 59.3436 33.8545C60.7276 33.8545 61.3366 33.5451 61.3366 33.5451L61.669 31.7253C61.669 31.7253 60.6162 32.1891 59.6654 32.1891C57.6394 32.1891 57.9942 30.6785 57.9942 30.6785H61.8286C61.8286 30.6785 62.0762 29.4559 62.0762 28.9577C62.0762 27.7145 61.4574 26.1997 59.3858 26.1997C57.4886 26.2001 56.0842 28.2443 56.0842 30.5545ZM59.393 27.8895C60.4578 27.8895 60.2614 29.0861 60.2614 29.1829H58.1666C58.1666 29.0593 58.3646 27.8895 59.393 27.8895Z"
			fill="#E7E7E7" />
		<path
			d="M71.3411 33.6114L71.6787 31.5544C71.6787 31.5544 70.7529 32.0187 70.1175 32.0187C68.7791 32.0187 68.2423 30.9966 68.2423 29.8986C68.2423 27.6712 69.3939 26.4458 70.6759 26.4458C71.6373 26.4458 72.4089 26.9856 72.4089 26.9856L72.7169 24.987C72.7169 24.987 71.5727 24.524 70.5919 24.524C68.4137 24.524 66.2947 26.4136 66.2947 29.9624C66.2947 32.3156 67.4389 33.8698 69.6905 33.8698C70.3271 33.87 71.3411 33.6114 71.3411 33.6114Z"
			fill="#E7E7E7" />
		<path
			d="M45.1091 26.229C43.8153 26.229 42.8235 26.6448 42.8235 26.6448L42.5497 28.2702C42.5497 28.2702 43.3683 27.9376 44.6057 27.9376C45.3083 27.9376 45.8223 28.0166 45.8223 28.5876C45.8223 28.9344 45.7593 29.0624 45.7593 29.0624C45.7593 29.0624 45.2051 29.016 44.9485 29.016C43.3167 29.016 41.6025 29.7124 41.6025 31.812C41.6025 33.4664 42.7271 33.846 43.4241 33.846C44.7553 33.846 45.3291 32.9822 45.3597 32.9796L45.2975 33.7006H46.9589L47.7001 28.5044C47.7001 26.3 45.7771 26.229 45.1091 26.229ZM45.5133 30.4598C45.5493 30.7772 45.3143 32.265 44.1783 32.265C43.5923 32.265 43.4399 31.8174 43.4399 31.5526C43.4399 31.0362 43.7205 30.4162 45.1031 30.4162C45.4247 30.4166 45.4591 30.451 45.5133 30.4598Z"
			fill="#E7E7E7" />
		<path
			d="M49.4658 33.808C49.8908 33.808 52.3204 33.916 52.3204 31.409C52.3204 29.0652 50.0714 29.5282 50.0714 28.5866C50.0714 28.1178 50.438 27.9702 51.108 27.9702C51.374 27.9702 52.3974 28.0548 52.3974 28.0548L52.6354 26.3888C52.6354 26.389 51.973 26.2406 50.8946 26.2406C49.4988 26.2406 48.082 26.7978 48.082 28.7042C48.082 30.8644 50.4444 30.6476 50.4444 31.5576C50.4444 32.165 49.7844 32.2144 49.2758 32.2144C48.3956 32.2144 47.603 31.9124 47.6002 31.9268L47.3486 33.576C47.3942 33.59 47.883 33.808 49.4658 33.808Z"
			fill="#E7E7E7" />
		<path
			d="M86.9701 24.7341L86.5631 27.2595C86.5631 27.2595 85.8529 26.2785 84.7411 26.2785C83.0123 26.2785 81.5713 28.3629 81.5713 30.7579C81.5713 32.3039 82.3399 33.8187 83.9111 33.8187C85.0413 33.8187 85.6679 33.0307 85.6679 33.0307L85.5849 33.7037H87.4201L88.8615 24.7311L86.9701 24.7341ZM86.0939 29.6581C86.0939 30.6547 85.6005 31.9859 84.5775 31.9859C83.8985 31.9859 83.5803 31.4159 83.5803 30.5213C83.5803 29.0585 84.2373 28.0933 85.0663 28.0933C85.7455 28.0931 86.0939 28.5597 86.0939 29.6581Z"
			fill="#E7E7E7" />
		<path
			d="M34.8929 33.7114L36.0415 26.9374L36.2101 33.7114H37.5101L39.9351 26.9374L38.8609 33.7114H40.7925L42.2801 24.7268H39.2931L37.4329 30.2394L37.3361 24.7268H34.5827L33.0737 33.7114H34.8929Z"
			fill="#E7E7E7" />
		<path
			d="M63.9632 33.7239C64.5124 30.6007 64.6142 28.0647 65.9248 28.5289C66.1542 27.3201 66.3756 26.8525 66.626 26.3409C66.626 26.3409 66.5086 26.3163 66.2622 26.3163C65.4172 26.3163 64.7912 27.4707 64.7912 27.4707L64.9594 26.4105H63.2026L62.0256 33.7239H63.9632Z"
			fill="#E7E7E7" />
		<path
			d="M75.6949 26.229C74.4011 26.229 73.4093 26.6448 73.4093 26.6448L73.1357 28.2702C73.1357 28.2702 73.9543 27.9376 75.1917 27.9376C75.8943 27.9376 76.4079 28.0166 76.4079 28.5876C76.4079 28.9344 76.3453 29.0624 76.3453 29.0624C76.3453 29.0624 75.7911 29.016 75.5343 29.016C73.9027 29.016 72.1885 29.7124 72.1885 31.812C72.1885 33.4664 73.3129 33.846 74.0099 33.846C75.3411 33.846 75.9149 32.9822 75.9453 32.9796L75.8835 33.7006C75.8835 33.7006 77.5443 33.7006 77.5449 33.7006L78.2859 28.5044C78.2861 26.3 76.3629 26.229 75.6949 26.229ZM76.0997 30.4598C76.1357 30.7772 75.9005 32.265 74.7641 32.265C74.1781 32.265 74.0261 31.8174 74.0261 31.5526C74.0261 31.0362 74.3067 30.4162 75.6891 30.4162C76.0107 30.4166 76.0449 30.451 76.0997 30.4598Z"
			fill="#E7E7E7" />
		<path
			d="M79.8043 33.7239C80.3537 30.6007 80.4555 28.0647 81.7657 28.5289C81.9955 27.3201 82.2171 26.8525 82.4673 26.3409C82.4673 26.3409 82.3499 26.3163 82.1035 26.3163C81.2585 26.3163 80.6325 27.4707 80.6325 27.4707L80.8007 26.4105H79.0439L77.8669 33.7239H79.8043Z"
			fill="#E7E7E7" />
		<path
			d="M88.8206 32.5955C88.9164 32.5955 89.0108 32.6201 89.1018 32.6701C89.1936 32.7185 89.265 32.7897 89.3162 32.8819C89.3676 32.9735 89.3928 33.0689 89.3928 33.1687C89.3928 33.2673 89.3676 33.3625 89.317 33.4535C89.2668 33.5445 89.1962 33.6159 89.1052 33.6661C89.0144 33.7161 88.9192 33.7413 88.8204 33.7413C88.7208 33.7413 88.6256 33.7161 88.5346 33.6661C88.4438 33.6155 88.3734 33.5445 88.323 33.4535C88.2718 33.3625 88.2468 33.2673 88.2468 33.1687C88.2468 33.0689 88.2722 32.9735 88.3236 32.8819C88.3752 32.7897 88.4468 32.7189 88.5382 32.6701C88.6304 32.6201 88.7248 32.5955 88.8206 32.5955ZM88.8206 32.6899C88.7404 32.6899 88.662 32.7107 88.5854 32.7525C88.509 32.7933 88.4496 32.8523 88.4066 32.9295C88.3638 33.0057 88.3422 33.0855 88.3422 33.1683C88.3422 33.2511 88.363 33.3303 88.4048 33.4059C88.4474 33.4813 88.5066 33.5405 88.583 33.5831C88.6586 33.6247 88.7376 33.6457 88.8206 33.6457C88.903 33.6457 88.9826 33.6247 89.0582 33.5831C89.1338 33.5405 89.193 33.4813 89.235 33.4059C89.2772 33.3297 89.2978 33.2511 89.2978 33.1683C89.2978 33.0855 89.2764 33.0057 89.2336 32.9295C89.191 32.8523 89.1316 32.7933 89.0548 32.7525C88.9788 32.7109 88.901 32.6899 88.8206 32.6899ZM88.5696 33.4851V32.8685H88.7818C88.854 32.8685 88.9068 32.8743 88.9388 32.8861C88.9712 32.8971 88.9966 32.9169 89.0164 32.9455C89.0358 32.9739 89.0456 33.0037 89.0456 33.0357C89.0456 33.0807 89.0292 33.1201 88.9968 33.1533C88.9652 33.1865 88.9226 33.2057 88.8694 33.2093C88.8906 33.2185 88.9082 33.2295 88.9218 33.2419C88.9464 33.2663 88.9768 33.3071 89.0128 33.3641L89.0882 33.4849H88.9664L88.9122 33.3879C88.869 33.3113 88.8344 33.2637 88.808 33.2443C88.7898 33.2301 88.7632 33.2231 88.7282 33.2231H88.67V33.4853L88.5696 33.4851ZM88.6692 33.1381H88.79C88.8478 33.1381 88.8868 33.1295 88.9076 33.1123C88.9286 33.0955 88.9396 33.0725 88.9396 33.0439C88.9396 33.0257 88.9346 33.0093 88.9246 32.9955C88.9144 32.9807 88.9002 32.9701 88.882 32.9627C88.8638 32.9557 88.8312 32.9521 88.7824 32.9521H88.6694V33.1381"
			fill="#E7E7E7" />
	</g>
	<defs>
		<clipPath id="clip0_600_463">
			<rect width="60" height="36" fill="white" transform="translate(31 11.0005)" />
		</clipPath>
	</defs>
</svg>
