<svg width="121" height="58" viewBox="0 0 121 58" fill="none" xmlns="http://www.w3.org/2000/svg">
	<rect opacity="0.16" x="0.5" y="0.5" width="120" height="57" rx="8.5" stroke="#F9F9F9" />
	<g opacity="0.4">
		<path fill-rule="evenodd" clip-rule="evenodd"
			d="M37.1214 21.2779C37.6717 21.2746 39.3073 21.1273 40 23.4654C40.4667 25.0404 41.2101 27.6204 42.2302 31.2052H42.6456C43.7395 27.4258 44.491 24.8459 44.9001 23.4654C45.6 21.1029 47.35 21.2779 48.0501 21.2779L53.4507 21.2779V38.0779H47.9462V28.1774H47.5771L44.5086 38.0779H40.3672L37.2987 28.1701H36.9296V38.0779H31.425V21.2779L37.1214 21.2779ZM61.3551 21.2779V31.1858H61.7942L65.5267 23.0386C66.2513 21.4173 67.7955 21.2779 67.7955 21.2779H73.1223V38.0779H67.5028V28.1701H67.0637L63.4043 36.3172C62.6798 37.9312 61.0623 38.0779 61.0623 38.0779H55.7356V21.2779H61.3551ZM92.5456 29.2614C91.7618 31.4827 89.3002 33.0735 86.5748 33.0735H80.6817V38.0779H75.3379V29.2614H92.5456Z"
			fill="#757575" />
		<path fill-rule="evenodd" clip-rule="evenodd"
			d="M86.8325 21.278H75.0576C75.3378 25.0182 78.5589 28.2201 81.8933 28.2201H92.9169C93.553 25.1115 91.3631 21.278 86.8325 21.278Z"
			fill="url(#paint0_linear_600_460)" />
	</g>
	<defs>
		<linearGradient id="paint0_linear_600_460" x1="93.025" y1="25.6449" x2="75.0576" y2="25.6449"
			gradientUnits="userSpaceOnUse">
			<stop stop-color="#A8A8A8" />
			<stop offset="1" stop-color="white" />
		</linearGradient>
	</defs>
</svg>
