<svg width="74" height="22" viewBox="0 0 74 22" fill="none" xmlns="http://www.w3.org/2000/svg">
	<path d="M24.9585 21.6845L28.546 0.371948H34.2805L30.6933 21.6845H24.9585Z" fill="#1334CB" />
	<path
		d="M51.4924 0.89452C50.3586 0.466776 48.5753 0 46.3539 0C40.6844 0 36.6935 2.89255 36.6603 7.03398C36.6243 10.0972 39.5082 11.806 41.6824 12.8241C43.917 13.8678 44.6677 14.5357 44.6588 15.469C44.6434 16.8964 42.8753 17.5504 41.2265 17.5504C38.9306 17.5504 37.7109 17.2285 35.825 16.4327L35.0873 16.0934L34.2854 20.8641C35.6226 21.4577 38.1015 21.973 40.6742 22C46.6996 22 50.6148 19.1428 50.6606 14.7202C50.6813 12.291 49.1533 10.4494 45.8439 8.92912C43.8399 7.94116 42.61 7.28644 42.6241 6.28614C42.6254 5.40017 43.6631 4.45213 45.9092 4.45213C47.7849 4.42318 49.1427 4.8377 50.2008 5.27079L50.7157 5.51477L51.4924 0.89452Z"
		fill="#1334CB" />
	<path
		d="M59.1299 14.1275C59.6051 12.9025 61.4143 8.17062 61.4143 8.17062C61.3809 8.22665 61.8869 6.9358 62.1765 6.13696L62.5636 7.97513C62.5636 7.97513 63.664 13.0621 63.8906 14.1275C62.9978 14.1275 60.2496 14.1275 59.1299 14.1275ZM66.2045 0.392822H61.7728C60.3982 0.392822 59.3693 0.769889 58.7671 2.1595L50.251 21.6913H56.2741C56.2741 21.6913 57.2568 19.0637 57.4798 18.4871C58.1368 18.4871 63.9893 18.4981 64.8246 18.4981C64.9965 19.2419 65.523 21.6913 65.523 21.6913H70.8455L66.2045 0.392822Z"
		fill="#1334CB" />
	<path
		d="M20.1465 0.389771L14.5338 14.9199L13.9326 11.9663C12.8866 8.56322 9.63074 4.87463 5.98877 3.02643L11.1237 21.6659L17.1927 21.6624L26.2235 0.389771H20.1465Z"
		fill="#1334CB" />
	<path
		d="M9.32394 0.375122H0.0764183L0 0.816717C7.19596 2.58215 11.957 6.8435 13.9331 11.9661L11.9236 2.17329C11.5769 0.822695 10.5693 0.422335 9.32394 0.375122Z"
		fill="#1334CB" />
	<path
		d="M72.4765 20.2909H72.748C72.9399 20.2909 72.9792 20.1833 72.9792 20.0967C72.9792 19.9478 72.8785 19.9132 72.7225 19.9132H72.4765V20.2909ZM72.2419 19.7476H72.8018C72.9323 19.7476 73.2187 19.7807 73.2187 20.0967C73.2187 20.1804 73.1927 20.2985 73.0055 20.3753V20.3819C73.1671 20.4083 73.1757 20.555 73.1853 20.673C73.197 20.8612 73.1853 20.8949 73.2364 20.9614H72.9933C72.9471 20.9166 72.9576 20.8817 72.9471 20.6843C72.9471 20.5723 72.9323 20.458 72.6693 20.458H72.4765V20.9614H72.2419V19.7476ZM72.7044 21.3951C73.2797 21.3951 73.7316 20.9368 73.7316 20.3643C73.7316 19.7911 73.2797 19.3331 72.7044 19.3331C72.1294 19.3331 71.6778 19.7911 71.6778 20.3643C71.6778 20.9368 72.1294 21.3951 72.7044 21.3951ZM72.7044 19.1487C73.4138 19.1487 73.9711 19.6936 73.9711 20.3643C73.9711 21.0347 73.4138 21.5795 72.7044 21.5795C71.9953 21.5795 71.4387 21.0347 71.4387 20.3643C71.4387 19.6936 71.9953 19.1487 72.7044 19.1487Z"
		fill="#1334CB" />
</svg>
