<svg width="121" height="58" viewBox="0 0 121 58" fill="none" xmlns="http://www.w3.org/2000/svg">
	<rect opacity="0.16" x="0.5" y="0.500488" width="120" height="57" rx="8.5" stroke="#F9F9F9" />
	<g opacity="0.3">
		<path
			d="M55.1025 29.9782L52.4807 37.0281L52.1957 35.5897C51.5402 33.8379 50.1296 31.9864 48.491 31.2458L50.8848 40.2896H53.7061L57.9095 29.964H55.1025V29.9782Z"
			fill="#999999" />
		<path d="M57.3398 40.3179L59.0212 29.978H61.6858L60.0187 40.3179H57.3398Z" fill="#999999" />
		<path
			d="M69.7076 30.2202C69.1804 30.0066 68.354 29.7787 67.3138 29.7787C64.6777 29.7787 62.8111 31.1887 62.7969 33.1968C62.7826 34.678 64.122 35.5183 65.1337 36.0025C66.1739 36.5153 66.5301 36.8286 66.5159 37.2843C66.5016 37.9822 65.6752 38.2955 64.92 38.2955C63.8513 38.2955 63.2813 38.1389 62.4122 37.7543L62.0702 37.5834L61.6997 39.8907C62.3267 40.1755 63.4808 40.4319 64.6777 40.4461C67.4848 40.4461 69.3087 39.0646 69.3229 36.914C69.3372 35.7319 68.6247 34.8347 67.0716 34.1083C66.1454 33.6241 65.5612 33.3108 65.5754 32.8265C65.5754 32.3993 66.0599 31.9435 67.1001 31.9435C67.9693 31.9293 68.6105 32.1287 69.0949 32.3423L69.3372 32.4562L69.7076 30.2202Z"
			fill="#999999" />
		<path
			d="M76.5617 29.978H74.4956C73.8544 29.978 73.3699 30.1632 73.0992 30.8326L69.1379 40.3036H71.945C71.945 40.3036 72.401 39.0218 72.5007 38.7512C72.7999 38.7512 75.5357 38.7512 75.9205 38.7512C76.0059 39.1073 76.2482 40.3036 76.2482 40.3036H78.7275L76.5617 29.978ZM73.2559 36.6434C73.4839 36.0452 74.3246 33.7522 74.3246 33.7522C74.3103 33.7807 74.5383 33.154 74.6808 32.7695L74.8518 33.6668C74.8518 33.6668 75.3647 36.1307 75.4787 36.6576C75.0655 36.6434 73.7831 36.6434 73.2559 36.6434Z"
			fill="#999999" />
		<path
			d="M50.0585 29.978H45.7553L45.7268 30.149C49.0753 31.004 51.2839 33.1128 52.2101 35.5921L51.2697 30.833C51.1129 30.1918 50.6427 29.9923 50.0585 29.978Z"
			fill="white" />
		<path
			d="M37.6762 27.4716H35.9664L34 18.6272L35.8951 18.3138L37.2345 25.2356L40.6543 18.3993H42.4639L37.6762 27.4716Z"
			fill="#999999" />
		<path
			d="M46.5391 24.5803H42.4782C42.3642 25.8051 42.9342 26.3463 43.9031 26.3463C44.7153 26.3463 45.4277 26.0472 46.1972 25.563V26.7878C45.442 27.2578 44.5728 27.5569 43.5469 27.5569C41.78 27.5569 40.6116 26.5457 40.9678 24.267C41.2813 22.2161 42.7062 20.9628 44.3591 20.9628C46.2542 20.9628 46.8954 22.387 46.6104 24.1815C46.5819 24.3382 46.5534 24.4948 46.5391 24.5803ZM44.1453 22.0737C43.5184 22.0737 42.9342 22.5721 42.6492 23.6118H45.1712C45.214 22.6149 44.9005 22.0737 44.1453 22.0737Z"
			fill="#999999" />
		<path
			d="M49.1751 23.8113L48.6194 27.4431H47.052L48.0209 21.1195H49.3603V22.3871C49.8875 21.6465 50.6142 21.0341 51.6117 20.9913L51.6259 22.5437C50.6285 22.6007 49.7308 23.1277 49.1751 23.8113Z"
			fill="#999999" />
		<path
			d="M51.5974 27.443L52.5663 21.1195H54.1337L53.1648 27.443H51.5974ZM53.5353 20.0513C53.0081 20.0513 52.6518 19.681 52.7231 19.1541C52.8086 18.6129 53.2788 18.2426 53.806 18.2426C54.319 18.2426 54.6752 18.6271 54.5897 19.1541C54.5185 19.681 54.0482 20.0513 53.5353 20.0513Z"
			fill="#999999" />
		<path
			d="M58.4938 19.3819C57.9524 19.3819 57.6389 19.624 57.5391 20.1795L57.3966 21.1052H58.6078V22.387H57.2114L56.4277 27.4288H54.8746L55.6583 22.387H54.7463L54.9458 21.1052H55.8578L56.0287 20.0228C56.2425 18.6271 57.2114 18.1001 58.5081 18.1001C58.7788 18.1001 58.9925 18.1286 59.1493 18.1571L59.1635 19.4389C58.9925 19.4104 58.7646 19.3819 58.4938 19.3819Z"
			fill="#999999" />
		<path
			d="M58.5083 27.443L59.4772 21.1195H61.0446L60.0757 27.443H58.5083ZM60.4462 20.0513C59.919 20.0513 59.5627 19.681 59.634 19.1541C59.7195 18.6129 60.1897 18.2426 60.7169 18.2426C61.2299 18.2426 61.5861 18.6271 61.5006 19.1541C61.4436 19.681 60.9591 20.0513 60.4462 20.0513Z"
			fill="#999999" />
		<path
			d="M67.1573 24.5803H63.0963C62.9824 25.8051 63.5523 26.3463 64.5212 26.3463C65.3334 26.3463 66.0459 26.0472 66.8153 25.563V26.7878C66.0601 27.2578 65.1909 27.5569 64.165 27.5569C62.3981 27.5569 61.2297 26.5457 61.586 24.267C61.8994 22.2161 63.3243 20.9628 64.9772 20.9628C66.8723 20.9628 67.5135 22.387 67.2286 24.1815C67.2143 24.3382 67.1716 24.4948 67.1573 24.5803ZM64.7635 22.0737C64.1365 22.0737 63.5523 22.5721 63.2673 23.6118H65.7894C65.8322 22.6149 65.5329 22.0737 64.7635 22.0737Z"
			fill="#999999" />
		<path
			d="M71.8166 27.4431V26.5601C71.2894 27.1013 70.6054 27.5713 69.722 27.5713C68.3968 27.5713 67.4849 26.5886 67.8126 24.4522C68.1689 22.088 69.6365 21.0483 71.1041 21.0483C71.7026 21.0483 72.1728 21.148 72.529 21.2904L72.9993 18.2426L74.6094 18.0005L73.156 27.4573H71.8166V27.4431ZM72.3438 22.5722C71.9733 22.3871 71.6884 22.3016 71.1611 22.3016C70.3347 22.3016 69.6365 22.971 69.4228 24.3525C69.2375 25.5774 69.665 26.1613 70.3632 26.1613C70.9332 26.1613 71.4319 25.8195 71.9306 25.2925L72.3438 22.5722Z"
			fill="#999999" />
		<path
			d="M77.9865 27.5001C77.2456 27.5001 76.6329 27.3862 76.0771 27.1868L77.1173 20.4644L78.3427 20.2793L77.901 23.1847C78.2572 22.8714 78.756 22.5438 79.3544 22.5438C80.3661 22.5438 81.05 23.2986 80.7936 24.908C80.5086 26.6741 79.4114 27.5001 77.9865 27.5001ZM78.8557 23.5977C78.4567 23.5977 78.0578 23.8683 77.7015 24.2244L77.3738 26.4035C77.6018 26.4889 77.7728 26.5316 78.1148 26.5316C78.8699 26.5316 79.3972 26.0759 79.5681 24.9792C79.7106 24.0535 79.3972 23.5977 78.8557 23.5977Z"
			fill="#999999" />
		<path
			d="M83.5861 27.6994C82.9734 28.8815 82.375 29.2518 81.4488 29.2518C81.2351 29.2518 81.1211 29.2375 81.0213 29.2091L81.0071 28.2263C81.1638 28.2691 81.3206 28.2976 81.5485 28.2976C81.8905 28.2976 82.204 28.1409 82.4035 27.7848L82.5602 27.4715L81.5485 22.7431L82.8167 22.5864L83.4009 26.0046L84.9825 22.6576H86.1652L83.5861 27.6994Z"
			fill="#999999" />
	</g>
</svg>
