<svg width="166" height="96" viewBox="0 0 166 96" fill="none" xmlns="http://www.w3.org/2000/svg">
	<path fill-rule="evenodd" clip-rule="evenodd"
		d="M133.268 2.35872e-05V72.1769H116.143V3.60888L133.268 2.35872e-05ZM84.5081 79.0171C89.2374 79.0171 93.0709 82.819 93.0709 87.5086C93.0709 92.1982 89.2374 96 84.5081 96C79.7792 96 75.9454 92.1982 75.9454 87.5086C75.9454 82.819 79.7792 79.0171 84.5081 79.0171ZM84.5081 20.4973C99.0889 20.4973 110.934 32.2202 110.934 46.7028C110.934 61.1854 99.0886 72.9082 84.5081 72.9082C69.9039 72.9082 58.0825 61.1854 58.0825 46.7028C58.0825 32.2202 69.9277 20.4973 84.5081 20.4973ZM84.5081 55.194C89.2414 55.194 93.0709 51.3965 93.0709 46.7028C93.0709 42.0089 89.2414 38.2114 84.5081 38.2114C79.7749 38.2114 75.9454 42.0089 75.9454 46.7028C75.9454 51.3965 79.7749 55.194 84.5081 55.194ZM30.6341 55.194C33.5835 55.194 35.9859 52.8118 35.9859 49.8869C35.9859 46.9622 33.5835 44.5798 30.6341 44.5798H17.7899V55.194H30.6341ZM17.7899 16.9828V27.5971H27.3041C30.2535 27.5971 32.6559 25.2146 32.6559 22.2899C32.6559 19.3651 30.2535 16.9828 27.3041 16.9828H17.7899ZM46.4038 34.0128C50.5426 38.0698 53.1113 43.6836 53.0876 49.8869C53.0876 62.1996 43.0265 72.1769 30.6104 72.1769H0.640625V0H27.2804C39.6965 0 49.7576 9.9774 49.7576 22.2899C49.7576 26.5829 48.5446 30.6163 46.4038 34.0128ZM165.617 38.4473H157.078V51.774C157.078 55.8074 158.386 58.7794 161.811 58.7794C164.023 58.7794 165.641 58.284 165.641 58.284V70.7854C165.641 70.7854 162.096 72.9082 157.292 72.9082H157.078C156.864 72.9082 156.673 72.8846 156.459 72.8846H156.293C156.198 72.8846 156.079 72.8609 155.984 72.8609C146.422 72.3655 139.928 66.3979 139.928 56.0434V12.1002L157.054 8.49139V21.4644H165.617V38.4473Z"
		fill="#34D186" />
</svg>