<svg width="223" height="72" viewBox="0 0 223 72" fill="none" xmlns="http://www.w3.org/2000/svg">
	<path
		d="M105.628 14.0601H119.099C132.654 14.0601 143.43 22.3951 143.43 36.4553C143.43 51.7784 134.169 59.6083 119.099 59.6083H105.628V14.0601ZM112.111 53.8832H118.93C130.128 53.8832 136.358 48.4949 136.358 36.7079C136.358 26.0996 129.118 19.7852 119.688 19.7852H112.027V53.8832H112.111Z"
		fill="white" />
	<path d="M158.585 18.8589H151.682V11.9551H158.585V18.8589ZM152.018 26.352H158.164V59.6923H152.018V26.352Z"
		fill="white" />
	<path
		d="M169.615 14.0601H183.086C196.641 14.0601 207.418 22.3951 207.418 36.4553C207.418 51.7784 198.157 59.6083 183.086 59.6083H169.615V14.0601ZM176.182 53.8832H183.002C194.199 53.8832 200.43 48.4949 200.43 36.7079C200.43 26.0996 193.189 19.7852 183.76 19.7852H176.098V53.8832H176.182Z"
		fill="white" />
	<path d="M222.572 18.8589H215.668V11.9551H222.572V18.8589ZM216.089 26.352H222.235V59.6923H216.089V26.352Z"
		fill="white" />
	<path fill-rule="evenodd" clip-rule="evenodd"
		d="M45.0099 55.9039C60.1646 55.3988 72.1199 43.3592 72.2883 28.4571V15.5756H88.9585V29.8042C88.6217 52.9572 68.4997 71.1428 45.0099 71.648C21.0992 71.4796 0.80873 53.1256 0.556152 29.8042V4.29382C0.556152 1.68385 2.24001 0 4.76579 0H72.2883V15.5756H19.3311C17.984 15.5756 17.1421 16.4176 17.1421 17.7646V28.2045C17.3105 43.275 29.5184 55.7356 45.0099 55.9039Z"
		fill="#FC9153" />
</svg>