<svg width="209" height="73" viewBox="0 0 209 73" fill="none" xmlns="http://www.w3.org/2000/svg">
	<path
		d="M12.0046 52.109C12.8863 54.4661 14.107 56.4814 15.6668 58.1551C17.2267 59.8289 19.0747 61.1098 21.2108 61.998C23.3472 62.8862 25.6699 63.3302 28.1792 63.3302C30.6207 63.3302 32.9095 62.869 35.0458 61.9465C37.1821 61.0241 39.047 59.7262 40.6407 58.0526C42.2343 56.3787 43.4721 54.3806 44.3538 52.0577C45.2354 49.7349 45.6762 47.1391 45.6762 44.2696V-0.000244141H56.3574V71.7331H45.7779V65.0721C43.4043 67.5997 40.6067 69.5468 37.3854 70.9134C34.1639 72.2796 30.6885 72.9628 26.9585 72.9628C23.1606 72.9628 19.6172 72.2966 16.3279 70.9644C13.0389 69.6322 10.1904 67.7366 7.78304 65.2771C5.37569 62.8175 3.4766 59.8632 2.08644 56.4129C0.696057 52.9629 0.000976562 49.1202 0.000976562 44.8843V-0.000244141H10.6822V44.2696C10.6822 47.1391 11.1229 49.7519 12.0046 52.109Z"
		fill="white" />
	<path
		d="M74.7684 -0.000244141V26.1311C77.142 23.74 79.8888 21.8444 83.0083 20.4438C86.1278 19.0431 89.5188 18.3429 93.1808 18.3429C96.9788 18.3429 100.539 19.0601 103.862 20.4948C107.185 21.9294 110.067 23.8766 112.509 26.3361C114.95 28.7957 116.883 31.699 118.307 35.0465C119.731 38.3942 120.443 41.9467 120.443 45.7042C120.443 49.4615 119.731 52.9969 118.307 56.3102C116.883 59.6237 114.95 62.5102 112.509 64.9693C110.067 67.4289 107.185 69.376 103.862 70.8107C100.539 72.2453 96.9786 72.9625 93.1808 72.9625C89.5186 72.9625 86.111 72.2623 82.9574 70.8617C79.8039 69.4613 77.0403 67.5654 74.6667 65.1743V71.7329H64.4941V-0.000244141H74.7684ZM75.9382 52.775C76.8536 54.9613 78.1254 56.8741 79.753 58.5138C81.3807 60.1534 83.2795 61.4515 85.4496 62.408C87.62 63.3644 89.9596 63.8426 92.4689 63.8426C94.9104 63.8426 97.216 63.3644 99.3861 62.408C101.556 61.4515 103.438 60.1536 105.032 58.5138C106.626 56.8744 107.897 54.9613 108.847 52.775C109.796 50.5889 110.271 48.232 110.271 45.7042C110.271 43.1764 109.796 40.8023 108.847 38.582C107.897 36.3616 106.626 34.4318 105.032 32.7921C103.438 31.1527 101.556 29.8716 99.3861 28.9494C97.2158 28.0272 94.9102 27.5658 92.4689 27.5658C90.0275 27.5658 87.7217 28.027 85.5516 28.9494C83.3815 29.8718 81.4826 31.1527 79.8548 32.7921C78.2274 34.4318 76.9387 36.3616 75.9893 38.582C75.0399 40.8023 74.5652 43.1764 74.5652 45.7042C74.5649 48.232 75.0228 50.5889 75.9382 52.775Z"
		fill="white" />
	<path
		d="M126.241 35.1491C127.597 31.8699 129.463 28.9836 131.836 26.49C134.209 23.9964 137.024 22.0323 140.279 20.5977C143.535 19.163 147.061 18.4458 150.859 18.4458C154.589 18.4458 158.048 19.129 161.235 20.4952C164.422 21.8616 167.169 23.7574 169.475 26.1827C171.781 28.6078 173.578 31.4774 174.866 34.7906C176.155 38.1041 176.799 41.7079 176.799 45.6021V48.9838H134.583C134.922 51.1017 135.6 53.0658 136.617 54.8759C137.635 56.6863 138.906 58.2577 140.432 59.5898C141.958 60.9222 143.687 61.9641 145.62 62.7154C147.553 63.4668 149.604 63.8428 151.775 63.8428C157.946 63.8428 162.931 61.2807 166.728 56.1569L174.154 61.6905C171.577 65.1747 168.39 67.9075 164.592 69.8886C160.794 71.8697 156.522 72.8604 151.775 72.8604C147.909 72.8604 144.298 72.177 140.941 70.8108C137.584 69.4446 134.668 67.5315 132.193 65.072C129.717 62.6124 127.768 59.7261 126.343 56.4129C124.919 53.0996 124.207 49.4956 124.207 45.6016C124.207 41.9126 124.885 38.4284 126.241 35.1491ZM140.534 31.1012C137.651 33.5265 135.736 36.7545 134.786 40.7852H166.423C165.542 36.7545 163.66 33.5265 160.777 31.1012C157.895 28.6761 154.521 27.4634 150.656 27.4634C146.79 27.4634 143.416 28.6761 140.534 31.1012Z"
		fill="white" />
	<path
		d="M196.027 32.2798C193.857 34.6709 192.772 37.9159 192.772 42.0151V71.7335H182.497V19.4705H192.67V25.9265C193.958 23.8087 195.637 22.1348 197.705 20.9051C199.773 19.6752 202.232 19.0603 205.08 19.0603H208.641V28.6931H204.368C200.977 28.6933 198.197 29.8888 196.027 32.2798Z"
		fill="white" />
</svg>