<svg width="255" height="54" viewBox="0 0 255 54" fill="none" xmlns="http://www.w3.org/2000/svg">
	<path fill-rule="evenodd" clip-rule="evenodd"
		d="M18.5634 4.25818H15.8908C14.8915 4.25818 13.9135 4.4436 12.9587 4.81445C12.002 5.18622 11.1547 5.77603 10.4168 6.58294C9.67709 7.39172 9.08103 8.46139 8.62401 9.79288C8.16792 11.1262 7.93988 12.7745 7.93988 14.7387C7.93988 16.6181 8.14568 18.189 8.55912 19.4563C8.97164 20.7235 9.53711 21.7484 10.2537 22.5348C10.9712 23.3203 11.8176 23.8775 12.7955 24.2045C13.7735 24.5325 14.8044 24.6965 15.8908 24.6965H18.5634V4.25818ZM14.3919 28.8895L6.44091 46.8381H0.640625L9.37396 27.6446C7.33084 26.5964 5.68076 25.0562 4.42096 23.0268C3.16023 20.9955 2.53079 18.2338 2.53079 14.7387C2.53079 12.2937 2.88862 10.1432 3.60612 8.28621C4.3227 6.43106 5.30069 4.89178 6.53825 3.66837C7.77673 2.44589 9.221 1.52903 10.8729 0.91686C12.523 0.30562 14.2621 0 16.0864 0H23.5822V46.8381H18.5634V28.8895H14.3919Z"
		fill="#FF0000" />
	<path fill-rule="evenodd" clip-rule="evenodd"
		d="M132.357 47.2976C128.837 47.2976 126.077 45.8888 124.08 43.0721C122.081 40.2553 121.082 36.0093 121.082 30.3311C121.082 27.7538 121.331 25.4179 121.832 23.3214C122.33 21.2258 123.069 19.4462 124.047 17.9823C125.024 16.5204 126.24 15.3846 127.697 14.5758C129.151 13.7689 130.835 13.3645 132.747 13.3645C134.225 13.3645 135.42 13.5285 136.333 13.8546C137.244 14.1826 138.07 14.5879 138.809 15.0668L138.092 19.9148C137.397 19.3036 136.582 18.7688 135.648 18.3103C134.713 17.851 133.725 17.6218 132.682 17.6218C130.858 17.6218 129.359 18.6486 128.185 20.7012C127.013 22.7539 126.426 25.8763 126.426 30.0692C126.426 34.2184 126.914 37.4172 127.892 39.6665C128.869 41.9157 130.402 43.0394 132.487 43.0394C133.746 43.0394 134.833 42.8326 135.746 42.417C136.658 42.0024 137.417 41.5328 138.026 41.0091L139.2 44.8079C138.33 45.5515 137.352 46.1516 136.267 46.61C135.18 47.0684 133.877 47.2976 132.357 47.2976ZM106.222 30.3963V46.8392H101.138V13.8229H106.222V29.0862L114.108 13.8229H119.256L111.11 29.3481L120.43 46.8392H114.89L106.222 30.3963ZM86.8649 17.5565C85.301 17.5565 84.1932 18.4408 83.5415 20.2102C82.8898 21.9787 82.4764 24.3482 82.3031 27.3177H90.7101C90.7101 25.921 90.6452 24.6212 90.5145 23.4192C90.3847 22.2191 90.178 21.182 89.8962 20.308C89.6125 19.435 89.2213 18.7585 88.7226 18.2768C88.2229 17.7969 87.6037 17.5565 86.8649 17.5565ZM95.9894 44.6113C94.9465 45.4425 93.7507 46.0966 92.4046 46.5774C91.0577 47.0572 89.5587 47.2976 87.9077 47.2976C84.5195 47.2976 81.847 45.9773 79.8919 43.3339C77.9359 40.6923 76.9589 36.8162 76.9589 31.7073C76.9589 29.0434 77.1433 26.5965 77.5123 24.3696C77.8812 22.1427 78.468 20.2102 79.2727 18.5722C80.0764 16.9341 81.1072 15.6567 82.3679 14.7398C83.6277 13.8229 85.1267 13.3645 86.8649 13.3645C88.2109 13.3645 89.4493 13.6375 90.5803 14.1826C91.7094 14.7295 92.6661 15.6138 93.4475 16.8363C94.2299 18.0588 94.8381 19.6428 95.2728 21.5855C95.7067 23.5292 95.9245 25.8986 95.9245 28.693V31.5107H82.2382C82.2382 35.2666 82.748 38.1048 83.7696 40.0261C84.7893 41.9484 86.3216 42.9081 88.3638 42.9081C89.7979 42.9081 91.0688 42.6584 92.1766 42.1543C93.2853 41.653 94.165 41.1619 94.8167 40.6811L95.9894 44.6113ZM66.2705 17.9497H60.6V18.5395C60.6 20.2866 60.5675 22.1977 60.5026 24.2708C60.4368 26.3468 60.2959 28.4536 60.079 30.5929C59.8602 32.7332 59.5571 34.8408 59.1659 36.914C58.7756 38.9891 58.2315 40.9001 57.5371 42.6462H66.2705V17.9497ZM73.896 53.3243H69.3333V46.8392H55.2558V53.3243H50.694V42.6462H52.7139C53.4527 40.9001 54.0386 38.9686 54.4734 36.8488C54.9081 34.7318 55.2446 32.5477 55.4838 30.2985C55.722 28.0492 55.875 25.757 55.9399 23.4192C56.0057 21.0833 56.0382 18.8237 56.0382 16.6397V13.8229H71.2893V42.6462H73.896V53.3243ZM47.7609 13.8229V46.8392H42.743V32.0343H35.1823V46.8392H30.0986V13.8229H35.1823V27.8414H42.743V13.8229H47.7609Z"
		fill="white" />
	<path fill-rule="evenodd" clip-rule="evenodd"
		d="M161.879 2.68653V46.8393H158.621V2.68653H149.431V0.000244141H171.133V2.68653H161.879Z" fill="white" />
	<path fill-rule="evenodd" clip-rule="evenodd"
		d="M177.587 45.0044C179.107 45.0044 180.399 44.3717 181.465 43.1045C182.529 41.8392 183.365 40.3101 183.974 38.5193V29.414H180.454C177.718 29.414 175.697 30.0691 174.393 31.3791C173.09 32.6892 172.438 34.7847 172.438 37.6676C172.438 40.0259 172.905 41.8392 173.84 43.1045C174.773 44.3717 176.023 45.0044 177.587 45.0044ZM184.886 46.839C184.756 46.403 184.615 45.8458 184.463 45.1684C184.31 44.4919 184.191 43.5629 184.104 42.3833C183.322 43.9561 182.344 45.201 181.172 46.1178C179.998 47.0356 178.586 47.4941 176.935 47.4941C174.719 47.4941 172.916 46.6536 171.525 44.9718C170.135 43.2909 169.44 40.9437 169.44 37.9295C169.44 34.3915 170.374 31.7174 172.243 29.9051C174.111 28.0937 176.826 27.1862 180.389 27.1862H183.974V23.0594C183.974 20.5268 183.518 18.6931 182.606 17.5564C181.693 16.4215 180.324 15.8531 178.499 15.8531C177.108 15.8531 175.805 16.1708 174.589 16.8026C173.372 17.4362 172.373 18.3204 171.591 19.4562L170.744 16.5081C171.395 15.635 172.383 14.8598 173.709 14.1824C175.034 13.506 176.63 13.1677 178.499 13.1677C181.237 13.1677 183.333 13.943 184.789 15.4925C186.243 17.0439 186.972 19.4562 186.972 22.7323V40.7471C186.972 41.882 187.037 43.029 187.168 44.1854C187.298 45.3435 187.471 46.2269 187.689 46.839H184.886Z"
		fill="white" />
	<path fill-rule="evenodd" clip-rule="evenodd"
		d="M197.074 46.8393H194.01V13.823H197.074V29.3491L208.087 13.823H211.086L200.267 29.1524L211.868 46.8393H208.478L197.074 29.7413V46.8393Z"
		fill="white" />
	<path fill-rule="evenodd" clip-rule="evenodd"
		d="M224.12 44.8078C225.163 44.8078 226.086 44.6335 226.89 44.2841C227.694 43.9347 228.378 43.5201 228.944 43.0393C229.595 42.5594 230.159 41.9696 230.638 41.2708L231.615 43.8248C231.137 44.5245 230.529 45.1358 229.791 45.6594C229.182 46.1411 228.389 46.567 227.412 46.9369C226.434 47.3077 225.315 47.4941 224.055 47.4941C220.752 47.4941 218.199 45.9976 216.397 43.0057C214.594 40.0148 213.692 35.8125 213.692 30.3961C213.692 24.9378 214.582 20.7011 216.365 17.6877C218.146 14.6735 220.731 13.1677 224.12 13.1677C225.815 13.1677 227.249 13.4622 228.422 14.051C229.595 14.6409 230.55 15.3732 231.29 16.2463L230.442 19.5215C229.703 18.517 228.813 17.6449 227.77 16.9013C226.728 16.1596 225.511 15.7869 224.12 15.7869C221.6 15.7869 219.742 17.0551 218.548 19.5876C217.352 22.1202 216.756 25.7242 216.756 30.3961C216.756 34.9385 217.342 38.4764 218.516 41.009C219.688 43.5424 221.556 44.8078 224.12 44.8078Z"
		fill="white" />
	<path fill-rule="evenodd" clip-rule="evenodd"
		d="M251.623 23.8451C251.623 22.972 251.644 22.1754 251.688 21.4551C251.731 20.7339 251.796 20.0239 251.883 19.3251H251.688C251.47 20.0686 251.21 20.7777 250.906 21.4551C250.601 22.1316 250.276 22.8416 249.928 23.5833L239.24 46.8393H236.633V13.823H239.501V36.751C239.501 37.625 239.478 38.4319 239.436 39.1745C239.392 39.9172 239.326 40.6598 239.24 41.4024H239.436C239.653 40.6598 239.913 39.9283 240.217 39.2072C240.521 38.4869 240.847 37.7564 241.195 37.0128L251.883 13.823H254.556V46.8393H251.623V23.8451Z"
		fill="white" />
</svg>