<svg width="382" height="64" viewBox="0 0 382 64" fill="none" xmlns="http://www.w3.org/2000/svg">
	<path
		d="M24.5009 18.6508C30.3034 18.6508 35.2608 20.7915 39.3732 25.0729C43.4856 29.3543 45.5418 34.6216 45.5418 40.8747C45.5418 47.0714 43.4856 52.3387 39.3732 56.6764C35.2608 60.9578 30.3034 63.0985 24.5009 63.0985C18.0788 63.0985 13.1496 60.7043 9.71321 55.9159V62H0.58707V2.84909H9.71321V25.7489C13.1496 21.0169 18.0788 18.6508 24.5009 18.6508ZM13.5158 50.5923C16.0508 53.1274 19.2337 54.3949 23.0644 54.3949C26.8951 54.3949 30.078 53.1274 32.6131 50.5923C35.1481 48.001 36.4156 44.7617 36.4156 40.8747C36.4156 36.9876 35.1481 33.7766 32.6131 31.2415C30.078 28.6502 26.8951 27.3545 23.0644 27.3545C19.2337 27.3545 16.0508 28.6502 13.5158 31.2415C10.9807 33.7766 9.71321 36.9876 9.71321 40.8747C9.71321 44.7617 10.9807 48.001 13.5158 50.5923ZM70.3752 63.0985C64.1785 63.0985 58.9112 60.9578 54.5735 56.6764C50.2358 52.395 48.0669 47.1278 48.0669 40.8747C48.0669 34.6216 50.2358 29.3543 54.5735 25.0729C58.9112 20.7915 64.1785 18.6508 70.3752 18.6508C76.6283 18.6508 81.8956 20.7915 86.177 25.0729C90.5147 29.3543 92.6836 34.6216 92.6836 40.8747C92.6836 47.1278 90.5147 52.395 86.177 56.6764C81.8956 60.9578 76.6283 63.0985 70.3752 63.0985ZM60.9956 50.4233C63.5306 52.9584 66.6572 54.2259 70.3752 54.2259C74.0933 54.2259 77.2198 52.9584 79.7549 50.4233C82.2899 47.8883 83.5574 44.7054 83.5574 40.8747C83.5574 37.044 82.2899 33.8611 79.7549 31.326C77.2198 28.791 74.0933 27.5235 70.3752 27.5235C66.6572 27.5235 63.5306 28.791 60.9956 31.326C58.4606 33.8611 57.193 37.044 57.193 40.8747C57.193 44.7054 58.4606 47.8883 60.9956 50.4233ZM97.5556 62V0.314057H106.682V62H97.5556ZM137.474 28.5375H126.996V48.8178C126.996 50.5642 127.39 51.8317 128.179 52.6204C128.967 53.3527 130.122 53.7752 131.643 53.8879C133.221 53.9442 135.164 53.916 137.474 53.8034V62C130.488 62.845 125.475 62.2535 122.433 60.2255C119.391 58.1411 117.87 54.3385 117.87 48.8178V28.5375H110.095V19.7494H117.87V10.6232L126.996 7.91917V19.7494H137.474V28.5375ZM171.261 19.7494H180.387V62H171.261V56.5919C168.5 60.9297 164.134 63.0985 158.163 63.0985C153.318 63.0985 149.403 61.5493 146.417 58.4509C143.431 55.3526 141.939 51.0993 141.939 45.6913V19.7494H151.065V44.7617C151.065 47.9165 151.91 50.3388 153.6 52.0288C155.29 53.7189 157.599 54.5639 160.529 54.5639C163.74 54.5639 166.331 53.578 168.303 51.6063C170.275 49.5783 171.261 46.5081 171.261 42.3957V19.7494ZM221.141 19.7494H230.267V62H221.141V55.9159C217.704 60.7043 212.775 63.0985 206.353 63.0985C200.551 63.0985 195.593 60.9578 191.481 56.6764C187.368 52.3387 185.312 47.0714 185.312 40.8747C185.312 34.6216 187.368 29.3543 191.481 25.0729C195.593 20.7915 200.551 18.6508 206.353 18.6508C212.775 18.6508 217.704 21.0169 221.141 25.7489V19.7494ZM198.241 50.5923C200.776 53.1274 203.959 54.3949 207.79 54.3949C211.62 54.3949 214.803 53.1274 217.338 50.5923C219.873 48.001 221.141 44.7617 221.141 40.8747C221.141 36.9876 219.873 33.7766 217.338 31.2415C214.803 28.6502 211.62 27.3545 207.79 27.3545C203.959 27.3545 200.776 28.6502 198.241 31.2415C195.706 33.7766 194.438 36.9876 194.438 40.8747C194.438 44.7617 195.706 48.001 198.241 50.5923ZM247.495 61.155C246.256 62.3943 244.763 63.014 243.017 63.014C241.27 63.014 239.777 62.3943 238.538 61.155C237.299 59.9156 236.679 58.4228 236.679 56.6764C236.679 54.9301 237.271 53.4372 238.454 52.1979C239.693 50.9585 241.214 50.3388 243.017 50.3388C244.763 50.3388 246.256 50.9585 247.495 52.1979C248.735 53.4372 249.354 54.9301 249.354 56.6764C249.354 58.4228 248.735 59.9156 247.495 61.155ZM264.301 11.7217C263.174 12.8484 261.822 13.4118 260.245 13.4118C258.668 13.4118 257.287 12.8484 256.104 11.7217C254.978 10.5387 254.414 9.15852 254.414 7.58117C254.414 6.00381 254.978 4.65179 256.104 3.52511C257.231 2.34209 258.611 1.75058 260.245 1.75058C261.879 1.75058 263.259 2.34209 264.386 3.52511C265.512 4.65179 266.076 6.00381 266.076 7.58117C266.076 9.15852 265.484 10.5387 264.301 11.7217ZM255.682 62V19.7494H264.808V62H255.682ZM294.248 18.6508C299.093 18.6508 303.008 20.2 305.994 23.2984C308.98 26.3968 310.472 30.65 310.472 36.0581V62H301.346V36.9876C301.346 33.8329 300.501 31.4105 298.811 29.7205C297.121 28.0305 294.812 27.1855 291.882 27.1855C288.671 27.1855 286.08 28.1995 284.108 30.2275C282.136 32.1992 281.15 35.2413 281.15 39.3537V62H272.024V19.7494H281.15V25.1574C283.911 20.8197 288.277 18.6508 294.248 18.6508ZM339.058 10.5387C332.411 9.91904 329.087 12.7076 329.087 18.9043V19.7494H339.058V28.5375H329.087V62H319.961V28.5375H313.539V19.7494H319.961V18.9043C319.961 13.1019 321.567 8.70785 324.778 5.72214C328.045 2.68009 332.805 1.35624 339.058 1.75058V10.5387ZM358.98 63.0985C352.783 63.0985 347.516 60.9578 343.178 56.6764C338.841 52.395 336.672 47.1278 336.672 40.8747C336.672 34.6216 338.841 29.3543 343.178 25.0729C347.516 20.7915 352.783 18.6508 358.98 18.6508C365.233 18.6508 370.5 20.7915 374.782 25.0729C379.12 29.3543 381.288 34.6216 381.288 40.8747C381.288 47.1278 379.12 52.395 374.782 56.6764C370.5 60.9578 365.233 63.0985 358.98 63.0985ZM349.601 50.4233C352.136 52.9584 355.262 54.2259 358.98 54.2259C362.698 54.2259 365.825 52.9584 368.36 50.4233C370.895 47.8883 372.162 44.7054 372.162 40.8747C372.162 37.044 370.895 33.8611 368.36 31.326C365.825 28.791 362.698 27.5235 358.98 27.5235C355.262 27.5235 352.136 28.791 349.601 31.326C347.065 33.8611 345.798 37.044 345.798 40.8747C345.798 44.7054 347.065 47.8883 349.601 50.4233Z"
		fill="#34D186" />
</svg>