<svg width="253" height="107" viewBox="0 0 253 107" fill="none" xmlns="http://www.w3.org/2000/svg">
	<g clip-path="url(#clip0_1266_816)">
		<path
			d="M9.88052 66.3038C10.6062 68.2438 11.6108 69.9025 12.8947 71.28C14.1785 72.6576 15.6995 73.7119 17.4576 74.4429C19.2159 75.1739 21.1276 75.5393 23.1929 75.5393C25.2024 75.5393 27.0862 75.1597 28.8445 74.4005C30.6028 73.6413 32.1376 72.5731 33.4493 71.1956C34.7609 69.8179 35.7797 68.1734 36.5053 66.2616C37.231 64.3498 37.5937 62.2133 37.5937 59.8516V23.4155H46.3849V82.4553H37.6775V76.973C35.7239 79.0533 33.4213 80.6559 30.77 81.7807C28.1186 82.9051 25.2582 83.4674 22.1883 83.4674C19.0624 83.4674 16.146 82.9191 13.4388 81.8226C10.7318 80.7262 8.38732 79.166 6.40597 77.1417C4.42461 75.1174 2.86157 72.6858 1.71741 69.8461C0.573059 67.0066 0.000976562 63.8439 0.000976562 60.3575V23.4155H8.79211V59.8516C8.79211 62.2133 9.15485 64.3638 9.88052 66.3038Z"
			fill="white" />
		<path
			d="M61.5377 23.4155V44.9228C63.4913 42.9549 65.752 41.3947 68.3195 40.2419C70.8871 39.0891 73.678 38.5128 76.692 38.5128C79.8179 38.5128 82.748 39.1031 85.4831 40.2839C88.2181 41.4647 90.5902 43.0672 92.5997 45.0915C94.6092 47.1159 96.2001 49.5054 97.3722 52.2606C98.5443 55.0159 99.1303 57.9398 99.1303 61.0324C99.1303 64.1247 98.5443 67.0346 97.3722 69.7616C96.2001 72.4887 94.6092 74.8645 92.5997 76.8884C90.5902 78.9128 88.2181 80.5153 85.4831 81.6961C82.748 82.8769 79.8177 83.4672 76.692 83.4672C73.6778 83.4672 70.8732 82.8909 68.2777 81.7381C65.6822 80.5855 63.4076 79.0251 61.454 77.0572V82.4551H53.0815V23.4155H61.5377ZM62.5005 66.8519C63.254 68.6513 64.3007 70.2257 65.6403 71.5752C66.9799 72.9247 68.5428 73.9931 70.3289 74.7803C72.1151 75.5675 74.0407 75.9611 76.106 75.9611C78.1155 75.9611 80.0131 75.5675 81.7992 74.7803C83.5853 73.9931 85.1341 72.9249 86.4461 71.5752C87.7578 70.2259 88.8043 68.6513 89.5857 66.8519C90.3671 65.0526 90.7579 63.1129 90.7579 61.0324C90.7579 58.9519 90.3671 56.9979 89.5857 55.1704C88.8043 53.343 87.7578 51.7546 86.4461 50.4051C85.1343 49.0558 83.5855 48.0014 81.7992 47.2424C80.013 46.4834 78.1153 46.1036 76.106 46.1036C74.0967 46.1036 72.1989 46.4832 70.4128 47.2424C68.6267 48.0016 67.0639 49.0558 65.7241 50.4051C64.3846 51.7546 63.324 53.343 62.5426 55.1704C61.7612 56.9979 61.3704 58.9519 61.3704 61.0324C61.3703 63.1129 61.7471 65.0526 62.5005 66.8519Z"
			fill="white" />
		<path
			d="M103.902 52.345C105.018 49.646 106.554 47.2705 108.507 45.2181C110.46 43.1658 112.777 41.5493 115.456 40.3685C118.136 39.1877 121.038 38.5974 124.164 38.5974C127.234 38.5974 130.08 39.1597 132.704 40.2841C135.327 41.4087 137.588 42.9691 139.485 44.9653C141.383 46.9612 142.863 49.323 143.923 52.0499C144.983 54.7771 145.514 57.7432 145.514 60.9483V63.7316H110.768C111.047 65.4747 111.605 67.0912 112.442 68.5811C113.28 70.0711 114.326 71.3644 115.582 72.4608C116.838 73.5574 118.261 74.415 119.852 75.0333C121.443 75.6517 123.131 75.9612 124.917 75.9612C129.997 75.9612 134.099 73.8525 137.225 69.6353L143.337 74.1897C141.216 77.0574 138.593 79.3066 135.467 80.9372C132.341 82.5677 128.825 83.3831 124.918 83.3831C121.736 83.3831 118.764 82.8206 116.001 81.6962C113.238 80.5718 110.838 78.9972 108.8 76.9729C106.763 74.9485 105.158 72.573 103.986 69.846C102.814 67.119 102.228 64.1528 102.228 60.9479C102.228 57.9117 102.786 55.044 103.902 52.345ZM115.666 49.0134C113.293 51.0095 111.717 53.6663 110.935 56.9838H136.974C136.248 53.6663 134.699 51.0095 132.327 49.0134C129.955 47.0174 127.178 46.0193 123.996 46.0193C120.815 46.0193 118.038 47.0174 115.666 49.0134Z"
			fill="white" />
		<path
			d="M161.339 49.9835C159.553 51.9515 158.66 54.6223 158.66 57.9961V82.4557H150.204V39.4409H158.576V44.7545C159.637 43.0114 161.018 41.6337 162.721 40.6217C164.423 39.6094 166.446 39.1033 168.791 39.1033H171.721V47.0315H168.205C165.414 47.0317 163.125 48.0156 161.339 49.9835Z"
			fill="white" />
	</g>
	<path
		d="M175.993 82V20.1548H185.143V82H175.993ZM201.019 31.5919C199.89 32.7215 198.534 33.2863 196.953 33.2863C195.371 33.2863 193.988 32.7215 192.802 31.5919C191.672 30.4059 191.107 29.0221 191.107 27.4407C191.107 25.8593 191.672 24.5038 192.802 23.3742C193.931 22.1881 195.315 21.5951 196.953 21.5951C198.591 21.5951 199.974 22.1881 201.104 23.3742C202.234 24.5038 202.798 25.8593 202.798 27.4407C202.798 29.0221 202.205 30.4059 201.019 31.5919ZM192.378 82V39.6403H201.528V82H192.378ZM231.044 38.5389C235.901 38.5389 239.826 40.0921 242.82 43.1985C245.813 46.3049 247.31 50.5691 247.31 55.9911V82H238.16V56.9231C238.16 53.7602 237.313 51.3316 235.619 49.6372C233.924 47.9428 231.609 47.0956 228.672 47.0956C225.452 47.0956 222.854 48.1122 220.877 50.1455C218.901 52.1223 217.912 55.1722 217.912 59.2952V82H208.763V39.6403H217.912V45.0623C220.68 40.7134 225.057 38.5389 231.044 38.5389Z"
		fill="white" />
	<defs>
		<clipPath id="clip0_1266_816">
			<rect width="171.719" height="60.0518" fill="white" transform="translate(0 23.4158)" />
		</clipPath>
	</defs>
</svg>