<svg width="167" height="130" viewBox="0 0 167 130" fill="none" xmlns="http://www.w3.org/2000/svg">
	<path
		d="M19.0503 114.05C15.8782 114.05 13.1522 113.307 10.8723 111.82C8.62548 110.3 7.05598 108.218 6.16384 105.575L9.13763 103.84C9.76543 105.988 10.9219 107.673 12.6071 108.896C14.2922 110.085 16.4565 110.68 19.0998 110.68C21.6771 110.68 23.6762 110.118 25.097 108.995C26.5508 107.838 27.2778 106.318 27.2778 104.435C27.2778 102.618 26.6169 101.246 25.2952 100.321C23.9735 99.3959 21.7928 98.4377 18.7529 97.4464C15.1513 96.2569 12.7723 95.2987 11.6158 94.5718C8.97242 92.9857 7.65073 90.6893 7.65073 87.6825C7.65073 84.7417 8.67504 82.4288 10.7237 80.7436C12.7723 79.0254 15.3 78.1663 18.3068 78.1663C21.0163 78.1663 23.3623 78.8767 25.3448 80.2976C27.3273 81.6853 28.7977 83.4696 29.7559 85.6504L26.8317 87.286C25.2457 83.4531 22.404 81.5366 18.3068 81.5366C16.1591 81.5366 14.4244 82.0653 13.1027 83.1227C11.781 84.18 11.1202 85.6504 11.1202 87.5338C11.1202 89.252 11.7149 90.5406 12.9044 91.3997C14.0939 92.2588 16.06 93.1344 18.8024 94.0266C20.058 94.4561 20.9502 94.77 21.4789 94.9683C22.0406 95.1335 22.8336 95.4308 23.8579 95.8604C24.9152 96.2569 25.6917 96.6204 26.1874 96.9508C26.683 97.2482 27.2778 97.6777 27.9716 98.2394C28.6986 98.7681 29.2107 99.3133 29.5081 99.875C29.8385 100.404 30.1194 101.065 30.3507 101.858C30.615 102.618 30.7472 103.444 30.7472 104.336C30.7472 107.276 29.6733 109.639 27.5256 111.423C25.3778 113.174 22.5527 114.05 19.0503 114.05ZM47.8054 88.079C50.8123 88.079 53.1748 89.0042 54.893 90.8545C56.6442 92.6718 57.5198 95.1335 57.5198 98.2394V113.455H54.2486V98.2394C54.2486 96.0256 53.6539 94.3074 52.4644 93.0849C51.3079 91.8623 49.6558 91.251 47.508 91.251C45.129 91.251 43.196 92.011 41.7092 93.5309C40.2223 95.0178 39.4788 97.3308 39.4788 100.47V113.455H36.2076V78.7611H39.4788V92.5397C41.3292 89.5659 44.1047 88.079 47.8054 88.079ZM81.2912 88.6737H84.5623V113.455H81.2912V109.589C79.4408 112.563 76.6653 114.05 72.9645 114.05C69.9577 114.05 67.5787 113.141 65.8274 111.324C64.1093 109.474 63.2502 106.996 63.2502 103.89V88.6737H66.5213V103.89C66.5213 106.103 67.0996 107.822 68.256 109.044C69.4456 110.267 71.1142 110.878 73.2619 110.878C75.641 110.878 77.5739 110.135 79.0608 108.648C80.5477 107.128 81.2912 104.798 81.2912 101.659V88.6737ZM104.616 91.8458H97.4793V106.863C97.4793 108.218 97.7437 109.193 98.2723 109.788C98.801 110.349 99.594 110.647 100.651 110.68C101.709 110.68 103.03 110.647 104.616 110.581V113.455C101.147 113.984 98.5367 113.736 96.7855 112.712C95.0673 111.688 94.2082 109.738 94.2082 106.863V91.8458H89.004V88.6737H94.2082V82.7262L97.4793 81.7349V88.6737H104.616V91.8458ZM121.702 91.8458H114.565V106.863C114.565 108.218 114.829 109.193 115.358 109.788C115.887 110.349 116.68 110.647 117.737 110.68C118.794 110.68 120.116 110.647 121.702 110.581V113.455C118.233 113.984 115.622 113.736 113.871 112.712C112.153 111.688 111.294 109.738 111.294 106.863V91.8458H106.09V88.6737H111.294V82.7262L114.565 81.7349V88.6737H121.702V91.8458ZM127.154 113.455V77.2742H130.425V113.455H127.154ZM148.816 88.079C152.484 88.079 155.441 89.3841 157.688 91.9945C159.968 94.5718 161.108 97.6281 161.108 101.164C161.108 101.527 161.075 102.039 161.008 102.7H139.25C139.581 105.211 140.638 107.21 142.422 108.697C144.24 110.151 146.47 110.878 149.113 110.878C150.997 110.878 152.616 110.498 153.971 109.738C155.358 108.945 156.399 107.921 157.093 106.665L159.968 108.35C158.877 110.102 157.39 111.489 155.507 112.514C153.624 113.538 151.476 114.05 149.064 114.05C145.165 114.05 141.993 112.828 139.548 110.382C137.103 107.937 135.88 104.831 135.88 101.065C135.88 97.3638 137.086 94.2744 139.498 91.7962C141.91 89.3181 145.016 88.079 148.816 88.079ZM148.816 91.251C146.239 91.251 144.074 92.0275 142.323 93.5805C140.605 95.1004 139.581 97.083 139.25 99.5281H157.737C157.407 96.9177 156.399 94.8857 154.714 93.4318C153.029 91.9779 151.063 91.251 148.816 91.251Z"
		fill="white" />
	<g clip-path="url(#clip0_1266_808)">
		<path
			d="M12.2779 40.9537C12.9708 42.8062 13.9302 44.3901 15.1561 45.7054C16.3821 47.0209 17.8344 48.0276 19.5132 48.7257C21.1922 49.4237 23.0177 49.7726 24.9898 49.7726C26.9087 49.7726 28.7074 49.4102 30.3864 48.6852C32.0654 47.9603 33.5311 46.9402 34.7835 45.6249C36.036 44.3093 37.0088 42.739 37.7017 40.9134C38.3947 39.0879 38.741 37.0477 38.741 34.7925V0H47.1356V56.3767H38.821V51.1416C36.9556 53.1281 34.7568 54.6584 32.2252 55.7324C29.6933 56.8061 26.9619 57.3431 24.0305 57.3431C21.0456 57.3431 18.2608 56.8195 15.6757 55.7725C13.0908 54.7256 10.8521 53.2357 8.96007 51.3027C7.06809 49.3697 5.57556 47.0478 4.483 44.3362C3.39027 41.6248 2.84399 38.6047 2.84399 35.2756V0H11.2386V34.7925C11.2386 37.0477 11.585 39.1012 12.2779 40.9537Z"
			fill="white" />
		<path
			d="M61.6045 0V20.5372C63.47 18.658 65.6287 17.1682 68.0804 16.0674C70.5321 14.9666 73.1972 14.4163 76.0752 14.4163C79.0601 14.4163 81.858 14.9799 84.4698 16.1075C87.0814 17.235 89.3465 18.7653 91.2654 20.6983C93.1842 22.6313 94.7033 24.9131 95.8226 27.5439C96.9419 30.175 97.5014 32.967 97.5014 35.92C97.5014 38.8729 96.9419 41.6516 95.8226 44.2555C94.7033 46.8597 93.1842 49.1282 91.2654 51.0609C89.3465 52.9939 87.0814 54.5242 84.4698 55.6517C81.858 56.7792 79.0599 57.3429 76.0752 57.3429C73.197 57.3429 70.5189 56.7926 68.0405 55.6918C65.562 54.5912 63.39 53.1012 61.5246 51.222V56.3765H53.5298V0H61.6045ZM62.5239 41.4771C63.2434 43.1954 64.2429 44.6987 65.5221 45.9873C66.8012 47.276 68.2936 48.2962 69.9991 49.0479C71.7048 49.7996 73.5436 50.1754 75.5157 50.1754C77.4345 50.1754 79.2466 49.7996 80.9521 49.0479C82.6576 48.2962 84.1365 47.2761 85.3894 45.9873C86.6418 44.6989 87.6412 43.1954 88.3873 41.4771C89.1335 39.759 89.5066 37.9067 89.5066 35.92C89.5066 33.9334 89.1335 32.0676 88.3873 30.3225C87.6412 28.5775 86.6418 27.0608 85.3894 25.7722C84.1367 24.4838 82.6578 23.4769 80.9521 22.7521C79.2464 22.0273 77.4344 21.6647 75.5157 21.6647C73.597 21.6647 71.7848 22.0272 70.0793 22.7521C68.3737 23.4771 66.8814 24.4838 65.602 25.7722C64.323 27.0608 63.3102 28.5775 62.5641 30.3225C61.8179 32.0676 61.4448 33.9334 61.4448 35.92C61.4446 37.9067 61.8044 39.759 62.5239 41.4771Z"
			fill="white" />
		<path
			d="M102.059 27.6248C103.125 25.0476 104.591 22.7792 106.456 20.8194C108.321 18.8597 110.533 17.316 113.092 16.1885C115.65 15.061 118.422 14.4973 121.406 14.4973C124.338 14.4973 127.056 15.0343 129.561 16.108C132.066 17.1818 134.225 18.6718 136.037 20.5779C137.849 22.4839 139.262 24.7391 140.274 27.343C141.287 29.9472 141.793 32.7794 141.793 35.84V38.4978H108.615C108.881 40.1622 109.414 41.7059 110.214 43.1285C111.013 44.5513 112.013 45.7863 113.212 46.8332C114.411 47.8804 115.77 48.6992 117.289 49.2896C118.808 49.8802 120.42 50.1757 122.126 50.1757C126.976 50.1757 130.894 48.1621 133.879 44.1352L139.715 48.4842C137.689 51.2225 135.185 53.3702 132.2 54.9272C129.215 56.4842 125.857 57.2628 122.126 57.2628C119.088 57.2628 116.25 56.7257 113.612 55.652C110.973 54.5783 108.682 53.0748 106.736 51.1418C104.791 49.2087 103.258 46.9403 102.139 44.3364C101.02 41.7324 100.46 38.9 100.46 35.8396C100.46 32.9404 100.993 30.202 102.059 27.6248ZM113.292 24.4434C111.026 26.3495 109.521 28.8865 108.775 32.0543H133.639C132.946 28.8865 131.467 26.3495 129.202 24.4434C126.936 22.5375 124.285 21.5844 121.247 21.5844C118.209 21.5844 115.557 22.5375 113.292 24.4434Z"
			fill="white" />
		<path
			d="M156.904 25.3697C155.199 27.2489 154.346 29.7992 154.346 33.0209V56.3771H146.271V15.3026H154.266V20.3765C155.278 18.7121 156.597 17.3965 158.223 16.4301C159.849 15.4635 161.781 14.9802 164.019 14.9802H166.818V22.5508H163.46C160.795 22.551 158.61 23.4905 156.904 25.3697Z"
			fill="white" />
	</g>
	<defs>
		<clipPath id="clip0_1266_808">
			<rect width="163.973" height="57.3431" fill="white" transform="translate(2.84204)" />
		</clipPath>
	</defs>
</svg>