<svg
		width="24"
		height="20"
		viewBox="0 0 24 20"
		fill="none"
		xmlns="http://www.w3.org/2000/svg"
	>
		<path
			d="M12 7.5999C10.0116 7.5999 8.4 9.21222 8.4 11.1999C8.4 13.1883 10.0116 14.7999 12 14.7999C13.9879 14.7999 15.6 13.1883 15.6 11.1999C15.6 9.21222 13.9879 7.5999 12 7.5999ZM21.6 3.9999H18.72C18.324 3.9999 17.8973 3.6927 17.7722 3.31686L17.0278 1.0827C16.9022 0.707102 16.476 0.399902 16.08 0.399902H7.92C7.524 0.399902 7.09728 0.707102 6.97224 1.08294L6.22776 3.3171C6.10224 3.6927 5.676 3.9999 5.28 3.9999H2.4C1.08 3.9999 0 5.0799 0 6.3999V17.1999C0 18.5199 1.08 19.5999 2.4 19.5999H21.6C22.92 19.5999 24 18.5199 24 17.1999V6.3999C24 5.0799 22.92 3.9999 21.6 3.9999ZM12 17.1999C8.68632 17.1999 6 14.5136 6 11.1999C6 7.88646 8.68632 5.1999 12 5.1999C15.3132 5.1999 18 7.88646 18 11.1999C18 14.5136 15.3132 17.1999 12 17.1999ZM20.76 8.07822C20.2963 8.07822 19.92 7.70238 19.92 7.23822C19.92 6.77454 20.2963 6.39822 20.76 6.39822C21.2242 6.39822 21.6 6.77454 21.6 7.23822C21.6 7.70238 21.2239 8.07822 20.76 8.07822Z"
			fill="#030104"
		/>
	</svg>
