<svg
		width="27"
		height="23"
		viewBox="0 0 27 23"
		fill="none"
		xmlns="http://www.w3.org/2000/svg"
	>
		<path
			d="M26.986 12.6141C25.6453 6.49121 20.4985 2.81211 15 2.2416V1.4375C15 0.642383 14.3297 0 13.5 0C12.6703 0 12 0.642383 12 1.4375V2.2416C6.48285 2.81211 1.38285 6.49121 0.0140966 12.6141C-0.0890284 13.0678 0.412534 13.5709 0.890659 13.1262C3.32816 10.6555 5.9391 10.7723 8.32503 14.7883C8.57347 15.215 9.02347 15.1746 9.24847 14.7883C10.1953 13.198 11.3532 11.5 13.5 11.5C16.2422 11.5 17.6344 14.5906 17.7516 14.7883C17.9766 15.1746 18.4266 15.215 18.675 14.7883C21.0657 10.7678 23.6953 10.6824 26.1094 13.1262C26.5922 13.5754 27.0891 13.0678 26.986 12.6141ZM12 13.5529V19.4062C12 19.8016 11.6625 20.125 11.25 20.125C10.8844 20.125 10.6313 19.8869 10.5422 19.6443C10.2657 18.8941 9.41253 18.5033 8.62972 18.7684C7.84691 19.0334 7.4391 19.8555 7.71566 20.6012C8.24066 22.0342 9.66566 22.9955 11.25 22.9955C13.3172 22.9955 15 21.3828 15 19.4018V13.5484C14.5735 13.1936 14.0719 12.9375 13.5 12.9375C12.9235 12.942 12.45 13.1531 12 13.5529Z"
			fill="black"
		/>
	</svg>
