<svg width="17" height="14" viewBox="0 0 17 14" fill="none" xmlns="http://www.w3.org/2000/svg">
	<g opacity="0.3">
		<path
			d="M13.6876 13.9309C12.3309 13.9144 11.2445 12.8013 11.2611 11.4447C11.2777 10.0882 12.3909 9.00199 13.7476 9.01857C15.1043 9.03515 16.1907 10.1483 16.1741 11.5048C16.1575 12.8613 15.0443 13.9475 13.6876 13.9309Z"
			fill="white" />
		<path
			d="M2.47861 13.9314C1.12192 13.9149 0.0355324 12.8017 0.0521062 11.4452C0.0686799 10.0887 1.18193 9.00248 2.53863 9.01906C3.89533 9.03563 4.98171 10.1487 4.96514 11.5053C4.94856 12.8618 3.83531 13.948 2.47861 13.9314Z"
			fill="white" />
		<path
			d="M7.46226 1.97254C7.31672 2.11698 7.12044 2.19874 6.9154 2.20032L5.58296 6.99784C5.34257 7.86278 5.55772 8.79877 6.17497 9.45088C6.17497 9.45088 6.96786 10.3052 8.15487 10.3065C8.52936 10.3039 8.88761 10.1532 9.15143 9.88743C9.41524 9.62163 9.5632 9.26226 9.56302 8.88776C9.56309 8.36939 9.50518 7.85263 9.39036 7.34713C9.24227 6.76708 9.14565 6.57782 8.96802 6.21391C8.38829 6.13456 8.1645 5.28157 8.59315 4.58696C9.04272 3.85649 10.0282 3.77282 11.2162 4.18852C12.4042 4.60422 13.5142 4.3801 15.0482 4.1178C16.5905 3.85417 16.8318 6.22055 15.7179 6.22055H15.0445C15.8406 6.69459 16.4874 7.38298 16.9109 8.2071C16.9594 8.30044 16.989 8.40242 16.998 8.50722C17.0071 8.61202 16.9954 8.71757 16.9636 8.81785C16.9319 8.91813 16.8807 9.01117 16.8129 9.09164C16.7452 9.17212 16.6623 9.23845 16.5689 9.28686C16.4797 9.33165 16.3789 9.34757 16.2803 9.3324C16.1817 9.31722 16.0902 9.27172 16.0187 9.20219C15.6482 8.8255 15.1904 8.54617 14.6859 8.38905C14.3715 8.29498 14.0455 8.24514 13.7174 8.24096C12.8601 8.24193 12.0382 8.58294 11.432 9.18917C10.8259 9.79539 10.485 10.6173 10.4841 11.4746C10.4841 11.541 10.4861 11.608 10.49 11.6755C10.4915 11.6982 10.4883 11.7209 10.4806 11.7423C10.4729 11.7637 10.4609 11.7833 10.4453 11.7998C10.4298 11.8164 10.411 11.8296 10.3901 11.8386C10.3692 11.8476 10.3468 11.8522 10.324 11.8521H6.57208C6.35892 11.8461 6.15505 11.7636 5.9977 11.6197C5.84036 11.4757 5.74005 11.28 5.71511 11.0682C5.63718 10.4542 5.38472 9.87542 4.98769 9.40059C4.59067 8.92575 4.06574 8.5748 3.47522 8.38938C3.16081 8.29531 2.83484 8.24547 2.50669 8.24129C1.7599 8.24064 1.03613 8.49969 0.459385 8.97409C0.224306 9.167 -0.109385 8.89573 0.0350475 8.62811L0.039032 8.62114C0.518726 7.77037 1.24728 7.08676 2.12685 6.66215C2.25268 6.60106 2.38018 6.54628 2.50835 6.49614C2.55151 4.27551 5.12907 2.20131 5.12907 2.20131C4.43679 2.24182 4.41255 1.55253 4.41255 1.55253C4.37005 0.716802 4.93583 0.0470954 5.71643 0.00127513C5.91306 -0.0089229 6.10799 0.0422461 6.27425 0.147701L6.72581 0.431256C6.87698 0.528632 7.03654 0.612305 7.20261 0.681275C7.31689 0.727505 7.41875 0.799887 7.5 0.892609C7.58124 0.985332 7.63962 1.09581 7.67044 1.21518C7.67044 1.21518 7.87862 1.27694 7.95499 1.34799C8.009 1.39415 8.04851 1.45494 8.06875 1.52304C8.08898 1.59114 8.08909 1.66365 8.06905 1.7318C8.04901 1.79996 8.00968 1.86087 7.9558 1.90718C7.90192 1.95349 7.8358 1.98322 7.7654 1.9928C7.7654 1.9928 7.65915 2.01073 7.46226 1.97254Z"
			fill="white" />
	</g>
</svg>
